<svg width="990" height="660" viewBox="0 0 990 660" fill="none" xmlns="http://www.w3.org/2000/svg">
<g clip-path="url(#clip0_345_159)">
<rect width="990" height="660" fill="white"/>
<circle cx="94" cy="295" r="70" stroke="#FFA500" stroke-width="10"/>
<path d="M49.0943 272.043V282.277H46.6138V280.539H42.6099V278.547H46.6138V276.848H42.7857C41.6822 279.66 39.1626 281.594 35.2466 282.668L34.2701 280.695C38.3618 279.621 40.3638 277.668 40.7154 275.227H35.2271V273.234H43.4302C43.4302 273.811 43.3911 274.367 43.313 274.895H46.6138V272.043H49.0943ZM43.1763 282.492C46.7896 282.492 49.2115 283.879 49.231 286.086C49.2115 288.312 46.7896 289.719 43.1763 289.719C39.524 289.719 37.0826 288.312 37.1021 286.086C37.0826 283.879 39.524 282.492 43.1763 282.492ZM43.1763 284.445C40.9302 284.426 39.5826 284.992 39.5826 286.086C39.5826 287.18 40.9302 287.746 43.1763 287.746C45.3833 287.746 46.731 287.18 46.731 286.086C46.731 284.992 45.3833 284.426 43.1763 284.445ZM57.8833 274.816C57.8833 276.965 59.1333 279.035 61.9458 279.914L60.6177 281.848C58.7329 281.223 57.4146 280.012 56.6529 278.449C55.8814 280.246 54.5044 281.652 52.4732 282.336L51.1255 280.383C54.0943 279.387 55.3638 277.023 55.3833 274.582V272.961H57.8833V274.816ZM65.5005 272.023V276.184H67.9029V278.254H65.5005V282.57H63.0005V272.023H65.5005ZM59.6802 282.922C63.3521 282.922 65.6763 284.191 65.6763 286.359C65.6763 288.547 63.3521 289.797 59.6802 289.797C55.9302 289.797 53.5865 288.547 53.5865 286.359C53.5865 284.191 55.9302 282.922 59.6802 282.922ZM59.6802 284.875C57.3365 284.875 56.0669 285.383 56.0865 286.359C56.0669 287.375 57.3365 287.844 59.6802 287.844C61.9849 287.844 63.2154 287.375 63.2154 286.359C63.2154 285.383 61.9849 284.875 59.6802 284.875ZM83.0201 272.805V274.191C83.0201 275.5 83.0201 277.004 82.6685 278.918H84.9536V280.91H78.0396V283.469H83.0396V289.797H80.5396V285.422H70.3247V283.469H75.5396V280.91H68.6841V278.918H80.149C80.481 277.258 80.5298 275.949 80.5396 274.777H70.6763V272.805H83.0201ZM100.852 272.043V281.945H98.3521V272.043H100.852ZM95.1294 272.824V278.117H89.3482V279.582C92.3169 279.572 94.4068 279.523 96.8091 279.113L97.1216 281.105C94.3872 281.574 92.0044 281.633 88.4693 281.633H86.9068V276.223H92.649V274.816H86.8872V272.824H95.1294ZM91.438 282.688V284.211H98.3716V282.688H100.852V289.602H88.9576V282.688H91.438ZM91.438 287.609H98.3716V286.145H91.438V287.609ZM118.626 272.023V289.797H116.262V280.871H114.543V288.938H112.258V272.316H114.543V278.879H116.262V272.023H118.626ZM110.383 274.074V276.086H106.262V283.664C107.981 283.654 109.504 283.566 111.223 283.254L111.399 285.285C109.231 285.695 107.336 285.754 104.993 285.773H103.762V274.074H110.383ZM131.086 273.605V275.578H120.54V273.605H124.583V271.926H127.063V273.605H131.086ZM125.813 276.145C128.391 276.145 130.188 277.473 130.188 279.426C130.188 281.379 128.391 282.707 125.813 282.707C123.235 282.707 121.399 281.379 121.399 279.426C121.399 277.473 123.235 276.145 125.813 276.145ZM125.813 278.02C124.622 278.02 123.821 278.508 123.84 279.426C123.821 280.324 124.622 280.793 125.813 280.793C127.004 280.793 127.825 280.324 127.825 279.426C127.825 278.508 127.004 278.02 125.813 278.02ZM134.641 272.023V276.633H137.043V278.664H134.641V283.176H132.141V272.023H134.641ZM134.641 283.918V289.797H132.141V285.91H122.668V283.918H134.641ZM152.571 273.566V275.305C152.551 277.473 152.551 279.914 151.907 283.488L149.465 283.273C150.051 280.021 150.071 277.6 150.071 275.539H139.426V273.566H152.571ZM154.036 285.598V287.629H137.825V285.598H141.282V280.012H143.762V285.598H145.715V280.012H148.176V285.598H154.036ZM65.4224 299.023V305.84H67.9419V307.891H65.4224V316.758H62.9224V299.023H65.4224ZM60.6763 300.84C60.6568 306.152 58.5865 310.762 52.6099 313.691L51.2036 311.777C55.4126 309.668 57.6685 306.836 58.1372 302.871H52.2193V300.84H60.6763ZM78.9185 300.449V302.48H75.3638C75.481 304.287 76.7701 306.025 79.4263 306.777L78.2544 308.73C76.2622 308.154 74.8755 306.992 74.0943 305.488C73.313 307.139 71.8872 308.428 69.8169 309.043L68.5669 307.109C71.3111 306.299 72.6294 304.443 72.7857 302.48H69.2115V300.449H78.9185ZM75.3247 308.301V311.27C76.7017 311.201 78.0786 311.094 79.3677 310.918L79.5435 312.715C75.7935 313.418 71.7896 313.398 68.8013 313.418L68.4693 311.387C69.7681 311.387 71.2622 311.387 72.8247 311.348V308.301H75.3247ZM85.2271 306.035V308.125H82.8052V316.797H80.3052V299.023H82.8052V306.035H85.2271ZM93.8599 300.137C93.8599 304.727 91.9654 307.949 87.063 309.961L85.8716 308.164C87.9224 307.373 89.3091 306.387 90.188 305.195L86.3599 305.625L86.0669 303.652L91.106 303.398C91.2232 302.998 91.3111 302.588 91.3794 302.148H86.8091V300.137H93.8599ZM101.243 299.043V309.453H98.8794V305.195H97.2779V309.297H94.9341V299.355H97.2779V303.164H98.8794V299.043H101.243ZM101.243 310.098V316.602H89.1138V310.098H101.243ZM91.5747 312.09V314.609H98.8013V312.09H91.5747ZM113.586 300.586V302.598H111.848V310.449C112.59 310.41 113.313 310.342 114.016 310.254L114.172 312.051C110.559 312.676 106.458 312.754 103.411 312.754L103.176 310.703L105.188 310.684V302.598H103.665V300.586H113.586ZM118.254 299.023V316.797H115.793V307.48H113.059V305.488H115.793V299.023H118.254ZM107.61 310.645L109.446 310.586V302.598H107.61V310.645ZM129.895 301.367C129.895 303.965 132.2 306.758 136.223 307.441L135.129 309.512C132.034 308.896 129.729 307.158 128.586 304.863C127.405 307.139 125.1 308.887 122.024 309.512L120.95 307.441C124.895 306.738 127.219 303.945 127.239 301.367V300.078H129.895V301.367ZM136.809 312.559V314.609H120.54V312.559H136.809Z" fill="black"/>
<circle cx="873" cy="422" r="70" stroke="#009130" stroke-width="10"/>
<path d="M828.094 399.043V409.277H825.614V407.539H821.61V405.547H825.614V403.848H821.786C820.682 406.66 818.163 408.594 814.247 409.668L813.27 407.695C817.362 406.621 819.364 404.668 819.715 402.227H814.227V400.234H822.43C822.43 400.811 822.391 401.367 822.313 401.895H825.614V399.043H828.094ZM822.176 409.492C825.79 409.492 828.211 410.879 828.231 413.086C828.211 415.312 825.79 416.719 822.176 416.719C818.524 416.719 816.083 415.312 816.102 413.086C816.083 410.879 818.524 409.492 822.176 409.492ZM822.176 411.445C819.93 411.426 818.583 411.992 818.583 413.086C818.583 414.18 819.93 414.746 822.176 414.746C824.383 414.746 825.731 414.18 825.731 413.086C825.731 411.992 824.383 411.426 822.176 411.445ZM836.883 401.816C836.883 403.965 838.133 406.035 840.946 406.914L839.618 408.848C837.733 408.223 836.415 407.012 835.653 405.449C834.881 407.246 833.504 408.652 831.473 409.336L830.126 407.383C833.094 406.387 834.364 404.023 834.383 401.582V399.961H836.883V401.816ZM844.501 399.023V403.184H846.903V405.254H844.501V409.57H842.001V399.023H844.501ZM838.68 409.922C842.352 409.922 844.676 411.191 844.676 413.359C844.676 415.547 842.352 416.797 838.68 416.797C834.93 416.797 832.586 415.547 832.586 413.359C832.586 411.191 834.93 409.922 838.68 409.922ZM838.68 411.875C836.336 411.875 835.067 412.383 835.086 413.359C835.067 414.375 836.336 414.844 838.68 414.844C840.985 414.844 842.215 414.375 842.215 413.359C842.215 412.383 840.985 411.875 838.68 411.875ZM862.02 399.805V401.191C862.02 402.5 862.02 404.004 861.668 405.918H863.954V407.91H857.04V410.469H862.04V416.797H859.54V412.422H849.325V410.469H854.54V407.91H847.684V405.918H859.149C859.481 404.258 859.53 402.949 859.54 401.777H849.676V399.805H862.02ZM879.852 399.043V408.945H877.352V399.043H879.852ZM874.129 399.824V405.117H868.348V406.582C871.317 406.572 873.407 406.523 875.809 406.113L876.122 408.105C873.387 408.574 871.004 408.633 867.469 408.633H865.907V403.223H871.649V401.816H865.887V399.824H874.129ZM870.438 409.688V411.211H877.372V409.688H879.852V416.602H867.958V409.688H870.438ZM870.438 414.609H877.372V413.145H870.438V414.609ZM897.626 399.023V416.797H895.262V407.871H893.543V415.938H891.258V399.316H893.543V405.879H895.262V399.023H897.626ZM889.383 401.074V403.086H885.262V410.664C886.981 410.654 888.504 410.566 890.223 410.254L890.399 412.285C888.231 412.695 886.336 412.754 883.993 412.773H882.762V401.074H889.383ZM910.086 400.605V402.578H899.54V400.605H903.583V398.926H906.063V400.605H910.086ZM904.813 403.145C907.391 403.145 909.188 404.473 909.188 406.426C909.188 408.379 907.391 409.707 904.813 409.707C902.235 409.707 900.399 408.379 900.399 406.426C900.399 404.473 902.235 403.145 904.813 403.145ZM904.813 405.02C903.622 405.02 902.821 405.508 902.84 406.426C902.821 407.324 903.622 407.793 904.813 407.793C906.004 407.793 906.825 407.324 906.825 406.426C906.825 405.508 906.004 405.02 904.813 405.02ZM913.641 399.023V403.633H916.043V405.664H913.641V410.176H911.141V399.023H913.641ZM913.641 410.918V416.797H911.141V412.91H901.668V410.918H913.641ZM931.571 400.566V402.305C931.551 404.473 931.551 406.914 930.907 410.488L928.465 410.273C929.051 407.021 929.071 404.6 929.071 402.539H918.426V400.566H931.571ZM933.036 412.598V414.629H916.825V412.598H920.282V407.012H922.762V412.598H924.715V407.012H927.176V412.598H933.036ZM845.282 426.023V435.34H842.782V426.023H845.282ZM845.282 436.004V440.633H835.829V441.766H845.77V443.68H833.387V438.914H842.801V437.898H833.348V436.004H845.282ZM840.946 427.605V429.559H837.352C837.567 431.111 838.944 432.625 841.61 433.191L840.516 435.086C838.377 434.617 836.903 433.514 836.083 432.078C835.282 433.611 833.807 434.793 831.649 435.32L830.555 433.367C833.172 432.742 834.54 431.219 834.774 429.559H831.161V427.605H834.793V425.945H837.333V427.605H840.946ZM861.786 426.023V430.008H864.188V432H861.786V436.141H859.286V426.023H861.786ZM861.786 436.883V443.602H850.165V436.883H861.786ZM852.626 438.855V441.609H859.325V438.855H852.626ZM852.684 427C855.438 426.98 857.528 428.777 857.528 431.297C857.528 433.816 855.438 435.594 852.684 435.594C849.911 435.594 847.801 433.816 847.801 431.297C847.801 428.777 849.911 426.98 852.684 427ZM852.684 429.09C851.278 429.07 850.243 429.93 850.262 431.297C850.243 432.684 851.278 433.504 852.684 433.504C854.051 433.504 855.086 432.684 855.106 431.297C855.086 429.93 854.051 429.07 852.684 429.09ZM872.86 427.137C872.86 431.727 870.965 434.949 866.063 436.961L864.872 435.164C866.922 434.373 868.309 433.387 869.188 432.195L865.36 432.625L865.067 430.652L870.106 430.398C870.223 429.998 870.311 429.588 870.379 429.148H865.809V427.137H872.86ZM880.243 426.043V436.453H877.879V432.195H876.278V436.297H873.934V426.355H876.278V430.164H877.879V426.043H880.243ZM880.243 437.098V443.602H868.114V437.098H880.243ZM870.575 439.09V441.609H877.801V439.09H870.575ZM892.586 427.586V429.598H890.848V437.449C891.59 437.41 892.313 437.342 893.016 437.254L893.172 439.051C889.559 439.676 885.458 439.754 882.411 439.754L882.176 437.703L884.188 437.684V429.598H882.665V427.586H892.586ZM897.254 426.023V443.797H894.793V434.48H892.059V432.488H894.793V426.023H897.254ZM886.61 437.645L888.446 437.586V429.598H886.61V437.645ZM908.895 428.367C908.895 430.965 911.2 433.758 915.223 434.441L914.129 436.512C911.034 435.896 908.729 434.158 907.586 431.863C906.405 434.139 904.1 435.887 901.024 436.512L899.95 434.441C903.895 433.738 906.219 430.945 906.239 428.367V427.078H908.895V428.367ZM915.809 439.559V441.609H899.54V439.559H915.809Z" fill="black"/>
<line x1="156.347" y1="195.622" x2="282.347" y2="218.622" stroke="#D1D1D1" stroke-width="15"/>
<line x1="105.682" y1="100.594" x2="235.04" y2="354.404" stroke="#D1D1D1" stroke-width="15"/>
<line x1="109.224" y1="104.48" x2="-5.77553" y2="37.4804" stroke="#D1D1D1" stroke-width="15"/>
<line x1="278.627" y1="218.885" x2="481.693" y2="151.147" stroke="#D1D1D1" stroke-width="15"/>
<line x1="134.885" y1="156.501" x2="657.885" y2="148.501" stroke="#D1D1D1" stroke-width="15"/>
<line x1="652.013" y1="146.421" x2="790.013" y2="270.421" stroke="#D1D1D1" stroke-width="15"/>
<line x1="787.549" y1="264.449" x2="762.486" y2="682.114" stroke="#D1D1D1" stroke-width="15"/>
<path d="M54 408.4H74V388.4H54V408.4ZM94.1172 391.043V401.277H91.6367V399.539H87.6328V397.547H91.6367V395.848H87.8086C86.7051 398.66 84.1855 400.594 80.2695 401.668L79.293 399.695C83.3848 398.621 85.3867 396.668 85.7383 394.227H80.25V392.234H88.4531C88.4531 392.811 88.4141 393.367 88.3359 393.895H91.6367V391.043H94.1172ZM88.1992 401.492C91.8125 401.492 94.2344 402.879 94.2539 405.086C94.2344 407.312 91.8125 408.719 88.1992 408.719C84.5469 408.719 82.1055 407.312 82.125 405.086C82.1055 402.879 84.5469 401.492 88.1992 401.492ZM88.1992 403.445C85.9531 403.426 84.6055 403.992 84.6055 405.086C84.6055 406.18 85.9531 406.746 88.1992 406.746C90.4062 406.746 91.7539 406.18 91.7539 405.086C91.7539 403.992 90.4062 403.426 88.1992 403.445ZM102.906 393.816C102.906 395.965 104.156 398.035 106.969 398.914L105.641 400.848C103.756 400.223 102.438 399.012 101.676 397.449C100.904 399.246 99.5273 400.652 97.4961 401.336L96.1484 399.383C99.1172 398.387 100.387 396.023 100.406 393.582V391.961H102.906V393.816ZM110.523 391.023V395.184H112.926V397.254H110.523V401.57H108.023V391.023H110.523ZM104.703 401.922C108.375 401.922 110.699 403.191 110.699 405.359C110.699 407.547 108.375 408.797 104.703 408.797C100.953 408.797 98.6094 407.547 98.6094 405.359C98.6094 403.191 100.953 401.922 104.703 401.922ZM104.703 403.875C102.359 403.875 101.09 404.383 101.109 405.359C101.09 406.375 102.359 406.844 104.703 406.844C107.008 406.844 108.238 406.375 108.238 405.359C108.238 404.383 107.008 403.875 104.703 403.875ZM128.043 391.805V393.191C128.043 394.5 128.043 396.004 127.691 397.918H129.977V399.91H123.062V402.469H128.062V408.797H125.562V404.422H115.348V402.469H120.562V399.91H113.707V397.918H125.172C125.504 396.258 125.553 394.949 125.562 393.777H115.699V391.805H128.043ZM145.875 391.043V400.945H143.375V391.043H145.875ZM140.152 391.824V397.117H134.371V398.582C137.34 398.572 139.43 398.523 141.832 398.113L142.145 400.105C139.41 400.574 137.027 400.633 133.492 400.633H131.93V395.223H137.672V393.816H131.91V391.824H140.152ZM136.461 401.688V403.211H143.395V401.688H145.875V408.602H133.98V401.688H136.461ZM136.461 406.609H143.395V405.145H136.461V406.609ZM163.648 391.023V408.797H161.285V399.871H159.566V407.938H157.281V391.316H159.566V397.879H161.285V391.023H163.648ZM155.406 393.074V395.086H151.285V402.664C153.004 402.654 154.527 402.566 156.246 402.254L156.422 404.285C154.254 404.695 152.359 404.754 150.016 404.773H148.785V393.074H155.406ZM176.109 392.605V394.578H165.562V392.605H169.605V390.926H172.086V392.605H176.109ZM170.836 395.145C173.414 395.145 175.211 396.473 175.211 398.426C175.211 400.379 173.414 401.707 170.836 401.707C168.258 401.707 166.422 400.379 166.422 398.426C166.422 396.473 168.258 395.145 170.836 395.145ZM170.836 397.02C169.645 397.02 168.844 397.508 168.863 398.426C168.844 399.324 169.645 399.793 170.836 399.793C172.027 399.793 172.848 399.324 172.848 398.426C172.848 397.508 172.027 397.02 170.836 397.02ZM179.664 391.023V395.633H182.066V397.664H179.664V402.176H177.164V391.023H179.664ZM179.664 402.918V408.797H177.164V404.91H167.691V402.918H179.664ZM197.594 392.566V394.305C197.574 396.473 197.574 398.914 196.93 402.488L194.488 402.273C195.074 399.021 195.094 396.6 195.094 394.539H184.449V392.566H197.594ZM199.059 404.598V406.629H182.848V404.598H186.305V399.012H188.785V404.598H190.738V399.012H193.199V404.598H199.059ZM214.879 392.898V394.852H211.285C211.305 396.678 212.594 398.475 215.445 399.227L214.312 401.18C212.301 400.652 210.895 399.52 210.094 398.094C209.312 399.725 207.887 401.014 205.797 401.629L204.605 399.676C207.477 398.885 208.785 396.873 208.805 394.852H205.23V392.898H208.805V390.945H211.324V392.898H214.879ZM218.844 391.023V395.242H221.246V397.254H218.844V401.746H216.344V391.023H218.844ZM213.023 402.078C216.734 402.078 219.02 403.309 219.02 405.457C219.02 407.566 216.734 408.777 213.023 408.777C209.234 408.777 206.93 407.566 206.93 405.457C206.93 403.309 209.234 402.078 213.023 402.078ZM213.023 403.992C210.66 403.992 209.41 404.441 209.43 405.457C209.41 406.414 210.66 406.902 213.023 406.902C215.328 406.902 216.559 406.414 216.559 405.457C216.559 404.441 215.328 403.992 213.023 403.992ZM237.086 391.043V404.461H234.586V403.055H231.188V401.355H234.586V391.043H237.086ZM237.477 406.492V408.484H224.234V403.172H226.715V400.809C225.123 400.877 223.609 400.887 222.262 400.887L221.969 398.914C225.23 398.895 229.625 398.855 233.375 398.387L233.512 400.164C232.105 400.398 230.65 400.564 229.215 400.672V404.051H226.715V406.492H237.477ZM227.75 391.648C230.328 391.629 232.184 392.938 232.184 394.832C232.184 396.727 230.328 397.957 227.75 397.957C225.113 397.957 223.277 396.727 223.277 394.832C223.277 392.938 225.094 391.629 227.75 391.648ZM227.75 393.465C226.48 393.465 225.621 393.953 225.641 394.832C225.621 395.691 226.48 396.16 227.75 396.16C228.941 396.16 229.801 395.691 229.82 394.832C229.801 393.953 228.941 393.465 227.75 393.465ZM245.875 394.07C245.855 396.336 247.145 398.543 250.035 399.48L248.727 401.434C246.783 400.779 245.445 399.5 244.684 397.879C243.883 399.666 242.467 401.062 240.406 401.766L239.02 399.793C242.047 398.855 243.355 396.473 243.375 394.051V392.117H245.875V394.07ZM253.414 391.023V396.16H255.816V398.27H253.414V404.051H250.914V391.023H253.414ZM254.078 406.492V408.484H241.871V402.762H244.41V406.492H254.078ZM267.145 392.605V394.578H256.598V392.605H260.641V390.926H263.121V392.605H267.145ZM261.871 395.145C264.449 395.145 266.246 396.473 266.246 398.426C266.246 400.379 264.449 401.707 261.871 401.707C259.293 401.707 257.457 400.379 257.457 398.426C257.457 396.473 259.293 395.145 261.871 395.145ZM261.871 397.02C260.68 397.02 259.879 397.508 259.898 398.426C259.879 399.324 260.68 399.793 261.871 399.793C263.062 399.793 263.883 399.324 263.883 398.426C263.883 397.508 263.062 397.02 261.871 397.02ZM270.699 391.023V395.633H273.102V397.664H270.699V402.176H268.199V391.023H270.699ZM270.699 402.918V408.797H268.199V404.91H258.727V402.918H270.699ZM281.773 392.137C281.773 396.727 279.879 399.949 274.977 401.961L273.785 400.164C275.836 399.373 277.223 398.387 278.102 397.195L274.273 397.625L273.98 395.652L279.02 395.398C279.137 394.998 279.225 394.588 279.293 394.148H274.723V392.137H281.773ZM289.156 391.043V401.453H286.793V397.195H285.191V401.297H282.848V391.355H285.191V395.164H286.793V391.043H289.156ZM289.156 402.098V408.602H277.027V402.098H289.156ZM279.488 404.09V406.609H286.715V404.09H279.488ZM301.5 392.586V394.598H299.762V402.449C300.504 402.41 301.227 402.342 301.93 402.254L302.086 404.051C298.473 404.676 294.371 404.754 291.324 404.754L291.09 402.703L293.102 402.684V394.598H291.578V392.586H301.5ZM306.168 391.023V408.797H303.707V399.48H300.973V397.488H303.707V391.023H306.168ZM295.523 402.645L297.359 402.586V394.598H295.523V402.645ZM317.809 393.367C317.809 395.965 320.113 398.758 324.137 399.441L323.043 401.512C319.947 400.896 317.643 399.158 316.5 396.863C315.318 399.139 313.014 400.887 309.938 401.512L308.863 399.441C312.809 398.738 315.133 395.945 315.152 393.367V392.078H317.809V393.367ZM324.723 404.559V406.609H308.453V404.559H324.723ZM345.348 391.023V408.836H342.887V399.305H339.586V404.617H331.012V392.391H333.492V396.707H337.145V392.391H339.586V397.293H342.887V391.023H345.348ZM333.492 402.625H337.145V398.66H333.492V402.625ZM356.988 393.367C356.988 395.965 359.293 398.758 363.316 399.441L362.223 401.512C359.127 400.896 356.822 399.158 355.68 396.863C354.498 399.139 352.193 400.887 349.117 401.512L348.043 399.441C351.988 398.738 354.312 395.945 354.332 393.367V392.078H356.988V393.367ZM363.902 404.559V406.609H347.633V404.559H363.902ZM379.918 391.023V408.836H377.457V399.305H374.332V397.293H377.457V391.023H379.918ZM374.039 392.508V394.52H368.219V397.469H373.395V399.422H368.219V402.781C370.68 402.762 372.652 402.674 374.859 402.332L375.113 404.324C372.516 404.715 370.191 404.812 367.145 404.812H365.738V392.508H374.039ZM391.676 392.625V404.559H383.082V392.625H391.676ZM385.582 394.578V402.586H389.254V394.578H385.582ZM397.086 391.023V408.836H394.566V391.023H397.086ZM402.945 391.766V397.527C405.162 397.508 407.428 397.342 409.82 396.922L410.152 398.934C407.242 399.461 404.586 399.617 401.949 399.598H400.484V391.766H402.945ZM414.469 391.023V400.027H411.988V395.516H407.594V393.523H411.988V391.023H414.469ZM414.469 400.691V405.535H405.172V406.609H414.898V408.602H402.672V403.641H411.969V402.645H402.652V400.691H414.469Z" fill="black"/>
<path d="M64.6641 426.898V428.852H61.0703C61.0898 430.678 62.3789 432.475 65.2305 433.227L64.0977 435.18C62.0859 434.652 60.6797 433.52 59.8789 432.094C59.0977 433.725 57.6719 435.014 55.582 435.629L54.3906 433.676C57.2617 432.885 58.5703 430.873 58.5898 428.852H55.0156V426.898H58.5898V424.945H61.1094V426.898H64.6641ZM68.6289 425.023V429.242H71.0312V431.254H68.6289V435.746H66.1289V425.023H68.6289ZM62.8086 436.078C66.5195 436.078 68.8047 437.309 68.8047 439.457C68.8047 441.566 66.5195 442.777 62.8086 442.777C59.0195 442.777 56.7148 441.566 56.7148 439.457C56.7148 437.309 59.0195 436.078 62.8086 436.078ZM62.8086 437.992C60.4453 437.992 59.1953 438.441 59.2148 439.457C59.1953 440.414 60.4453 440.902 62.8086 440.902C65.1133 440.902 66.3438 440.414 66.3438 439.457C66.3438 438.441 65.1133 437.992 62.8086 437.992ZM86.8711 425.043V438.461H84.3711V437.055H80.9727V435.355H84.3711V425.043H86.8711ZM87.2617 440.492V442.484H74.0195V437.172H76.5V434.809C74.9082 434.877 73.3945 434.887 72.0469 434.887L71.7539 432.914C75.0156 432.895 79.4102 432.855 83.1602 432.387L83.2969 434.164C81.8906 434.398 80.4355 434.564 79 434.672V438.051H76.5V440.492H87.2617ZM77.5352 425.648C80.1133 425.629 81.9688 426.938 81.9688 428.832C81.9688 430.727 80.1133 431.957 77.5352 431.957C74.8984 431.957 73.0625 430.727 73.0625 428.832C73.0625 426.938 74.8789 425.629 77.5352 425.648ZM77.5352 427.465C76.2656 427.465 75.4062 427.953 75.4258 428.832C75.4062 429.691 76.2656 430.16 77.5352 430.16C78.7266 430.16 79.5859 429.691 79.6055 428.832C79.5859 427.953 78.7266 427.465 77.5352 427.465ZM98.4141 431.391V433.52H105.309V435.531H89.0977V433.52H95.9531V431.391H98.4141ZM97.1836 436.508C101.051 436.508 103.355 437.621 103.375 439.652C103.355 441.684 101.051 442.797 97.1836 442.797C93.2773 442.797 90.9531 441.684 90.9531 439.652C90.9531 437.621 93.2773 436.508 97.1836 436.508ZM97.1836 438.402C94.7031 438.402 93.4727 438.812 93.4922 439.652C93.4727 440.531 94.7031 440.941 97.1836 440.941C99.6055 440.941 100.855 440.531 100.875 439.652C100.855 438.812 99.6055 438.402 97.1836 438.402ZM103.844 425.785V427.738H99.0195C99.459 428.959 101.275 430.15 104.605 430.453L103.727 432.406C100.377 432.074 98.1309 430.834 97.1836 429.105C96.2363 430.824 94.0195 432.074 90.6797 432.406L89.8008 430.453C93.1113 430.15 94.9375 428.979 95.3867 427.738H90.582V425.785H103.844ZM120.484 425.023V429.301H122.887V431.371H120.484V435.434H117.984V425.023H120.484ZM111.324 436.117V437.465H117.984V436.117H120.484V442.602H108.844V436.117H111.324ZM111.324 440.648H117.984V439.379H111.324V440.648ZM116.93 426.586V428.539H106.383V426.586H110.426V424.906H112.906V426.586H116.93ZM111.656 429.047C114.234 429.047 116.031 430.297 116.031 432.191C116.031 434.086 114.234 435.336 111.656 435.336C109.039 435.336 107.242 434.086 107.242 432.191C107.242 430.297 109.039 429.047 111.656 429.047ZM111.656 430.883C110.465 430.863 109.664 431.352 109.684 432.191C109.664 433.051 110.465 433.52 111.656 433.52C112.848 433.52 113.668 433.051 113.668 432.191C113.668 431.352 112.848 430.863 111.656 430.883ZM138.668 425.023V442.836H136.207V433.305H132.906V438.617H124.332V426.391H126.812V430.707H130.465V426.391H132.906V431.293H136.207V425.023H138.668ZM126.812 436.625H130.465V432.66H126.812V436.625ZM150.309 427.367C150.309 429.965 152.613 432.758 156.637 433.441L155.543 435.512C152.447 434.896 150.143 433.158 149 430.863C147.818 433.139 145.514 434.887 142.438 435.512L141.363 433.441C145.309 432.738 147.633 429.945 147.652 427.367V426.078H150.309V427.367ZM157.223 438.559V440.609H140.953V438.559H157.223ZM173.238 425.023V442.836H170.777V433.305H167.652V431.293H170.777V425.023H173.238ZM167.359 426.508V428.52H161.539V431.469H166.715V433.422H161.539V436.781C164 436.762 165.973 436.674 168.18 436.332L168.434 438.324C165.836 438.715 163.512 438.812 160.465 438.812H159.059V426.508H167.359ZM184.996 426.625V438.559H176.402V426.625H184.996ZM178.902 428.578V436.586H182.574V428.578H178.902ZM190.406 425.023V442.836H187.887V425.023H190.406ZM196.266 425.766V431.527C198.482 431.508 200.748 431.342 203.141 430.922L203.473 432.934C200.562 433.461 197.906 433.617 195.27 433.598H193.805V425.766H196.266ZM207.789 425.023V434.027H205.309V429.516H200.914V427.523H205.309V425.023H207.789ZM207.789 434.691V439.535H198.492V440.609H208.219V442.602H195.992V437.641H205.289V436.645H195.973V434.691H207.789ZM69.5078 452.043V462.277H67.0273V460.539H63.0234V458.547H67.0273V456.848H63.1992C62.0957 459.66 59.5762 461.594 55.6602 462.668L54.6836 460.695C58.7754 459.621 60.7773 457.668 61.1289 455.227H55.6406V453.234H63.8438C63.8438 453.811 63.8047 454.367 63.7266 454.895H67.0273V452.043H69.5078ZM63.5898 462.492C67.2031 462.492 69.625 463.879 69.6445 466.086C69.625 468.312 67.2031 469.719 63.5898 469.719C59.9375 469.719 57.4961 468.312 57.5156 466.086C57.4961 463.879 59.9375 462.492 63.5898 462.492ZM63.5898 464.445C61.3438 464.426 59.9961 464.992 59.9961 466.086C59.9961 467.18 61.3438 467.746 63.5898 467.746C65.7969 467.746 67.1445 467.18 67.1445 466.086C67.1445 464.992 65.7969 464.426 63.5898 464.445ZM78.2969 454.816C78.2969 456.965 79.5469 459.035 82.3594 459.914L81.0312 461.848C79.1465 461.223 77.8281 460.012 77.0664 458.449C76.2949 460.246 74.918 461.652 72.8867 462.336L71.5391 460.383C74.5078 459.387 75.7773 457.023 75.7969 454.582V452.961H78.2969V454.816ZM85.9141 452.023V456.184H88.3164V458.254H85.9141V462.57H83.4141V452.023H85.9141ZM80.0938 462.922C83.7656 462.922 86.0898 464.191 86.0898 466.359C86.0898 468.547 83.7656 469.797 80.0938 469.797C76.3438 469.797 74 468.547 74 466.359C74 464.191 76.3438 462.922 80.0938 462.922ZM80.0938 464.875C77.75 464.875 76.4805 465.383 76.5 466.359C76.4805 467.375 77.75 467.844 80.0938 467.844C82.3984 467.844 83.6289 467.375 83.6289 466.359C83.6289 465.383 82.3984 464.875 80.0938 464.875ZM103.199 452.043V455.793H105.602V457.824H103.199V462.062H100.699V452.043H103.199ZM103.199 462.863V469.582H91.5586V462.863H103.199ZM94 464.797V467.629H100.758V464.797H94ZM92.3203 452.883V459.055C94.4688 459.016 96.7832 458.811 99.2539 458.332L99.5469 460.363C96.6172 460.949 93.8633 461.105 91.3438 461.105H89.8203V452.883H92.3203ZM120.875 459.973V461.945H115.719V465.734H122.652V467.766H106.383V465.734H113.238V461.945H108.297V453.273H120.738V455.266H110.797V459.973H120.875ZM138.414 453.898V455.852H134.82C134.84 457.678 136.129 459.475 138.98 460.227L137.848 462.18C135.836 461.652 134.43 460.52 133.629 459.094C132.848 460.725 131.422 462.014 129.332 462.629L128.141 460.676C131.012 459.885 132.32 457.873 132.34 455.852H128.766V453.898H132.34V451.945H134.859V453.898H138.414ZM142.379 452.023V456.242H144.781V458.254H142.379V462.746H139.879V452.023H142.379ZM136.559 463.078C140.27 463.078 142.555 464.309 142.555 466.457C142.555 468.566 140.27 469.777 136.559 469.777C132.77 469.777 130.465 468.566 130.465 466.457C130.465 464.309 132.77 463.078 136.559 463.078ZM136.559 464.992C134.195 464.992 132.945 465.441 132.965 466.457C132.945 467.414 134.195 467.902 136.559 467.902C138.863 467.902 140.094 467.414 140.094 466.457C140.094 465.441 138.863 464.992 136.559 464.992ZM160.621 452.043V465.461H158.121V464.055H154.723V462.355H158.121V452.043H160.621ZM161.012 467.492V469.484H147.77V464.172H150.25V461.809C148.658 461.877 147.145 461.887 145.797 461.887L145.504 459.914C148.766 459.895 153.16 459.855 156.91 459.387L157.047 461.164C155.641 461.398 154.186 461.564 152.75 461.672V465.051H150.25V467.492H161.012ZM151.285 452.648C153.863 452.629 155.719 453.938 155.719 455.832C155.719 457.727 153.863 458.957 151.285 458.957C148.648 458.957 146.812 457.727 146.812 455.832C146.812 453.938 148.629 452.629 151.285 452.648ZM151.285 454.465C150.016 454.465 149.156 454.953 149.176 455.832C149.156 456.691 150.016 457.16 151.285 457.16C152.477 457.16 153.336 456.691 153.355 455.832C153.336 454.953 152.477 454.465 151.285 454.465ZM169.762 456.047C169.762 459.309 171.246 462.59 174.254 463.859L172.789 465.852C170.758 464.934 169.352 463.166 168.551 460.969C167.74 463.361 166.285 465.295 164.117 466.281L162.613 464.211C165.719 462.902 167.223 459.504 167.242 456.047V453.391H169.762V456.047ZM177.73 452.023V469.836H175.211V452.023H177.73ZM190.504 453.215C193.316 453.195 195.426 455.031 195.426 457.57C195.426 460.129 193.316 461.945 190.504 461.945C187.691 461.945 185.562 460.129 185.562 457.57C185.562 455.031 187.691 453.195 190.504 453.215ZM190.504 455.363C189.098 455.363 188.023 456.184 188.043 457.57C188.023 458.977 189.098 459.777 190.504 459.777C191.91 459.777 192.984 458.977 193.004 457.57C192.984 456.184 191.93 455.363 190.504 455.363ZM199.684 452.023V469.836H197.203V452.023H199.684ZM184.82 464.172C187.984 464.191 192.379 464.133 196.188 463.605L196.383 465.402C192.438 466.164 188.219 466.203 185.113 466.203L184.82 464.172ZM212.164 453.898V455.852H208.57C208.59 457.678 209.879 459.475 212.73 460.227L211.598 462.18C209.586 461.652 208.18 460.52 207.379 459.094C206.598 460.725 205.172 462.014 203.082 462.629L201.891 460.676C204.762 459.885 206.07 457.873 206.09 455.852H202.516V453.898H206.09V451.945H208.609V453.898H212.164ZM216.129 452.023V456.242H218.531V458.254H216.129V462.746H213.629V452.023H216.129ZM210.309 463.078C214.02 463.078 216.305 464.309 216.305 466.457C216.305 468.566 214.02 469.777 210.309 469.777C206.52 469.777 204.215 468.566 204.215 466.457C204.215 464.309 206.52 463.078 210.309 463.078ZM210.309 464.992C207.945 464.992 206.695 465.441 206.715 466.457C206.695 467.414 207.945 467.902 210.309 467.902C212.613 467.902 213.844 467.414 213.844 466.457C213.844 465.441 212.613 464.992 210.309 464.992ZM233.629 453.059V454.66C233.629 456.32 233.629 458.137 233.18 460.617H235.523V462.629H228.59V469.816H226.09V462.629H219.312V460.617H230.66C231.109 458.322 231.148 456.584 231.148 455.051H221.168V453.059H233.629ZM251.344 453.898V455.852H247.75C247.77 457.678 249.059 459.475 251.91 460.227L250.777 462.18C248.766 461.652 247.359 460.52 246.559 459.094C245.777 460.725 244.352 462.014 242.262 462.629L241.07 460.676C243.941 459.885 245.25 457.873 245.27 455.852H241.695V453.898H245.27V451.945H247.789V453.898H251.344ZM255.309 452.023V456.242H257.711V458.254H255.309V462.746H252.809V452.023H255.309ZM249.488 463.078C253.199 463.078 255.484 464.309 255.484 466.457C255.484 468.566 253.199 469.777 249.488 469.777C245.699 469.777 243.395 468.566 243.395 466.457C243.395 464.309 245.699 463.078 249.488 463.078ZM249.488 464.992C247.125 464.992 245.875 465.441 245.895 466.457C245.875 467.414 247.125 467.902 249.488 467.902C251.793 467.902 253.023 467.414 253.023 466.457C253.023 465.441 251.793 464.992 249.488 464.992ZM273.551 452.043V465.461H271.051V464.055H267.652V462.355H271.051V452.043H273.551ZM273.941 467.492V469.484H260.699V464.172H263.18V461.809C261.588 461.877 260.074 461.887 258.727 461.887L258.434 459.914C261.695 459.895 266.09 459.855 269.84 459.387L269.977 461.164C268.57 461.398 267.115 461.564 265.68 461.672V465.051H263.18V467.492H273.941ZM264.215 452.648C266.793 452.629 268.648 453.938 268.648 455.832C268.648 457.727 266.793 458.957 264.215 458.957C261.578 458.957 259.742 457.727 259.742 455.832C259.742 453.938 261.559 452.629 264.215 452.648ZM264.215 454.465C262.945 454.465 262.086 454.953 262.105 455.832C262.086 456.691 262.945 457.16 264.215 457.16C265.406 457.16 266.266 456.691 266.285 455.832C266.266 454.953 265.406 454.465 264.215 454.465ZM291.148 452.023V469.797H288.785V460.871H287.066V468.938H284.781V452.316H287.066V458.879H288.785V452.023H291.148ZM282.906 454.074V456.086H278.785V463.664C280.504 463.654 282.027 463.566 283.746 463.254L283.922 465.285C281.754 465.695 279.859 465.754 277.516 465.773H276.285V454.074H282.906ZM309.332 465.773V467.824H293.062V465.773H299.918V463.098H294.938V457.121H304.996V455.168H294.918V453.176H307.457V459.074H297.438V461.066H307.867V463.098H302.398V465.773H309.332ZM320.777 468.195C317.672 468.195 315.445 466.477 315.387 464.016H318.355C318.414 465.07 319.43 465.773 320.797 465.773C322.203 465.773 323.219 464.973 323.199 463.84C323.219 462.688 322.184 461.867 320.523 461.867H319.215V459.699H320.523C321.91 459.699 322.887 458.938 322.887 457.824C322.887 456.75 322.066 456.008 320.816 456.008C319.566 456.008 318.531 456.711 318.492 457.785H315.68C315.719 455.344 317.926 453.664 320.816 453.664C323.766 453.664 325.738 455.402 325.719 457.648C325.738 459.23 324.625 460.363 323.043 460.637V460.754C325.113 461.008 326.266 462.277 326.246 464.035C326.266 466.457 323.961 468.195 320.777 468.195ZM328.863 468L334.82 456.359V456.262H327.887V453.859H337.867V456.301L331.91 468H328.863ZM345.914 453.859V468H342.965V456.652H342.887L339.645 458.684V456.086L343.141 453.859H345.914ZM354.254 462.609C354.254 458.938 355.387 455.891 357.262 453.254H360.016C358.668 455.207 357.262 459.113 357.262 462.609C357.262 466.125 358.668 470.031 360.016 471.984H357.262C355.387 469.348 354.254 466.281 354.254 462.609ZM370.973 453.117V455.012H369.527V458.586C370.23 458.547 370.934 458.488 371.598 458.41L371.695 460.207C368.219 460.754 364.215 460.793 361.188 460.793L360.914 458.84L362.848 458.82V455.012H361.383V453.117H370.973ZM375.113 452.023V455.52H377.516V457.57H375.113V461.145H372.613V452.023H375.113ZM375.113 461.848V466.594H365.797V467.707H375.621V469.68H363.355V464.836H372.633V463.781H363.316V461.848H375.113ZM365.25 458.801L367.125 458.723V455.012H365.25V458.801ZM394.508 460.441V462.434H378.297V460.441H381.949V458.312C380.65 457.736 379.918 456.857 379.918 455.715C379.918 453.566 382.438 452.277 386.402 452.277C390.328 452.277 392.848 453.566 392.867 455.715C392.857 456.867 392.096 457.766 390.777 458.332V460.441H394.508ZM386.383 463.371C390.23 463.371 392.555 464.504 392.574 466.555C392.555 468.645 390.23 469.777 386.383 469.777C382.477 469.777 380.152 468.645 380.152 466.555C380.152 464.504 382.477 463.371 386.383 463.371ZM386.383 465.246C383.922 465.246 382.672 465.676 382.691 466.555C382.672 467.473 383.922 467.922 386.383 467.922C388.785 467.922 390.055 467.473 390.074 466.555C390.055 465.676 388.785 465.246 386.383 465.246ZM386.402 454.191C383.883 454.191 382.496 454.719 382.516 455.715C382.496 456.691 383.883 457.18 386.402 457.18C388.883 457.18 390.289 456.691 390.289 455.715C390.289 454.719 388.883 454.191 386.402 454.191ZM384.469 460.441H388.297V458.957C387.711 459.025 387.076 459.055 386.402 459.055C385.709 459.055 385.064 459.025 384.469 458.938V460.441ZM411.832 460.422V462.375H395.582V460.422H402.496V458.898H397.555V452.805H409.879V454.738H400.035V456.945H409.977V458.898H404.938V460.422H411.832ZM403.668 463.273C407.516 463.273 409.84 464.445 409.859 466.555C409.84 468.625 407.516 469.816 403.668 469.816C399.781 469.816 397.438 468.625 397.438 466.555C397.438 464.445 399.781 463.273 403.668 463.273ZM403.668 465.168C401.207 465.168 399.957 465.637 399.977 466.555C399.957 467.492 401.207 467.922 403.668 467.922C406.07 467.922 407.34 467.492 407.359 466.555C407.34 465.637 406.07 465.168 403.668 465.168ZM418.57 462.609C418.57 466.281 417.438 469.348 415.562 471.984H412.809C414.156 470.031 415.562 466.125 415.562 462.609C415.562 459.113 414.156 455.207 412.809 453.254H415.562C417.438 455.891 418.57 458.938 418.57 462.609Z" fill="#A370E4"/>
<path d="M54 529.4H74V509.4H54V529.4ZM94.1172 512.043V522.277H91.6367V520.539H87.6328V518.547H91.6367V516.848H87.8086C86.7051 519.66 84.1855 521.594 80.2695 522.668L79.293 520.695C83.3848 519.621 85.3867 517.668 85.7383 515.227H80.25V513.234H88.4531C88.4531 513.811 88.4141 514.367 88.3359 514.895H91.6367V512.043H94.1172ZM88.1992 522.492C91.8125 522.492 94.2344 523.879 94.2539 526.086C94.2344 528.312 91.8125 529.719 88.1992 529.719C84.5469 529.719 82.1055 528.312 82.125 526.086C82.1055 523.879 84.5469 522.492 88.1992 522.492ZM88.1992 524.445C85.9531 524.426 84.6055 524.992 84.6055 526.086C84.6055 527.18 85.9531 527.746 88.1992 527.746C90.4062 527.746 91.7539 527.18 91.7539 526.086C91.7539 524.992 90.4062 524.426 88.1992 524.445ZM102.906 514.816C102.906 516.965 104.156 519.035 106.969 519.914L105.641 521.848C103.756 521.223 102.438 520.012 101.676 518.449C100.904 520.246 99.5273 521.652 97.4961 522.336L96.1484 520.383C99.1172 519.387 100.387 517.023 100.406 514.582V512.961H102.906V514.816ZM110.523 512.023V516.184H112.926V518.254H110.523V522.57H108.023V512.023H110.523ZM104.703 522.922C108.375 522.922 110.699 524.191 110.699 526.359C110.699 528.547 108.375 529.797 104.703 529.797C100.953 529.797 98.6094 528.547 98.6094 526.359C98.6094 524.191 100.953 522.922 104.703 522.922ZM104.703 524.875C102.359 524.875 101.09 525.383 101.109 526.359C101.09 527.375 102.359 527.844 104.703 527.844C107.008 527.844 108.238 527.375 108.238 526.359C108.238 525.383 107.008 524.875 104.703 524.875ZM128.043 512.805V514.191C128.043 515.5 128.043 517.004 127.691 518.918H129.977V520.91H123.062V523.469H128.062V529.797H125.562V525.422H115.348V523.469H120.562V520.91H113.707V518.918H125.172C125.504 517.258 125.553 515.949 125.562 514.777H115.699V512.805H128.043ZM145.875 512.043V521.945H143.375V512.043H145.875ZM140.152 512.824V518.117H134.371V519.582C137.34 519.572 139.43 519.523 141.832 519.113L142.145 521.105C139.41 521.574 137.027 521.633 133.492 521.633H131.93V516.223H137.672V514.816H131.91V512.824H140.152ZM136.461 522.688V524.211H143.395V522.688H145.875V529.602H133.98V522.688H136.461ZM136.461 527.609H143.395V526.145H136.461V527.609ZM163.648 512.023V529.797H161.285V520.871H159.566V528.938H157.281V512.316H159.566V518.879H161.285V512.023H163.648ZM155.406 514.074V516.086H151.285V523.664C153.004 523.654 154.527 523.566 156.246 523.254L156.422 525.285C154.254 525.695 152.359 525.754 150.016 525.773H148.785V514.074H155.406ZM176.109 513.605V515.578H165.562V513.605H169.605V511.926H172.086V513.605H176.109ZM170.836 516.145C173.414 516.145 175.211 517.473 175.211 519.426C175.211 521.379 173.414 522.707 170.836 522.707C168.258 522.707 166.422 521.379 166.422 519.426C166.422 517.473 168.258 516.145 170.836 516.145ZM170.836 518.02C169.645 518.02 168.844 518.508 168.863 519.426C168.844 520.324 169.645 520.793 170.836 520.793C172.027 520.793 172.848 520.324 172.848 519.426C172.848 518.508 172.027 518.02 170.836 518.02ZM179.664 512.023V516.633H182.066V518.664H179.664V523.176H177.164V512.023H179.664ZM179.664 523.918V529.797H177.164V525.91H167.691V523.918H179.664ZM197.594 513.566V515.305C197.574 517.473 197.574 519.914 196.93 523.488L194.488 523.273C195.074 520.021 195.094 517.6 195.094 515.539H184.449V513.566H197.594ZM199.059 525.598V527.629H182.848V525.598H186.305V520.012H188.785V525.598H190.738V520.012H193.199V525.598H199.059ZM218.766 512.023V518.84H221.285V520.891H218.766V529.758H216.266V512.023H218.766ZM214.02 513.84C214 519.152 211.93 523.762 205.953 526.691L204.547 524.777C208.756 522.668 211.012 519.836 211.48 515.871H205.562V513.84H214.02ZM232.262 513.449V515.48H228.707C228.824 517.287 230.113 519.025 232.77 519.777L231.598 521.73C229.605 521.154 228.219 519.992 227.438 518.488C226.656 520.139 225.23 521.428 223.16 522.043L221.91 520.109C224.654 519.299 225.973 517.443 226.129 515.48H222.555V513.449H232.262ZM228.668 521.301V524.27C230.045 524.201 231.422 524.094 232.711 523.918L232.887 525.715C229.137 526.418 225.133 526.398 222.145 526.418L221.812 524.387C223.111 524.387 224.605 524.387 226.168 524.348V521.301H228.668ZM238.57 519.035V521.125H236.148V529.797H233.648V512.023H236.148V519.035H238.57ZM247.203 513.137C247.203 517.727 245.309 520.949 240.406 522.961L239.215 521.164C241.266 520.373 242.652 519.387 243.531 518.195L239.703 518.625L239.41 516.652L244.449 516.398C244.566 515.998 244.654 515.588 244.723 515.148H240.152V513.137H247.203ZM254.586 512.043V522.453H252.223V518.195H250.621V522.297H248.277V512.355H250.621V516.164H252.223V512.043H254.586ZM254.586 523.098V529.602H242.457V523.098H254.586ZM244.918 525.09V527.609H252.145V525.09H244.918ZM266.93 513.586V515.598H265.191V523.449C265.934 523.41 266.656 523.342 267.359 523.254L267.516 525.051C263.902 525.676 259.801 525.754 256.754 525.754L256.52 523.703L258.531 523.684V515.598H257.008V513.586H266.93ZM271.598 512.023V529.797H269.137V520.48H266.402V518.488H269.137V512.023H271.598ZM260.953 523.645L262.789 523.586V515.598H260.953V523.645ZM283.238 514.367C283.238 516.965 285.543 519.758 289.566 520.441L288.473 522.512C285.377 521.896 283.072 520.158 281.93 517.863C280.748 520.139 278.443 521.887 275.367 522.512L274.293 520.441C278.238 519.738 280.562 516.945 280.582 514.367V513.078H283.238V514.367ZM290.152 525.559V527.609H273.883V525.559H290.152ZM310.777 512.023V529.836H308.316V520.305H305.016V525.617H296.441V513.391H298.922V517.707H302.574V513.391H305.016V518.293H308.316V512.023H310.777ZM298.922 523.625H302.574V519.66H298.922V523.625ZM322.418 514.367C322.418 516.965 324.723 519.758 328.746 520.441L327.652 522.512C324.557 521.896 322.252 520.158 321.109 517.863C319.928 520.139 317.623 521.887 314.547 522.512L313.473 520.441C317.418 519.738 319.742 516.945 319.762 514.367V513.078H322.418V514.367ZM329.332 525.559V527.609H313.062V525.559H329.332ZM339.742 512.883C339.742 514.758 341.812 516.828 345.738 517.277L344.84 519.23C341.812 518.83 339.605 517.531 338.473 515.773C337.32 517.531 335.104 518.82 332.086 519.23L331.148 517.277C335.094 516.828 337.164 514.758 337.184 512.883V512.297H339.742V512.883ZM346.559 520.207V522.16H330.348V520.207H346.559ZM338.434 523.371C342.281 523.371 344.605 524.504 344.625 526.594C344.605 528.645 342.281 529.816 338.434 529.816C334.527 529.816 332.203 528.645 332.203 526.594C332.203 524.504 334.527 523.371 338.434 523.371ZM338.434 525.246C335.973 525.246 334.723 525.676 334.742 526.594C334.723 527.512 335.973 527.922 338.434 527.922C340.836 527.922 342.105 527.512 342.125 526.594C342.105 525.676 340.836 525.246 338.434 525.246ZM361.734 512.023V516.203H364.137V518.234H361.734V522.336H359.234V512.023H361.734ZM356.773 513.195C356.793 517.941 353.805 521.262 348.512 522.727L347.516 520.715C351.432 519.67 353.678 517.658 354.059 515.188H348.355V513.195H356.773ZM355.934 522.551C359.547 522.551 361.93 523.957 361.93 526.184C361.93 528.43 359.547 529.816 355.934 529.816C352.32 529.816 349.898 528.43 349.918 526.184C349.898 523.957 352.32 522.551 355.934 522.551ZM355.934 524.484C353.688 524.484 352.359 525.09 352.379 526.184C352.359 527.258 353.688 527.883 355.934 527.863C358.141 527.883 359.469 527.258 359.469 526.184C359.469 525.09 358.141 524.484 355.934 524.484ZM375.016 513.215V515.207H371.48C371.5 517.277 372.74 519.279 375.582 520.109L374.391 522.062C372.428 521.467 371.07 520.275 370.289 518.742C369.498 520.539 368.053 521.965 365.914 522.668L364.645 520.695C367.594 519.768 368.922 517.463 368.961 515.207H365.328V513.215H375.016ZM379.02 512.023V516.145H381.422V518.176H379.02V522.57H376.52V512.023H379.02ZM373.199 522.922C376.891 522.902 379.195 524.172 379.195 526.34C379.195 528.508 376.891 529.797 373.199 529.797C369.43 529.797 367.105 528.508 367.105 526.34C367.105 524.172 369.43 522.902 373.199 522.922ZM373.199 524.855C370.855 524.855 369.586 525.344 369.605 526.34C369.586 527.355 370.855 527.863 373.199 527.863C375.504 527.863 376.734 527.355 376.734 526.34C376.734 525.344 375.504 524.855 373.199 524.855Z" fill="black"/>
<path d="M69.8594 546.023V563.797H67.457V554.754H65.8359V563.016H63.5117V546.492H65.8359V552.762H67.457V546.023H69.8594ZM62.2617 548.211C62.2422 553.172 60.7578 557.234 55.7578 560.145L54.3125 558.426C57.9355 556.297 59.4883 553.689 59.8398 550.203H55.2109V548.211H62.2617ZM88.2188 548.23V550.262H85.9141V552.098H88.2188V554.148H85.9141V556.414H83.4141V546.023H85.9141V548.23H88.2188ZM76.8125 547C79.5664 546.98 81.6562 548.777 81.6562 551.297C81.6562 553.816 79.5664 555.594 76.8125 555.594C74.0391 555.594 71.9297 553.816 71.9297 551.297C71.9297 548.777 74.0391 546.98 76.8125 547ZM76.8125 549.09C75.4062 549.07 74.3711 549.93 74.3906 551.297C74.3711 552.684 75.4062 553.504 76.8125 553.504C78.1797 553.504 79.2148 552.684 79.2344 551.297C79.2148 549.93 78.1797 549.07 76.8125 549.09ZM80.0938 556.766C83.7461 556.766 86.0898 558.094 86.0898 560.301C86.0898 562.488 83.7461 563.797 80.0938 563.797C76.3633 563.797 74 562.488 74 560.301C74 558.094 76.3633 556.766 80.0938 556.766ZM80.0938 558.738C77.75 558.738 76.4805 559.266 76.5 560.301C76.4805 561.336 77.75 561.824 80.0938 561.824C82.3984 561.824 83.6289 561.336 83.6289 560.301C83.6289 559.266 82.3984 558.738 80.0938 558.738ZM96.0117 550.047C96.0117 553.309 97.4961 556.59 100.504 557.859L99.0391 559.852C97.0078 558.934 95.6016 557.166 94.8008 554.969C93.9902 557.361 92.5352 559.295 90.3672 560.281L88.8633 558.211C91.9688 556.902 93.4727 553.504 93.4922 550.047V547.391H96.0117V550.047ZM103.98 546.023V563.836H101.461V546.023H103.98ZM112.145 547.078C114.957 547.078 117.066 548.875 117.066 551.434C117.066 553.602 115.553 555.223 113.375 555.672V558.055C114.879 557.977 116.393 557.84 117.828 557.645L118.023 559.441C114.078 560.184 109.859 560.223 106.754 560.223L106.461 558.211C107.77 558.211 109.293 558.201 110.895 558.152V555.652C108.727 555.213 107.203 553.592 107.203 551.434C107.203 548.875 109.332 547.078 112.145 547.078ZM112.145 549.207C110.738 549.207 109.664 550.008 109.684 551.434C109.664 552.82 110.738 553.66 112.145 553.66C113.57 553.66 114.625 552.82 114.645 551.434C114.625 550.008 113.551 549.207 112.145 549.207ZM121.324 546.023V563.836H118.844V546.023H121.324ZM138.668 546.023V563.836H136.207V554.305H132.906V559.617H124.332V547.391H126.812V551.707H130.465V547.391H132.906V552.293H136.207V546.023H138.668ZM126.812 557.625H130.465V553.66H126.812V557.625ZM150.309 548.367C150.309 550.965 152.613 553.758 156.637 554.441L155.543 556.512C152.447 555.896 150.143 554.158 149 551.863C147.818 554.139 145.514 555.887 142.438 556.512L141.363 554.441C145.309 553.738 147.633 550.945 147.652 548.367V547.078H150.309V548.367ZM157.223 559.559V561.609H140.953V559.559H157.223ZM167.633 546.883C167.633 548.758 169.703 550.828 173.629 551.277L172.73 553.23C169.703 552.83 167.496 551.531 166.363 549.773C165.211 551.531 162.994 552.82 159.977 553.23L159.039 551.277C162.984 550.828 165.055 548.758 165.074 546.883V546.297H167.633V546.883ZM174.449 554.207V556.16H158.238V554.207H174.449ZM166.324 557.371C170.172 557.371 172.496 558.504 172.516 560.594C172.496 562.645 170.172 563.816 166.324 563.816C162.418 563.816 160.094 562.645 160.094 560.594C160.094 558.504 162.418 557.371 166.324 557.371ZM166.324 559.246C163.863 559.246 162.613 559.676 162.633 560.594C162.613 561.512 163.863 561.922 166.324 561.922C168.727 561.922 169.996 561.512 170.016 560.594C169.996 559.676 168.727 559.246 166.324 559.246ZM189.625 546.023V550.203H192.027V552.234H189.625V556.336H187.125V546.023H189.625ZM184.664 547.195C184.684 551.941 181.695 555.262 176.402 556.727L175.406 554.715C179.322 553.67 181.568 551.658 181.949 549.188H176.246V547.195H184.664ZM183.824 556.551C187.438 556.551 189.82 557.957 189.82 560.184C189.82 562.43 187.438 563.816 183.824 563.816C180.211 563.816 177.789 562.43 177.809 560.184C177.789 557.957 180.211 556.551 183.824 556.551ZM183.824 558.484C181.578 558.484 180.25 559.09 180.27 560.184C180.25 561.258 181.578 561.883 183.824 561.863C186.031 561.883 187.359 561.258 187.359 560.184C187.359 559.09 186.031 558.484 183.824 558.484ZM202.906 547.215V549.207H199.371C199.391 551.277 200.631 553.279 203.473 554.109L202.281 556.062C200.318 555.467 198.961 554.275 198.18 552.742C197.389 554.539 195.943 555.965 193.805 556.668L192.535 554.695C195.484 553.768 196.812 551.463 196.852 549.207H193.219V547.215H202.906ZM206.91 546.023V550.145H209.312V552.176H206.91V556.57H204.41V546.023H206.91ZM201.09 556.922C204.781 556.902 207.086 558.172 207.086 560.34C207.086 562.508 204.781 563.797 201.09 563.797C197.32 563.797 194.996 562.508 194.996 560.34C194.996 558.172 197.32 556.902 201.09 556.922ZM201.09 558.855C198.746 558.855 197.477 559.344 197.496 560.34C197.477 561.355 198.746 561.863 201.09 561.863C203.395 561.863 204.625 561.355 204.625 560.34C204.625 559.344 203.395 558.855 201.09 558.855ZM69.5078 573.043V583.277H67.0273V581.539H63.0234V579.547H67.0273V577.848H63.1992C62.0957 580.66 59.5762 582.594 55.6602 583.668L54.6836 581.695C58.7754 580.621 60.7773 578.668 61.1289 576.227H55.6406V574.234H63.8438C63.8438 574.811 63.8047 575.367 63.7266 575.895H67.0273V573.043H69.5078ZM63.5898 583.492C67.2031 583.492 69.625 584.879 69.6445 587.086C69.625 589.312 67.2031 590.719 63.5898 590.719C59.9375 590.719 57.4961 589.312 57.5156 587.086C57.4961 584.879 59.9375 583.492 63.5898 583.492ZM63.5898 585.445C61.3438 585.426 59.9961 585.992 59.9961 587.086C59.9961 588.18 61.3438 588.746 63.5898 588.746C65.7969 588.746 67.1445 588.18 67.1445 587.086C67.1445 585.992 65.7969 585.426 63.5898 585.445ZM78.2969 575.816C78.2969 577.965 79.5469 580.035 82.3594 580.914L81.0312 582.848C79.1465 582.223 77.8281 581.012 77.0664 579.449C76.2949 581.246 74.918 582.652 72.8867 583.336L71.5391 581.383C74.5078 580.387 75.7773 578.023 75.7969 575.582V573.961H78.2969V575.816ZM85.9141 573.023V577.184H88.3164V579.254H85.9141V583.57H83.4141V573.023H85.9141ZM80.0938 583.922C83.7656 583.922 86.0898 585.191 86.0898 587.359C86.0898 589.547 83.7656 590.797 80.0938 590.797C76.3438 590.797 74 589.547 74 587.359C74 585.191 76.3438 583.922 80.0938 583.922ZM80.0938 585.875C77.75 585.875 76.4805 586.383 76.5 587.359C76.4805 588.375 77.75 588.844 80.0938 588.844C82.3984 588.844 83.6289 588.375 83.6289 587.359C83.6289 586.383 82.3984 585.875 80.0938 585.875ZM103.199 573.043V576.793H105.602V578.824H103.199V583.062H100.699V573.043H103.199ZM103.199 583.863V590.582H91.5586V583.863H103.199ZM94 585.797V588.629H100.758V585.797H94ZM92.3203 573.883V580.055C94.4688 580.016 96.7832 579.811 99.2539 579.332L99.5469 581.363C96.6172 581.949 93.8633 582.105 91.3438 582.105H89.8203V573.883H92.3203ZM120.875 580.973V582.945H115.719V586.734H122.652V588.766H106.383V586.734H113.238V582.945H108.297V574.273H120.738V576.266H110.797V580.973H120.875ZM135.211 576.539C135.211 578.668 136.52 580.836 139.449 581.715L138.18 583.668C136.188 583.043 134.781 581.764 133.98 580.152C133.17 581.9 131.725 583.307 129.645 584L128.355 582.047C131.305 581.09 132.672 578.785 132.672 576.539V576.285H129.02V574.293H138.785V576.285H135.211V576.539ZM143.16 573.043V585.895H140.66V573.043H143.16ZM143.629 588.492V590.484H131.246V584.723H133.766V588.492H143.629ZM161.773 582.828V584.82H154.859V590.797H152.398V584.82H145.562V582.828H161.773ZM160.328 573.961V575.914H155.152C155.396 577.652 157.359 579.4 161.012 579.84L160.113 581.793C156.988 581.373 154.752 580.035 153.688 578.199C152.594 580.035 150.377 581.373 147.281 581.793L146.363 579.84C149.957 579.4 151.939 577.652 152.223 575.914H147.027V573.961H160.328ZM169.762 577.047C169.762 580.309 171.246 583.59 174.254 584.859L172.789 586.852C170.758 585.934 169.352 584.166 168.551 581.969C167.74 584.361 166.285 586.295 164.117 587.281L162.613 585.211C165.719 583.902 167.223 580.504 167.242 577.047V574.391H169.762V577.047ZM177.73 573.023V590.836H175.211V573.023H177.73ZM198.766 573.023V579.84H201.285V581.891H198.766V590.758H196.266V573.023H198.766ZM194.02 574.84C194 580.152 191.93 584.762 185.953 587.691L184.547 585.777C188.756 583.668 191.012 580.836 191.48 576.871H185.562V574.84H194.02ZM212.75 574.566V576.559H209.117C209.234 578.336 210.592 580.133 213.395 580.855L212.203 582.77C210.123 582.223 208.668 581.021 207.867 579.488C207.037 581.119 205.533 582.398 203.355 582.984L202.184 581.07C204.996 580.328 206.373 578.482 206.539 576.559H202.906V574.566H212.75ZM209.098 582.164V585.191C210.572 585.104 212.066 584.957 213.473 584.742L213.668 586.598C209.723 587.34 205.504 587.379 202.398 587.379L202.105 585.367C203.414 585.367 204.957 585.357 206.578 585.309V582.164H209.098ZM216.969 573.023V590.836H214.488V573.023H216.969ZM235.562 581.422V583.375H219.312V581.422H226.227V579.898H221.285V573.805H233.609V575.738H223.766V577.945H233.707V579.898H228.668V581.422H235.562ZM227.398 584.273C231.246 584.273 233.57 585.445 233.59 587.555C233.57 589.625 231.246 590.816 227.398 590.816C223.512 590.816 221.168 589.625 221.168 587.555C221.168 585.445 223.512 584.273 227.398 584.273ZM227.398 586.168C224.938 586.168 223.688 586.637 223.707 587.555C223.688 588.492 224.938 588.922 227.398 588.922C229.801 588.922 231.07 588.492 231.09 587.555C231.07 586.637 229.801 586.168 227.398 586.168ZM247.887 574.859V589H244.938V577.652H244.859L241.617 579.684V577.086L245.113 574.859H247.887ZM256.402 589.195C253.297 589.195 251.07 587.477 251.012 585.016H253.98C254.039 586.07 255.055 586.773 256.422 586.773C257.828 586.773 258.844 585.973 258.824 584.84C258.844 583.688 257.809 582.867 256.148 582.867H254.84V580.699H256.148C257.535 580.699 258.512 579.938 258.512 578.824C258.512 577.75 257.691 577.008 256.441 577.008C255.191 577.008 254.156 577.711 254.117 578.785H251.305C251.344 576.344 253.551 574.664 256.441 574.664C259.391 574.664 261.363 576.402 261.344 578.648C261.363 580.23 260.25 581.363 258.668 581.637V581.754C260.738 582.008 261.891 583.277 261.871 585.035C261.891 587.457 259.586 589.195 256.402 589.195ZM269.098 574.664C272.027 574.684 274.801 576.422 274.801 581.559C274.82 586.363 272.535 589.195 268.98 589.195C266.129 589.195 264.195 587.418 263.902 585.016H266.793C267.027 586.051 267.848 586.676 268.98 586.676C270.914 586.676 271.93 584.957 271.93 582.125H271.812C271.148 583.375 269.762 584.117 268.18 584.117C265.641 584.117 263.766 582.203 263.746 579.566C263.746 576.715 265.895 574.645 269.098 574.664ZM269.117 576.969C267.672 576.969 266.598 578.082 266.617 579.488C266.617 580.875 267.652 581.969 269.098 581.969C270.523 581.969 271.637 580.836 271.637 579.469C271.617 578.121 270.562 576.969 269.117 576.969ZM283.395 580.777V583.082H276.949V580.777H283.395ZM291.871 574.859V589H288.922V577.652H288.844L285.602 579.684V577.086L289.098 574.859H291.871ZM295.699 589L301.656 577.359V577.262H294.723V574.859H304.703V577.301L298.746 589H295.699Z" fill="#A370E4"/>
<path d="M810.594 547.898V549.852H807C807.02 551.678 808.309 553.475 811.16 554.227L810.027 556.18C808.016 555.652 806.609 554.52 805.809 553.094C805.027 554.725 803.602 556.014 801.512 556.629L800.32 554.676C803.191 553.885 804.5 551.873 804.52 549.852H800.945V547.898H804.52V545.945H807.039V547.898H810.594ZM814.559 546.023V550.242H816.961V552.254H814.559V556.746H812.059V546.023H814.559ZM808.738 557.078C812.449 557.078 814.734 558.309 814.734 560.457C814.734 562.566 812.449 563.777 808.738 563.777C804.949 563.777 802.645 562.566 802.645 560.457C802.645 558.309 804.949 557.078 808.738 557.078ZM808.738 558.992C806.375 558.992 805.125 559.441 805.145 560.457C805.125 561.414 806.375 561.902 808.738 561.902C811.043 561.902 812.273 561.414 812.273 560.457C812.273 559.441 811.043 558.992 808.738 558.992ZM832.801 546.043V559.461H830.301V558.055H826.902V556.355H830.301V546.043H832.801ZM833.191 561.492V563.484H819.949V558.172H822.43V555.809C820.838 555.877 819.324 555.887 817.977 555.887L817.684 553.914C820.945 553.895 825.34 553.855 829.09 553.387L829.227 555.164C827.82 555.398 826.365 555.564 824.93 555.672V559.051H822.43V561.492H833.191ZM823.465 546.648C826.043 546.629 827.898 547.938 827.898 549.832C827.898 551.727 826.043 552.957 823.465 552.957C820.828 552.957 818.992 551.727 818.992 549.832C818.992 547.938 820.809 546.629 823.465 546.648ZM823.465 548.465C822.195 548.465 821.336 548.953 821.355 549.832C821.336 550.691 822.195 551.16 823.465 551.16C824.656 551.16 825.516 550.691 825.535 549.832C825.516 548.953 824.656 548.465 823.465 548.465ZM844.344 552.391V554.52H851.238V556.531H835.027V554.52H841.883V552.391H844.344ZM843.113 557.508C846.98 557.508 849.285 558.621 849.305 560.652C849.285 562.684 846.98 563.797 843.113 563.797C839.207 563.797 836.883 562.684 836.883 560.652C836.883 558.621 839.207 557.508 843.113 557.508ZM843.113 559.402C840.633 559.402 839.402 559.812 839.422 560.652C839.402 561.531 840.633 561.941 843.113 561.941C845.535 561.941 846.785 561.531 846.805 560.652C846.785 559.812 845.535 559.402 843.113 559.402ZM849.773 546.785V548.738H844.949C845.389 549.959 847.205 551.15 850.535 551.453L849.656 553.406C846.307 553.074 844.061 551.834 843.113 550.105C842.166 551.824 839.949 553.074 836.609 553.406L835.73 551.453C839.041 551.15 840.867 549.979 841.316 548.738H836.512V546.785H849.773ZM866.414 546.023V550.301H868.816V552.371H866.414V556.434H863.914V546.023H866.414ZM857.254 557.117V558.465H863.914V557.117H866.414V563.602H854.773V557.117H857.254ZM857.254 561.648H863.914V560.379H857.254V561.648ZM862.859 547.586V549.539H852.312V547.586H856.355V545.906H858.836V547.586H862.859ZM857.586 550.047C860.164 550.047 861.961 551.297 861.961 553.191C861.961 555.086 860.164 556.336 857.586 556.336C854.969 556.336 853.172 555.086 853.172 553.191C853.172 551.297 854.969 550.047 857.586 550.047ZM857.586 551.883C856.395 551.863 855.594 552.352 855.613 553.191C855.594 554.051 856.395 554.52 857.586 554.52C858.777 554.52 859.598 554.051 859.598 553.191C859.598 552.352 858.777 551.863 857.586 551.883ZM806.814 573.023V590.836H804.354V581.305H801.053V586.617H792.479V574.391H794.959V578.707H798.611V574.391H801.053V579.293H804.354V573.023H806.814ZM794.959 584.625H798.611V580.66H794.959V584.625ZM818.455 575.367C818.455 577.965 820.76 580.758 824.783 581.441L823.689 583.512C820.594 582.896 818.289 581.158 817.146 578.863C815.965 581.139 813.66 582.887 810.584 583.512L809.51 581.441C813.455 580.738 815.779 577.945 815.799 575.367V574.078H818.455V575.367ZM825.369 586.559V588.609H809.1V586.559H825.369ZM841.385 573.023V590.836H838.924V581.305H835.799V579.293H838.924V573.023H841.385ZM835.506 574.508V576.52H829.686V579.469H834.861V581.422H829.686V584.781C832.146 584.762 834.119 584.674 836.326 584.332L836.58 586.324C833.982 586.715 831.658 586.812 828.611 586.812H827.205V574.508H835.506ZM853.143 574.625V586.559H844.549V574.625H853.143ZM847.049 576.578V584.586H850.721V576.578H847.049ZM858.553 573.023V590.836H856.033V573.023H858.553ZM864.412 573.766V579.527C866.629 579.508 868.895 579.342 871.287 578.922L871.619 580.934C868.709 581.461 866.053 581.617 863.416 581.598H861.951V573.766H864.412ZM875.936 573.023V582.027H873.455V577.516H869.061V575.523H873.455V573.023H875.936ZM875.936 582.691V587.535H866.639V588.609H876.365V590.602H864.139V585.641H873.436V584.645H864.119V582.691H875.936Z" fill="#BFBFBF"/>
<circle cx="835" cy="615" r="10" fill="#BFBFBF"/>
<path d="M470.5 155.677C470.5 158.123 468.963 160.405 466.336 162.1C463.713 163.792 460.06 164.855 456 164.855C451.94 164.855 448.287 163.792 445.664 162.1C443.037 160.405 441.5 158.123 441.5 155.677C441.5 153.232 443.037 150.95 445.664 149.255C448.287 147.563 451.94 146.5 456 146.5C460.06 146.5 463.713 147.563 466.336 149.255C468.963 150.95 470.5 153.232 470.5 155.677Z" fill="white" stroke="black"/>
<path d="M452.171 150.395V161H449.974V150.395H452.171ZM461.048 154.086C460.873 152.914 459.964 152.196 458.734 152.196C457.079 152.196 455.995 153.471 455.995 155.697C455.995 157.982 457.093 159.198 458.719 159.198C459.935 159.198 460.829 158.524 461.048 157.382L463.275 157.396C463.026 159.359 461.385 161.146 458.69 161.146C455.848 161.146 453.753 159.154 453.753 155.697C453.753 152.24 455.892 150.248 458.69 150.248C461.136 150.248 462.982 151.654 463.275 154.086H461.048Z" fill="black"/>
<path d="M799.5 266.677C799.5 269.123 797.963 271.405 795.336 273.1C792.713 274.792 789.06 275.855 785 275.855C780.94 275.855 777.287 274.792 774.664 273.1C772.037 271.405 770.5 269.123 770.5 266.677C770.5 264.232 772.037 261.95 774.664 260.255C777.287 258.563 780.94 257.5 785 257.5C789.06 257.5 792.713 258.563 795.336 260.255C797.963 261.95 799.5 264.232 799.5 266.677Z" fill="white" stroke="black"/>
<path d="M781.171 261.395V272H778.974V261.395H781.171ZM790.048 265.086C789.873 263.914 788.964 263.196 787.734 263.196C786.079 263.196 784.995 264.471 784.995 266.697C784.995 268.982 786.093 270.198 787.719 270.198C788.935 270.198 789.829 269.524 790.048 268.382L792.275 268.396C792.026 270.359 790.385 272.146 787.69 272.146C784.848 272.146 782.753 270.154 782.753 266.697C782.753 263.24 784.892 261.248 787.69 261.248C790.136 261.248 791.982 262.654 792.275 265.086H790.048Z" fill="black"/>
<path d="M295.5 154.677C295.5 157.123 293.963 159.405 291.336 161.1C288.713 162.792 285.06 163.855 281 163.855C276.94 163.855 273.287 162.792 270.664 161.1C268.037 159.405 266.5 157.123 266.5 154.677C266.5 152.232 268.037 149.95 270.664 148.255C273.287 146.563 276.94 145.5 281 145.5C285.06 145.5 288.713 146.563 291.336 148.255C293.963 149.95 295.5 152.232 295.5 154.677Z" fill="white" stroke="black"/>
<path d="M277.171 149.395V160H274.974V149.395H277.171ZM286.048 153.086C285.873 151.914 284.964 151.196 283.734 151.196C282.079 151.196 280.995 152.471 280.995 154.697C280.995 156.982 282.093 158.198 283.719 158.198C284.935 158.198 285.829 157.524 286.048 156.382L288.275 156.396C288.026 158.359 286.385 160.146 283.69 160.146C280.848 160.146 278.753 158.154 278.753 154.697C278.753 151.24 280.892 149.248 283.69 149.248C286.136 149.248 287.982 150.654 288.275 153.086H286.048Z" fill="black"/>
<path d="M435.783 122.539C435.783 124.668 437.092 126.836 440.021 127.715L438.752 129.668C436.76 129.043 435.354 127.764 434.553 126.152C433.742 127.9 432.297 129.307 430.217 130L428.928 128.047C431.877 127.09 433.244 124.785 433.244 122.539V122.285H429.592V120.293H439.357V122.285H435.783V122.539ZM443.732 119.043V131.895H441.232V119.043H443.732ZM444.201 134.492V136.484H431.818V130.723H434.338V134.492H444.201ZM452.854 121.445C452.834 123.828 454.064 126.016 456.916 126.895L455.607 128.848C453.693 128.184 452.395 126.953 451.662 125.352C450.861 127.207 449.426 128.672 447.287 129.395L445.979 127.402C449.025 126.426 450.314 124.043 450.334 121.562V119.941H452.854V121.445ZM461.115 119.023V129.434H458.635V124.316H455.295V122.285H458.635V119.023H461.115ZM455.041 129.902C458.83 129.902 461.154 131.172 461.174 133.359C461.154 135.547 458.83 136.797 455.041 136.797C451.252 136.797 448.928 135.547 448.928 133.359C448.928 131.172 451.252 129.902 455.041 129.902ZM455.041 131.836C452.678 131.836 451.408 132.344 451.408 133.359C451.408 134.336 452.678 134.863 455.041 134.863C457.404 134.863 458.693 134.336 458.693 133.359C458.693 132.344 457.404 131.836 455.041 131.836ZM467.014 120.859V135H464.084V120.859H467.014ZM478.85 125.781C478.615 124.219 477.404 123.262 475.764 123.262C473.557 123.262 472.111 124.961 472.111 127.93C472.111 130.977 473.576 132.598 475.744 132.598C477.365 132.598 478.557 131.699 478.85 130.176L481.818 130.195C481.486 132.812 479.299 135.195 475.705 135.195C471.916 135.195 469.123 132.539 469.123 127.93C469.123 123.32 471.975 120.664 475.705 120.664C478.967 120.664 481.428 122.539 481.818 125.781H478.85Z" fill="#BFBFBF"/>
<path d="M817.957 266.422V268.375H801.707V266.422H808.621V264.898H803.68V258.805H816.004V260.738H806.16V262.945H816.102V264.898H811.062V266.422H817.957ZM809.793 269.273C813.641 269.273 815.965 270.445 815.984 272.555C815.965 274.625 813.641 275.816 809.793 275.816C805.906 275.816 803.562 274.625 803.562 272.555C803.562 270.445 805.906 269.273 809.793 269.273ZM809.793 271.168C807.332 271.168 806.082 271.637 806.102 272.555C806.082 273.492 807.332 273.922 809.793 273.922C812.195 273.922 813.465 273.492 813.484 272.555C813.465 271.637 812.195 271.168 809.793 271.168ZM828.094 259.703V271.461H819.559V259.703H828.094ZM822.02 261.656V269.488H825.613V261.656H822.02ZM833.016 258.023V264.723H835.633V266.793H833.016V275.797H830.516V258.023H833.016ZM842.84 261.07C842.82 263.336 844.109 265.543 847 266.48L845.691 268.434C843.748 267.779 842.41 266.5 841.648 264.879C840.848 266.666 839.432 268.062 837.371 268.766L835.984 266.793C839.012 265.855 840.32 263.473 840.34 261.051V259.117H842.84V261.07ZM850.379 258.023V263.16H852.781V265.27H850.379V271.051H847.879V258.023H850.379ZM851.043 273.492V275.484H838.836V269.762H841.375V273.492H851.043ZM857.156 259.859V274H854.227V259.859H857.156ZM868.992 264.781C868.758 263.219 867.547 262.262 865.906 262.262C863.699 262.262 862.254 263.961 862.254 266.93C862.254 269.977 863.719 271.598 865.887 271.598C867.508 271.598 868.699 270.699 868.992 269.176L871.961 269.195C871.629 271.812 869.441 274.195 865.848 274.195C862.059 274.195 859.266 271.539 859.266 266.93C859.266 262.32 862.117 259.664 865.848 259.664C869.109 259.664 871.57 261.539 871.961 264.781H868.992Z" fill="#BFBFBF"/>
<path d="M253.783 122.539C253.783 124.668 255.092 126.836 258.021 127.715L256.752 129.668C254.76 129.043 253.354 127.764 252.553 126.152C251.742 127.9 250.297 129.307 248.217 130L246.928 128.047C249.877 127.09 251.244 124.785 251.244 122.539V122.285H247.592V120.293H257.357V122.285H253.783V122.539ZM261.732 119.043V131.895H259.232V119.043H261.732ZM262.201 134.492V136.484H249.818V130.723H252.338V134.492H262.201ZM280.346 128.828V130.82H273.432V136.797H270.971V130.82H264.135V128.828H280.346ZM278.9 119.961V121.914H273.725C273.969 123.652 275.932 125.4 279.584 125.84L278.686 127.793C275.561 127.373 273.324 126.035 272.26 124.199C271.166 126.035 268.949 127.373 265.854 127.793L264.936 125.84C268.529 125.4 270.512 123.652 270.795 121.914H265.6V119.961H278.9ZM285.014 120.859V135H282.084V120.859H285.014ZM296.85 125.781C296.615 124.219 295.404 123.262 293.764 123.262C291.557 123.262 290.111 124.961 290.111 127.93C290.111 130.977 291.576 132.598 293.744 132.598C295.365 132.598 296.557 131.699 296.85 130.176L299.818 130.195C299.486 132.812 297.299 135.195 293.705 135.195C289.916 135.195 287.123 132.539 287.123 127.93C287.123 123.32 289.975 120.664 293.705 120.664C296.967 120.664 299.428 122.539 299.818 125.781H296.85Z" fill="#BFBFBF"/>
</g>
<defs>
<clipPath id="clip0_345_159">
<rect width="990" height="660" fill="white"/>
</clipPath>
</defs>
</svg>
