<svg width="990" height="660" viewBox="0 0 990 660" fill="none" xmlns="http://www.w3.org/2000/svg">
<g clip-path="url(#clip0_345_63)">
<rect width="990" height="660" fill="white"/>
<circle cx="773" cy="570" r="70" stroke="#FFA500" stroke-width="10"/>
<path d="M728.094 547.043V557.277H725.614V555.539H721.61V553.547H725.614V551.848H721.786C720.682 554.66 718.163 556.594 714.247 557.668L713.27 555.695C717.362 554.621 719.364 552.668 719.715 550.227H714.227V548.234H722.43C722.43 548.811 722.391 549.367 722.313 549.895H725.614V547.043H728.094ZM722.176 557.492C725.79 557.492 728.211 558.879 728.231 561.086C728.211 563.312 725.79 564.719 722.176 564.719C718.524 564.719 716.083 563.312 716.102 561.086C716.083 558.879 718.524 557.492 722.176 557.492ZM722.176 559.445C719.93 559.426 718.583 559.992 718.583 561.086C718.583 562.18 719.93 562.746 722.176 562.746C724.383 562.746 725.731 562.18 725.731 561.086C725.731 559.992 724.383 559.426 722.176 559.445ZM736.883 549.816C736.883 551.965 738.133 554.035 740.946 554.914L739.618 556.848C737.733 556.223 736.415 555.012 735.653 553.449C734.881 555.246 733.504 556.652 731.473 557.336L730.126 555.383C733.094 554.387 734.364 552.023 734.383 549.582V547.961H736.883V549.816ZM744.501 547.023V551.184H746.903V553.254H744.501V557.57H742.001V547.023H744.501ZM738.68 557.922C742.352 557.922 744.676 559.191 744.676 561.359C744.676 563.547 742.352 564.797 738.68 564.797C734.93 564.797 732.586 563.547 732.586 561.359C732.586 559.191 734.93 557.922 738.68 557.922ZM738.68 559.875C736.336 559.875 735.067 560.383 735.086 561.359C735.067 562.375 736.336 562.844 738.68 562.844C740.985 562.844 742.215 562.375 742.215 561.359C742.215 560.383 740.985 559.875 738.68 559.875ZM762.02 547.805V549.191C762.02 550.5 762.02 552.004 761.668 553.918H763.954V555.91H757.04V558.469H762.04V564.797H759.54V560.422H749.325V558.469H754.54V555.91H747.684V553.918H759.149C759.481 552.258 759.53 550.949 759.54 549.777H749.676V547.805H762.02ZM779.852 547.043V556.945H777.352V547.043H779.852ZM774.129 547.824V553.117H768.348V554.582C771.317 554.572 773.407 554.523 775.809 554.113L776.122 556.105C773.387 556.574 771.004 556.633 767.469 556.633H765.907V551.223H771.649V549.816H765.887V547.824H774.129ZM770.438 557.688V559.211H777.372V557.688H779.852V564.602H767.958V557.688H770.438ZM770.438 562.609H777.372V561.145H770.438V562.609ZM797.626 547.023V564.797H795.262V555.871H793.543V563.938H791.258V547.316H793.543V553.879H795.262V547.023H797.626ZM789.383 549.074V551.086H785.262V558.664C786.981 558.654 788.504 558.566 790.223 558.254L790.399 560.285C788.231 560.695 786.336 560.754 783.993 560.773H782.762V549.074H789.383ZM810.086 548.605V550.578H799.54V548.605H803.583V546.926H806.063V548.605H810.086ZM804.813 551.145C807.391 551.145 809.188 552.473 809.188 554.426C809.188 556.379 807.391 557.707 804.813 557.707C802.235 557.707 800.399 556.379 800.399 554.426C800.399 552.473 802.235 551.145 804.813 551.145ZM804.813 553.02C803.622 553.02 802.821 553.508 802.84 554.426C802.821 555.324 803.622 555.793 804.813 555.793C806.004 555.793 806.825 555.324 806.825 554.426C806.825 553.508 806.004 553.02 804.813 553.02ZM813.641 547.023V551.633H816.043V553.664H813.641V558.176H811.141V547.023H813.641ZM813.641 558.918V564.797H811.141V560.91H801.668V558.918H813.641ZM831.571 548.566V550.305C831.551 552.473 831.551 554.914 830.907 558.488L828.465 558.273C829.051 555.021 829.071 552.6 829.071 550.539H818.426V548.566H831.571ZM833.036 560.598V562.629H816.825V560.598H820.282V555.012H822.762V560.598H824.715V555.012H827.176V560.598H833.036ZM744.422 574.023V580.84H746.942V582.891H744.422V591.758H741.922V574.023H744.422ZM739.676 575.84C739.657 581.152 737.586 585.762 731.61 588.691L730.204 586.777C734.413 584.668 736.668 581.836 737.137 577.871H731.219V575.84H739.676ZM757.918 575.449V577.48H754.364C754.481 579.287 755.77 581.025 758.426 581.777L757.254 583.73C755.262 583.154 753.876 581.992 753.094 580.488C752.313 582.139 750.887 583.428 748.817 584.043L747.567 582.109C750.311 581.299 751.629 579.443 751.786 577.48H748.211V575.449H757.918ZM754.325 583.301V586.27C755.702 586.201 757.079 586.094 758.368 585.918L758.543 587.715C754.793 588.418 750.79 588.398 747.801 588.418L747.469 586.387C748.768 586.387 750.262 586.387 751.825 586.348V583.301H754.325ZM764.227 581.035V583.125H761.805V591.797H759.305V574.023H761.805V581.035H764.227ZM772.86 575.137C772.86 579.727 770.965 582.949 766.063 584.961L764.872 583.164C766.922 582.373 768.309 581.387 769.188 580.195L765.36 580.625L765.067 578.652L770.106 578.398C770.223 577.998 770.311 577.588 770.379 577.148H765.809V575.137H772.86ZM780.243 574.043V584.453H777.879V580.195H776.278V584.297H773.934V574.355H776.278V578.164H777.879V574.043H780.243ZM780.243 585.098V591.602H768.114V585.098H780.243ZM770.575 587.09V589.609H777.801V587.09H770.575ZM792.586 575.586V577.598H790.848V585.449C791.59 585.41 792.313 585.342 793.016 585.254L793.172 587.051C789.559 587.676 785.458 587.754 782.411 587.754L782.176 585.703L784.188 585.684V577.598H782.665V575.586H792.586ZM797.254 574.023V591.797H794.793V582.48H792.059V580.488H794.793V574.023H797.254ZM786.61 585.645L788.446 585.586V577.598H786.61V585.645ZM808.895 576.367C808.895 578.965 811.2 581.758 815.223 582.441L814.129 584.512C811.034 583.896 808.729 582.158 807.586 579.863C806.405 582.139 804.1 583.887 801.024 584.512L799.95 582.441C803.895 581.738 806.219 578.945 806.239 576.367V575.078H808.895V576.367ZM815.809 587.559V589.609H799.54V587.559H815.809Z" fill="black"/>
<circle cx="170" cy="99" r="70" stroke="#009130" stroke-width="10"/>
<path d="M125.094 76.043V86.2773H122.614V84.5391H118.61V82.5469H122.614V80.8477H118.786C117.682 83.6602 115.163 85.5938 111.247 86.668L110.27 84.6953C114.362 83.6211 116.364 81.668 116.715 79.2266H111.227V77.2344H119.43C119.43 77.8105 119.391 78.3672 119.313 78.8945H122.614V76.043H125.094ZM119.176 86.4922C122.79 86.4922 125.211 87.8789 125.231 90.0859C125.211 92.3125 122.79 93.7188 119.176 93.7188C115.524 93.7188 113.083 92.3125 113.102 90.0859C113.083 87.8789 115.524 86.4922 119.176 86.4922ZM119.176 88.4453C116.93 88.4258 115.583 88.9922 115.583 90.0859C115.583 91.1797 116.93 91.7461 119.176 91.7461C121.383 91.7461 122.731 91.1797 122.731 90.0859C122.731 88.9922 121.383 88.4258 119.176 88.4453ZM133.883 78.8164C133.883 80.9648 135.133 83.0352 137.946 83.9141L136.618 85.8477C134.733 85.2227 133.415 84.0117 132.653 82.4492C131.881 84.2461 130.504 85.6523 128.473 86.3359L127.126 84.3828C130.094 83.3867 131.364 81.0234 131.383 78.582V76.9609H133.883V78.8164ZM141.501 76.0234V80.1836H143.903V82.2539H141.501V86.5703H139.001V76.0234H141.501ZM135.68 86.9219C139.352 86.9219 141.676 88.1914 141.676 90.3594C141.676 92.5469 139.352 93.7969 135.68 93.7969C131.93 93.7969 129.586 92.5469 129.586 90.3594C129.586 88.1914 131.93 86.9219 135.68 86.9219ZM135.68 88.875C133.336 88.875 132.067 89.3828 132.086 90.3594C132.067 91.375 133.336 91.8438 135.68 91.8438C137.985 91.8438 139.215 91.375 139.215 90.3594C139.215 89.3828 137.985 88.875 135.68 88.875ZM159.02 76.8047V78.1914C159.02 79.5 159.02 81.0039 158.668 82.918H160.954V84.9102H154.04V87.4688H159.04V93.7969H156.54V89.4219H146.325V87.4688H151.54V84.9102H144.684V82.918H156.149C156.481 81.2578 156.53 79.9492 156.54 78.7773H146.676V76.8047H159.02ZM176.852 76.043V85.9453H174.352V76.043H176.852ZM171.129 76.8242V82.1172H165.348V83.582C168.317 83.5723 170.407 83.5234 172.809 83.1133L173.122 85.1055C170.387 85.5742 168.004 85.6328 164.469 85.6328H162.907V80.2227H168.649V78.8164H162.887V76.8242H171.129ZM167.438 86.6875V88.2109H174.372V86.6875H176.852V93.6016H164.958V86.6875H167.438ZM167.438 91.6094H174.372V90.1445H167.438V91.6094ZM194.626 76.0234V93.7969H192.262V84.8711H190.543V92.9375H188.258V76.3164H190.543V82.8789H192.262V76.0234H194.626ZM186.383 78.0742V80.0859H182.262V87.6641C183.981 87.6543 185.504 87.5664 187.223 87.2539L187.399 89.2852C185.231 89.6953 183.336 89.7539 180.993 89.7734H179.762V78.0742H186.383ZM207.086 77.6055V79.5781H196.54V77.6055H200.583V75.9258H203.063V77.6055H207.086ZM201.813 80.1445C204.391 80.1445 206.188 81.4727 206.188 83.4258C206.188 85.3789 204.391 86.707 201.813 86.707C199.235 86.707 197.399 85.3789 197.399 83.4258C197.399 81.4727 199.235 80.1445 201.813 80.1445ZM201.813 82.0195C200.622 82.0195 199.821 82.5078 199.84 83.4258C199.821 84.3242 200.622 84.793 201.813 84.793C203.004 84.793 203.825 84.3242 203.825 83.4258C203.825 82.5078 203.004 82.0195 201.813 82.0195ZM210.641 76.0234V80.6328H213.043V82.6641H210.641V87.1758H208.141V76.0234H210.641ZM210.641 87.918V93.7969H208.141V89.9102H198.668V87.918H210.641ZM228.571 77.5664V79.3047C228.551 81.4727 228.551 83.9141 227.907 87.4883L225.465 87.2734C226.051 84.0215 226.071 81.5996 226.071 79.5391H215.426V77.5664H228.571ZM230.036 89.5977V91.6289H213.825V89.5977H217.282V84.0117H219.762V89.5977H221.715V84.0117H224.176V89.5977H230.036ZM142.282 103.023V112.34H139.782V103.023H142.282ZM142.282 113.004V117.633H132.829V118.766H142.77V120.68H130.387V115.914H139.801V114.898H130.348V113.004H142.282ZM137.946 104.605V106.559H134.352C134.567 108.111 135.944 109.625 138.61 110.191L137.516 112.086C135.377 111.617 133.903 110.514 133.083 109.078C132.282 110.611 130.807 111.793 128.649 112.32L127.555 110.367C130.172 109.742 131.54 108.219 131.774 106.559H128.161V104.605H131.793V102.945H134.333V104.605H137.946ZM158.786 103.023V107.008H161.188V109H158.786V113.141H156.286V103.023H158.786ZM158.786 113.883V120.602H147.165V113.883H158.786ZM149.626 115.855V118.609H156.325V115.855H149.626ZM149.684 104C152.438 103.98 154.528 105.777 154.528 108.297C154.528 110.816 152.438 112.594 149.684 112.594C146.911 112.594 144.801 110.816 144.801 108.297C144.801 105.777 146.911 103.98 149.684 104ZM149.684 106.09C148.278 106.07 147.243 106.93 147.262 108.297C147.243 109.684 148.278 110.504 149.684 110.504C151.051 110.504 152.086 109.684 152.106 108.297C152.086 106.93 151.051 106.07 149.684 106.09ZM169.86 104.137C169.86 108.727 167.965 111.949 163.063 113.961L161.872 112.164C163.922 111.373 165.309 110.387 166.188 109.195L162.36 109.625L162.067 107.652L167.106 107.398C167.223 106.998 167.311 106.588 167.379 106.148H162.809V104.137H169.86ZM177.243 103.043V113.453H174.879V109.195H173.278V113.297H170.934V103.355H173.278V107.164H174.879V103.043H177.243ZM177.243 114.098V120.602H165.114V114.098H177.243ZM167.575 116.09V118.609H174.801V116.09H167.575ZM189.586 104.586V106.598H187.848V114.449C188.59 114.41 189.313 114.342 190.016 114.254L190.172 116.051C186.559 116.676 182.458 116.754 179.411 116.754L179.176 114.703L181.188 114.684V106.598H179.665V104.586H189.586ZM194.254 103.023V120.797H191.793V111.48H189.059V109.488H191.793V103.023H194.254ZM183.61 114.645L185.446 114.586V106.598H183.61V114.645ZM205.895 105.367C205.895 107.965 208.2 110.758 212.223 111.441L211.129 113.512C208.034 112.896 205.729 111.158 204.586 108.863C203.405 111.139 201.1 112.887 198.024 113.512L196.95 111.441C200.895 110.738 203.219 107.945 203.239 105.367V104.078H205.895V105.367ZM212.809 116.559V118.609H196.54V116.559H212.809Z" fill="black"/>
<line x1="-28.6246" y1="25.7698" x2="223.375" y2="284.77" stroke="#D1D1D1" stroke-width="15"/>
<line x1="217.347" y1="282.311" x2="558.347" y2="252.528" stroke="#D1D1D1" stroke-width="15"/>
<line x1="632.464" y1="316.644" x2="1001.46" y2="119.386" stroke="#D1D1D1" stroke-width="15"/>
<line x1="743.464" y1="415.644" x2="1112.46" y2="218.386" stroke="#D1D1D1" stroke-width="15"/>
<line x1="552.933" y1="250.351" x2="994.933" y2="636.351" stroke="#D1D1D1" stroke-width="15"/>
<circle cx="646" cy="280" r="10" fill="#BFBFBF"/>
<circle cx="708" cy="443" r="10" fill="#BFBFBF"/>
<path d="M627.23 240.043V250.297H624.867V240.043H627.23ZM623.637 240.336V250.102H621.332V246.254H620.141C619.73 248.197 618.158 249.477 616.117 249.477C613.754 249.477 612.035 247.758 612.035 245.277C612.035 242.797 613.754 241.078 616.117 241.059C618.129 241.078 619.691 242.318 620.121 244.223H621.332V240.336H623.637ZM627.23 251V257.602H615.102V251H627.23ZM617.582 252.934V255.609H624.77V252.934H617.582ZM616.117 243.09C615.023 243.07 614.262 243.891 614.262 245.277C614.262 246.645 615.023 247.445 616.117 247.445C617.191 247.445 617.992 246.645 618.012 245.277C617.992 243.891 617.191 243.07 616.117 243.09ZM644.125 240.023V257.836H641.605V240.023H644.125ZM632.621 241.43V245.766H636.449V241.43H638.91V253.676H630.121V241.43H632.621ZM632.621 251.664H636.449V247.699H632.621V251.664ZM661.781 240.023V257.797H659.262V240.023H661.781ZM651.098 244.516C651.098 246.527 651.303 248.881 652.426 250.707C653.51 248.9 653.695 246.566 653.715 244.516V241.43H656.098V244.516C656.078 247.328 656.449 250.414 658.715 252.152L657.191 253.93C656.01 253.031 655.287 251.664 654.867 250.082C654.418 251.713 653.666 253.148 652.426 254.066C651.186 253.158 650.424 251.742 649.984 250.121C649.555 251.635 648.871 252.943 647.758 253.832L646.137 252.152C648.422 250.375 648.773 247.309 648.793 244.516V241.43H651.098V244.516ZM666.996 241.723V251.41C668.627 251.381 670.131 251.264 671.801 250.902L672.133 252.992C669.945 253.461 668.031 253.539 665.746 253.539H664.496V241.723H666.996ZM679.223 240.023V257.797H676.879V240.023H679.223ZM675.414 240.355V257.016H673.051V247.66H669.496V245.648H673.051V240.355H675.414Z" fill="#BFBFBF"/>
<path d="M646.076 463.023V480.797H643.674V471.754H642.053V480.016H639.729V463.492H642.053V469.762H643.674V463.023H646.076ZM638.479 465.211C638.459 470.172 636.975 474.234 631.975 477.145L630.529 475.426C634.152 473.297 635.705 470.689 636.057 467.203H631.428V465.211H638.479ZM664.436 465.23V467.262H662.131V469.098H664.436V471.148H662.131V473.414H659.631V463.023H662.131V465.23H664.436ZM653.029 464C655.783 463.98 657.873 465.777 657.873 468.297C657.873 470.816 655.783 472.594 653.029 472.594C650.256 472.594 648.146 470.816 648.146 468.297C648.146 465.777 650.256 463.98 653.029 464ZM653.029 466.09C651.623 466.07 650.588 466.93 650.607 468.297C650.588 469.684 651.623 470.504 653.029 470.504C654.396 470.504 655.432 469.684 655.451 468.297C655.432 466.93 654.396 466.07 653.029 466.09ZM656.311 473.766C659.963 473.766 662.307 475.094 662.307 477.301C662.307 479.488 659.963 480.797 656.311 480.797C652.58 480.797 650.217 479.488 650.217 477.301C650.217 475.094 652.58 473.766 656.311 473.766ZM656.311 475.738C653.967 475.738 652.697 476.266 652.717 477.301C652.697 478.336 653.967 478.824 656.311 478.824C658.615 478.824 659.846 478.336 659.846 477.301C659.846 476.266 658.615 475.738 656.311 475.738ZM672.229 467.047C672.229 470.309 673.713 473.59 676.721 474.859L675.256 476.852C673.225 475.934 671.818 474.166 671.018 471.969C670.207 474.361 668.752 476.295 666.584 477.281L665.08 475.211C668.186 473.902 669.689 470.504 669.709 467.047V464.391H672.229V467.047ZM680.197 463.023V480.836H677.678V463.023H680.197ZM688.361 464.078C691.174 464.078 693.283 465.875 693.283 468.434C693.283 470.602 691.77 472.223 689.592 472.672V475.055C691.096 474.977 692.609 474.84 694.045 474.645L694.24 476.441C690.295 477.184 686.076 477.223 682.971 477.223L682.678 475.211C683.986 475.211 685.51 475.201 687.111 475.152V472.652C684.943 472.213 683.42 470.592 683.42 468.434C683.42 465.875 685.549 464.078 688.361 464.078ZM688.361 466.207C686.955 466.207 685.881 467.008 685.9 468.434C685.881 469.82 686.955 470.66 688.361 470.66C689.787 470.66 690.842 469.82 690.861 468.434C690.842 467.008 689.768 466.207 688.361 466.207ZM697.541 463.023V480.836H695.061V463.023H697.541ZM714.885 463.023V480.836H712.424V471.305H709.123V476.617H700.549V464.391H703.029V468.707H706.682V464.391H709.123V469.293H712.424V463.023H714.885ZM703.029 474.625H706.682V470.66H703.029V474.625ZM726.525 465.367C726.525 467.965 728.83 470.758 732.854 471.441L731.76 473.512C728.664 472.896 726.359 471.158 725.217 468.863C724.035 471.139 721.73 472.887 718.654 473.512L717.58 471.441C721.525 470.738 723.85 467.945 723.869 465.367V464.078H726.525V465.367ZM733.439 476.559V478.609H717.17V476.559H733.439ZM749.455 463.023V480.836H746.994V471.305H743.869V469.293H746.994V463.023H749.455ZM743.576 464.508V466.52H737.756V469.469H742.932V471.422H737.756V474.781C740.217 474.762 742.189 474.674 744.396 474.332L744.65 476.324C742.053 476.715 739.729 476.812 736.682 476.812H735.275V464.508H743.576ZM761.213 464.625V476.559H752.619V464.625H761.213ZM755.119 466.578V474.586H758.791V466.578H755.119ZM766.623 463.023V480.836H764.104V463.023H766.623ZM772.482 463.766V469.527C774.699 469.508 776.965 469.342 779.357 468.922L779.689 470.934C776.779 471.461 774.123 471.617 771.486 471.598H770.021V463.766H772.482ZM784.006 463.023V472.027H781.525V467.516H777.131V465.523H781.525V463.023H784.006ZM784.006 472.691V477.535H774.709V478.609H784.436V480.602H772.209V475.641H781.506V474.645H772.189V472.691H784.006Z" fill="#BFBFBF"/>
<ellipse cx="427.366" cy="36.2743" rx="178.5" ry="129" transform="rotate(19.5408 427.366 36.2743)" fill="#78B5FA"/>
<ellipse cx="688.607" cy="36.0804" rx="336.533" ry="118" transform="rotate(-15 688.607 36.0804)" fill="#78B5FA"/>
<path d="M54 408.4H74V388.4H54V408.4ZM94.1172 391.043V401.277H91.6367V399.539H87.6328V397.547H91.6367V395.848H87.8086C86.7051 398.66 84.1855 400.594 80.2695 401.668L79.293 399.695C83.3848 398.621 85.3867 396.668 85.7383 394.227H80.25V392.234H88.4531C88.4531 392.811 88.4141 393.367 88.3359 393.895H91.6367V391.043H94.1172ZM88.1992 401.492C91.8125 401.492 94.2344 402.879 94.2539 405.086C94.2344 407.312 91.8125 408.719 88.1992 408.719C84.5469 408.719 82.1055 407.312 82.125 405.086C82.1055 402.879 84.5469 401.492 88.1992 401.492ZM88.1992 403.445C85.9531 403.426 84.6055 403.992 84.6055 405.086C84.6055 406.18 85.9531 406.746 88.1992 406.746C90.4062 406.746 91.7539 406.18 91.7539 405.086C91.7539 403.992 90.4062 403.426 88.1992 403.445ZM102.906 393.816C102.906 395.965 104.156 398.035 106.969 398.914L105.641 400.848C103.756 400.223 102.438 399.012 101.676 397.449C100.904 399.246 99.5273 400.652 97.4961 401.336L96.1484 399.383C99.1172 398.387 100.387 396.023 100.406 393.582V391.961H102.906V393.816ZM110.523 391.023V395.184H112.926V397.254H110.523V401.57H108.023V391.023H110.523ZM104.703 401.922C108.375 401.922 110.699 403.191 110.699 405.359C110.699 407.547 108.375 408.797 104.703 408.797C100.953 408.797 98.6094 407.547 98.6094 405.359C98.6094 403.191 100.953 401.922 104.703 401.922ZM104.703 403.875C102.359 403.875 101.09 404.383 101.109 405.359C101.09 406.375 102.359 406.844 104.703 406.844C107.008 406.844 108.238 406.375 108.238 405.359C108.238 404.383 107.008 403.875 104.703 403.875ZM128.043 391.805V393.191C128.043 394.5 128.043 396.004 127.691 397.918H129.977V399.91H123.062V402.469H128.062V408.797H125.562V404.422H115.348V402.469H120.562V399.91H113.707V397.918H125.172C125.504 396.258 125.553 394.949 125.562 393.777H115.699V391.805H128.043ZM145.875 391.043V400.945H143.375V391.043H145.875ZM140.152 391.824V397.117H134.371V398.582C137.34 398.572 139.43 398.523 141.832 398.113L142.145 400.105C139.41 400.574 137.027 400.633 133.492 400.633H131.93V395.223H137.672V393.816H131.91V391.824H140.152ZM136.461 401.688V403.211H143.395V401.688H145.875V408.602H133.98V401.688H136.461ZM136.461 406.609H143.395V405.145H136.461V406.609ZM163.648 391.023V408.797H161.285V399.871H159.566V407.938H157.281V391.316H159.566V397.879H161.285V391.023H163.648ZM155.406 393.074V395.086H151.285V402.664C153.004 402.654 154.527 402.566 156.246 402.254L156.422 404.285C154.254 404.695 152.359 404.754 150.016 404.773H148.785V393.074H155.406ZM176.109 392.605V394.578H165.562V392.605H169.605V390.926H172.086V392.605H176.109ZM170.836 395.145C173.414 395.145 175.211 396.473 175.211 398.426C175.211 400.379 173.414 401.707 170.836 401.707C168.258 401.707 166.422 400.379 166.422 398.426C166.422 396.473 168.258 395.145 170.836 395.145ZM170.836 397.02C169.645 397.02 168.844 397.508 168.863 398.426C168.844 399.324 169.645 399.793 170.836 399.793C172.027 399.793 172.848 399.324 172.848 398.426C172.848 397.508 172.027 397.02 170.836 397.02ZM179.664 391.023V395.633H182.066V397.664H179.664V402.176H177.164V391.023H179.664ZM179.664 402.918V408.797H177.164V404.91H167.691V402.918H179.664ZM197.594 392.566V394.305C197.574 396.473 197.574 398.914 196.93 402.488L194.488 402.273C195.074 399.021 195.094 396.6 195.094 394.539H184.449V392.566H197.594ZM199.059 404.598V406.629H182.848V404.598H186.305V399.012H188.785V404.598H190.738V399.012H193.199V404.598H199.059ZM219.625 391.023V400.34H217.125V391.023H219.625ZM219.625 401.004V405.633H210.172V406.766H220.113V408.68H207.73V403.914H217.145V402.898H207.691V401.004H219.625ZM215.289 392.605V394.559H211.695C211.91 396.111 213.287 397.625 215.953 398.191L214.859 400.086C212.721 399.617 211.246 398.514 210.426 397.078C209.625 398.611 208.15 399.793 205.992 400.32L204.898 398.367C207.516 397.742 208.883 396.219 209.117 394.559H205.504V392.605H209.137V390.945H211.676V392.605H215.289ZM236.129 391.023V395.008H238.531V397H236.129V401.141H233.629V391.023H236.129ZM236.129 401.883V408.602H224.508V401.883H236.129ZM226.969 403.855V406.609H233.668V403.855H226.969ZM227.027 392C229.781 391.98 231.871 393.777 231.871 396.297C231.871 398.816 229.781 400.594 227.027 400.594C224.254 400.594 222.145 398.816 222.145 396.297C222.145 393.777 224.254 391.98 227.027 392ZM227.027 394.09C225.621 394.07 224.586 394.93 224.605 396.297C224.586 397.684 225.621 398.504 227.027 398.504C228.395 398.504 229.43 397.684 229.449 396.297C229.43 394.93 228.395 394.07 227.027 394.09ZM247.203 392.137C247.203 396.727 245.309 399.949 240.406 401.961L239.215 400.164C241.266 399.373 242.652 398.387 243.531 397.195L239.703 397.625L239.41 395.652L244.449 395.398C244.566 394.998 244.654 394.588 244.723 394.148H240.152V392.137H247.203ZM254.586 391.043V401.453H252.223V397.195H250.621V401.297H248.277V391.355H250.621V395.164H252.223V391.043H254.586ZM254.586 402.098V408.602H242.457V402.098H254.586ZM244.918 404.09V406.609H252.145V404.09H244.918ZM266.93 392.586V394.598H265.191V402.449C265.934 402.41 266.656 402.342 267.359 402.254L267.516 404.051C263.902 404.676 259.801 404.754 256.754 404.754L256.52 402.703L258.531 402.684V394.598H257.008V392.586H266.93ZM271.598 391.023V408.797H269.137V399.48H266.402V397.488H269.137V391.023H271.598ZM260.953 402.645L262.789 402.586V394.598H260.953V402.645ZM283.238 393.367C283.238 395.965 285.543 398.758 289.566 399.441L288.473 401.512C285.377 400.896 283.072 399.158 281.93 396.863C280.748 399.139 278.443 400.887 275.367 401.512L274.293 399.441C278.238 398.738 280.562 395.945 280.582 393.367V392.078H283.238V393.367ZM290.152 404.559V406.609H273.883V404.559H290.152ZM310.777 391.023V408.836H308.316V399.305H305.016V404.617H296.441V392.391H298.922V396.707H302.574V392.391H305.016V397.293H308.316V391.023H310.777ZM298.922 402.625H302.574V398.66H298.922V402.625ZM322.418 393.367C322.418 395.965 324.723 398.758 328.746 399.441L327.652 401.512C324.557 400.896 322.252 399.158 321.109 396.863C319.928 399.139 317.623 400.887 314.547 401.512L313.473 399.441C317.418 398.738 319.742 395.945 319.762 393.367V392.078H322.418V393.367ZM329.332 404.559V406.609H313.062V404.559H329.332ZM345.328 391.023V401.57H342.848V397.371H340.074V395.359H342.848V391.023H345.328ZM339.254 401.961C343.043 401.98 345.367 403.23 345.387 405.398C345.367 407.547 343.043 408.816 339.254 408.816C335.465 408.816 333.141 407.547 333.141 405.398C333.141 403.23 335.465 401.98 339.254 401.961ZM339.254 403.875C336.891 403.875 335.621 404.363 335.621 405.398C335.621 406.414 336.891 406.922 339.254 406.922C341.617 406.922 342.906 406.414 342.906 405.398C342.906 404.363 341.617 403.875 339.254 403.875ZM340.602 392.098V394.09H337.066C337.125 396.16 338.375 398.25 341.148 399.168L339.918 401.121C337.955 400.486 336.607 399.197 335.836 397.586C335.045 399.402 333.629 400.867 331.52 401.59L330.23 399.617C333.15 398.641 334.459 396.316 334.527 394.09H330.953V392.098H340.602ZM363.883 401.453V403.406H360.133V408.797H357.613V403.406H353.902V408.797H351.422V403.406H347.613V401.453H363.883ZM362.008 391.551V396.727H352.066V398.172H362.418V400.164H349.547V394.91H359.449V393.582H349.488V391.551H362.008ZM375.016 392.215V394.207H371.48C371.5 396.277 372.74 398.279 375.582 399.109L374.391 401.062C372.428 400.467 371.07 399.275 370.289 397.742C369.498 399.539 368.053 400.965 365.914 401.668L364.645 399.695C367.594 398.768 368.922 396.463 368.961 394.207H365.328V392.215H375.016ZM379.02 391.023V395.145H381.422V397.176H379.02V401.57H376.52V391.023H379.02ZM373.199 401.922C376.891 401.902 379.195 403.172 379.195 405.34C379.195 407.508 376.891 408.797 373.199 408.797C369.43 408.797 367.105 407.508 367.105 405.34C367.105 403.172 369.43 401.902 373.199 401.922ZM373.199 403.855C370.855 403.855 369.586 404.344 369.605 405.34C369.586 406.355 370.855 406.863 373.199 406.863C375.504 406.863 376.734 406.355 376.734 405.34C376.734 404.344 375.504 403.855 373.199 403.855Z" fill="black"/>
<path d="M61.4609 428.539C61.4609 430.668 62.7695 432.836 65.6992 433.715L64.4297 435.668C62.4375 435.043 61.0312 433.764 60.2305 432.152C59.4199 433.9 57.9746 435.307 55.8945 436L54.6055 434.047C57.5547 433.09 58.9219 430.785 58.9219 428.539V428.285H55.2695V426.293H65.0352V428.285H61.4609V428.539ZM69.4102 425.043V437.895H66.9102V425.043H69.4102ZM69.8789 440.492V442.484H57.4961V436.723H60.0156V440.492H69.8789ZM88.0234 434.828V436.82H81.1094V442.797H78.6484V436.82H71.8125V434.828H88.0234ZM86.5781 425.961V427.914H81.4023C81.6465 429.652 83.6094 431.4 87.2617 431.84L86.3633 433.793C83.2383 433.373 81.002 432.035 79.9375 430.199C78.8438 432.035 76.627 433.373 73.5312 433.793L72.6133 431.84C76.207 431.4 78.1895 429.652 78.4727 427.914H73.2773V425.961H86.5781ZM103.199 425.043V428.793H105.602V430.824H103.199V435.062H100.699V425.043H103.199ZM103.199 435.863V442.582H91.5586V435.863H103.199ZM94 437.797V440.629H100.758V437.797H94ZM92.3203 425.883V432.055C94.4688 432.016 96.7832 431.811 99.2539 431.332L99.5469 433.363C96.6172 433.949 93.8633 434.105 91.3438 434.105H89.8203V425.883H92.3203ZM122.594 433.09V435.102H115.719V436.41C118.814 436.645 120.641 437.758 120.66 439.594C120.641 441.645 118.316 442.797 114.469 442.797C110.562 442.797 108.238 441.645 108.238 439.594C108.238 437.748 110.084 436.635 113.238 436.41V435.102H106.383V433.09H122.594ZM114.469 438.246C112.008 438.266 110.758 438.695 110.777 439.594C110.758 440.453 112.008 440.922 114.469 440.922C116.871 440.922 118.141 440.453 118.16 439.594C118.141 438.695 116.871 438.266 114.469 438.246ZM121.129 425.785V427.738H116.305C116.725 428.988 118.531 430.189 121.91 430.473L121.031 432.426C117.682 432.104 115.416 430.834 114.469 429.105C113.531 430.834 111.305 432.104 107.926 432.426L107.105 430.473C110.396 430.189 112.213 428.979 112.672 427.738H107.867V425.785H121.129ZM134.215 426.605V428.578H123.668V426.605H127.711V424.926H130.191V426.605H134.215ZM128.941 429.145C131.52 429.145 133.316 430.473 133.316 432.426C133.316 434.379 131.52 435.707 128.941 435.707C126.363 435.707 124.527 434.379 124.527 432.426C124.527 430.473 126.363 429.145 128.941 429.145ZM128.941 431.02C127.75 431.02 126.949 431.508 126.969 432.426C126.949 433.324 127.75 433.793 128.941 433.793C130.133 433.793 130.953 433.324 130.953 432.426C130.953 431.508 130.133 431.02 128.941 431.02ZM137.77 425.023V429.633H140.172V431.664H137.77V436.176H135.27V425.023H137.77ZM137.77 436.918V442.797H135.27V438.91H125.797V436.918H137.77ZM155.699 426.566V428.305C155.68 430.473 155.68 432.914 155.035 436.488L152.594 436.273C153.18 433.021 153.199 430.6 153.199 428.539H142.555V426.566H155.699ZM157.164 438.598V440.629H140.953V438.598H144.41V433.012H146.891V438.598H148.844V433.012H151.305V438.598H157.164ZM164.957 426.195L160.387 443.129H157.906L162.457 426.195H164.957ZM181.031 425.023V442.797H178.668V425.023H181.031ZM177.398 425.316V441.977H175.055V433.129H172.711V431.117H175.055V425.316H177.398ZM171.285 429.789C171.285 432.738 172.203 435.727 174.801 437.211L173.336 439.047C171.754 438.109 170.709 436.518 170.113 434.613C169.498 436.684 168.424 438.441 166.793 439.438L165.289 437.602C167.906 436 168.883 432.797 168.883 429.789V428.832H165.973V426.84H173.98V428.832H171.285V429.789ZM188.004 425.551C190.699 425.551 192.75 427.23 192.75 429.613C192.75 431.957 190.699 433.656 188.004 433.656C185.25 433.656 183.219 431.957 183.219 429.613C183.219 427.23 185.25 425.551 188.004 425.551ZM188.004 427.582C186.637 427.582 185.621 428.324 185.641 429.613C185.621 430.883 186.637 431.645 188.004 431.645C189.352 431.645 190.348 430.883 190.348 429.613C190.348 428.324 189.352 427.582 188.004 427.582ZM197.828 425.023V433.93H195.328V425.023H197.828ZM197.828 434.672V439.496H188.375V440.648H198.316V442.602H185.934V437.68H195.348V436.586H185.895V434.672H197.828ZM203.492 426.098V428.5H206.988V426.098H209.449V427.641H212.73V425.023H215.211V435.648H212.73V433.266H209.449V434.613H200.992V426.098H203.492ZM203.492 432.68H206.988V430.414H203.492V432.68ZM209.137 435.941C212.926 435.961 215.25 437.211 215.27 439.398C215.25 441.547 212.926 442.797 209.137 442.797C205.348 442.797 203.023 441.547 203.023 439.398C203.023 437.211 205.348 435.961 209.137 435.941ZM209.137 437.855C206.773 437.855 205.504 438.344 205.504 439.398C205.504 440.395 206.773 440.902 209.137 440.902C211.5 440.902 212.789 440.395 212.789 439.398C212.789 438.344 211.5 437.855 209.137 437.855ZM209.449 431.273H212.73V429.613H209.449V431.273ZM232.574 425.043V438.461H230.074V437.055H226.676V435.355H230.074V425.043H232.574ZM232.965 440.492V442.484H219.723V437.172H222.203V434.809C220.611 434.877 219.098 434.887 217.75 434.887L217.457 432.914C220.719 432.895 225.113 432.855 228.863 432.387L229 434.164C227.594 434.398 226.139 434.564 224.703 434.672V438.051H222.203V440.492H232.965ZM223.238 425.648C225.816 425.629 227.672 426.938 227.672 428.832C227.672 430.727 225.816 431.957 223.238 431.957C220.602 431.957 218.766 430.727 218.766 428.832C218.766 426.938 220.582 425.629 223.238 425.648ZM223.238 427.465C221.969 427.465 221.109 427.953 221.129 428.832C221.109 429.691 221.969 430.16 223.238 430.16C224.43 430.16 225.289 429.691 225.309 428.832C225.289 427.953 224.43 427.465 223.238 427.465ZM68.6289 452.043V457.492H71.0312V459.523H68.6289V465.305H66.1289V452.043H68.6289ZM65.0742 453.898V455.871H54.5273V453.898H58.5703V452.004H61.0508V453.898H65.0742ZM59.8008 456.496C62.3789 456.496 64.1758 457.883 64.1758 459.934C64.1758 461.984 62.3789 463.332 59.8008 463.332C57.2031 463.332 55.3867 461.984 55.3867 459.934C55.3867 457.883 57.2031 456.496 59.8008 456.496ZM59.8008 458.391C58.6094 458.41 57.8086 458.957 57.8281 459.934C57.8086 460.91 58.6094 461.438 59.8008 461.438C60.9922 461.438 61.8125 460.91 61.8125 459.934C61.8125 458.957 60.9922 458.41 59.8008 458.391ZM69.2734 467.492V469.484H57.1055V464.289H59.5859V467.492H69.2734ZM88.0234 461.828V463.82H81.1094V469.797H78.6484V463.82H71.8125V461.828H88.0234ZM86.5781 452.961V454.914H81.4023C81.6465 456.652 83.6094 458.4 87.2617 458.84L86.3633 460.793C83.2383 460.373 81.002 459.035 79.9375 457.199C78.8438 459.035 76.627 460.373 73.5312 460.793L72.6133 458.84C76.207 458.4 78.1895 456.652 78.4727 454.914H73.2773V452.961H86.5781ZM104.078 452.043V462.961H101.598V458.137H98.7266V456.145H101.598V452.043H104.078ZM104.078 463.801V469.816H101.598V465.754H91.832V463.801H104.078ZM97.8281 453.059V458.566H92.2617V460.344C94.957 460.334 96.8906 460.295 99.1172 459.914L99.293 461.945C96.7539 462.336 94.5273 462.375 91.2461 462.395H89.8008V456.691H95.3867V455.051H89.7617V453.059H97.8281ZM116.09 453.723C116.07 459.191 114.566 463.84 107.848 467.141L106.539 465.227C109.479 463.781 111.314 462.121 112.379 460.109L106.988 460.598L106.676 458.488L113.18 458.098C113.395 457.355 113.531 456.555 113.609 455.715H107.594V453.723H116.09ZM121.324 452.023V469.797H118.805V452.023H121.324ZM132.789 453.488V455.52H126.891V458.449H132.535V460.402H126.891V463.762C129.439 463.742 131.51 463.635 133.883 463.254L134.117 465.266C131.402 465.676 128.98 465.754 125.875 465.754H124.371V453.488H132.789ZM137.691 452.023V458.762H140.309V460.852H137.691V469.797H135.191V452.023H137.691ZM157.203 460.676V462.668H150.465V465.754H147.945V462.668H140.934V460.676H157.203ZM155.406 467.473V469.484H142.867V464.172H145.387V467.473H155.406ZM149.059 452.355C152.906 452.375 155.465 453.801 155.484 456.047C155.465 458.312 152.906 459.719 149.059 459.719C145.191 459.719 142.613 458.312 142.613 456.047C142.613 453.801 145.191 452.375 149.059 452.355ZM149.059 454.328C146.754 454.328 145.289 454.914 145.309 456.047C145.289 457.141 146.754 457.727 149.059 457.727C151.344 457.727 152.809 457.141 152.809 456.047C152.809 454.914 151.344 454.328 149.059 454.328ZM163.023 453.273C165.738 453.273 167.691 455.734 167.711 459.602C167.691 463.508 165.738 465.949 163.023 465.949C160.309 465.949 158.316 463.508 158.336 459.602C158.316 455.734 160.309 453.273 163.023 453.273ZM163.023 455.52C161.656 455.52 160.738 456.965 160.738 459.602C160.738 462.258 161.656 463.684 163.023 463.684C164.41 463.684 165.309 462.258 165.328 459.602C165.309 456.965 164.41 455.52 163.023 455.52ZM172.262 452.023V458.723H174.879V460.793H172.262V469.797H169.762V452.023H172.262ZM185.66 453.664V455.656H184.078V463.41C184.801 463.352 185.504 463.283 186.188 463.195L186.324 464.992C182.691 465.637 178.609 465.695 175.562 465.715L175.289 463.684L177.32 463.664V455.656H175.738V453.664H185.66ZM189.547 452.023V458.781H192.164V460.812H189.547V469.797H187.047V452.023H189.547ZM179.723 463.625L181.676 463.547V455.656H179.723V463.625ZM207.301 461.203V463.176H194.723V453.332H207.164V455.344H197.262V457.219H206.754V459.172H197.262V461.203H207.301ZM209.078 465.695V467.727H192.809V465.695H209.078Z" fill="#A370E4"/>
<path d="M54 529.4H74V509.4H54V529.4ZM94.1172 512.043V522.277H91.6367V520.539H87.6328V518.547H91.6367V516.848H87.8086C86.7051 519.66 84.1855 521.594 80.2695 522.668L79.293 520.695C83.3848 519.621 85.3867 517.668 85.7383 515.227H80.25V513.234H88.4531C88.4531 513.811 88.4141 514.367 88.3359 514.895H91.6367V512.043H94.1172ZM88.1992 522.492C91.8125 522.492 94.2344 523.879 94.2539 526.086C94.2344 528.312 91.8125 529.719 88.1992 529.719C84.5469 529.719 82.1055 528.312 82.125 526.086C82.1055 523.879 84.5469 522.492 88.1992 522.492ZM88.1992 524.445C85.9531 524.426 84.6055 524.992 84.6055 526.086C84.6055 527.18 85.9531 527.746 88.1992 527.746C90.4062 527.746 91.7539 527.18 91.7539 526.086C91.7539 524.992 90.4062 524.426 88.1992 524.445ZM102.906 514.816C102.906 516.965 104.156 519.035 106.969 519.914L105.641 521.848C103.756 521.223 102.438 520.012 101.676 518.449C100.904 520.246 99.5273 521.652 97.4961 522.336L96.1484 520.383C99.1172 519.387 100.387 517.023 100.406 514.582V512.961H102.906V514.816ZM110.523 512.023V516.184H112.926V518.254H110.523V522.57H108.023V512.023H110.523ZM104.703 522.922C108.375 522.922 110.699 524.191 110.699 526.359C110.699 528.547 108.375 529.797 104.703 529.797C100.953 529.797 98.6094 528.547 98.6094 526.359C98.6094 524.191 100.953 522.922 104.703 522.922ZM104.703 524.875C102.359 524.875 101.09 525.383 101.109 526.359C101.09 527.375 102.359 527.844 104.703 527.844C107.008 527.844 108.238 527.375 108.238 526.359C108.238 525.383 107.008 524.875 104.703 524.875ZM128.043 512.805V514.191C128.043 515.5 128.043 517.004 127.691 518.918H129.977V520.91H123.062V523.469H128.062V529.797H125.562V525.422H115.348V523.469H120.562V520.91H113.707V518.918H125.172C125.504 517.258 125.553 515.949 125.562 514.777H115.699V512.805H128.043ZM145.875 512.043V521.945H143.375V512.043H145.875ZM140.152 512.824V518.117H134.371V519.582C137.34 519.572 139.43 519.523 141.832 519.113L142.145 521.105C139.41 521.574 137.027 521.633 133.492 521.633H131.93V516.223H137.672V514.816H131.91V512.824H140.152ZM136.461 522.688V524.211H143.395V522.688H145.875V529.602H133.98V522.688H136.461ZM136.461 527.609H143.395V526.145H136.461V527.609ZM163.648 512.023V529.797H161.285V520.871H159.566V528.938H157.281V512.316H159.566V518.879H161.285V512.023H163.648ZM155.406 514.074V516.086H151.285V523.664C153.004 523.654 154.527 523.566 156.246 523.254L156.422 525.285C154.254 525.695 152.359 525.754 150.016 525.773H148.785V514.074H155.406ZM176.109 513.605V515.578H165.562V513.605H169.605V511.926H172.086V513.605H176.109ZM170.836 516.145C173.414 516.145 175.211 517.473 175.211 519.426C175.211 521.379 173.414 522.707 170.836 522.707C168.258 522.707 166.422 521.379 166.422 519.426C166.422 517.473 168.258 516.145 170.836 516.145ZM170.836 518.02C169.645 518.02 168.844 518.508 168.863 519.426C168.844 520.324 169.645 520.793 170.836 520.793C172.027 520.793 172.848 520.324 172.848 519.426C172.848 518.508 172.027 518.02 170.836 518.02ZM179.664 512.023V516.633H182.066V518.664H179.664V523.176H177.164V512.023H179.664ZM179.664 523.918V529.797H177.164V525.91H167.691V523.918H179.664ZM197.594 513.566V515.305C197.574 517.473 197.574 519.914 196.93 523.488L194.488 523.273C195.074 520.021 195.094 517.6 195.094 515.539H184.449V513.566H197.594ZM199.059 525.598V527.629H182.848V525.598H186.305V520.012H188.785V525.598H190.738V520.012H193.199V525.598H199.059ZM218.766 512.023V518.84H221.285V520.891H218.766V529.758H216.266V512.023H218.766ZM214.02 513.84C214 519.152 211.93 523.762 205.953 526.691L204.547 524.777C208.756 522.668 211.012 519.836 211.48 515.871H205.562V513.84H214.02ZM232.262 513.449V515.48H228.707C228.824 517.287 230.113 519.025 232.77 519.777L231.598 521.73C229.605 521.154 228.219 519.992 227.438 518.488C226.656 520.139 225.23 521.428 223.16 522.043L221.91 520.109C224.654 519.299 225.973 517.443 226.129 515.48H222.555V513.449H232.262ZM228.668 521.301V524.27C230.045 524.201 231.422 524.094 232.711 523.918L232.887 525.715C229.137 526.418 225.133 526.398 222.145 526.418L221.812 524.387C223.111 524.387 224.605 524.387 226.168 524.348V521.301H228.668ZM238.57 519.035V521.125H236.148V529.797H233.648V512.023H236.148V519.035H238.57ZM247.203 513.137C247.203 517.727 245.309 520.949 240.406 522.961L239.215 521.164C241.266 520.373 242.652 519.387 243.531 518.195L239.703 518.625L239.41 516.652L244.449 516.398C244.566 515.998 244.654 515.588 244.723 515.148H240.152V513.137H247.203ZM254.586 512.043V522.453H252.223V518.195H250.621V522.297H248.277V512.355H250.621V516.164H252.223V512.043H254.586ZM254.586 523.098V529.602H242.457V523.098H254.586ZM244.918 525.09V527.609H252.145V525.09H244.918ZM266.93 513.586V515.598H265.191V523.449C265.934 523.41 266.656 523.342 267.359 523.254L267.516 525.051C263.902 525.676 259.801 525.754 256.754 525.754L256.52 523.703L258.531 523.684V515.598H257.008V513.586H266.93ZM271.598 512.023V529.797H269.137V520.48H266.402V518.488H269.137V512.023H271.598ZM260.953 523.645L262.789 523.586V515.598H260.953V523.645ZM283.238 514.367C283.238 516.965 285.543 519.758 289.566 520.441L288.473 522.512C285.377 521.896 283.072 520.158 281.93 517.863C280.748 520.139 278.443 521.887 275.367 522.512L274.293 520.441C278.238 519.738 280.562 516.945 280.582 514.367V513.078H283.238V514.367ZM290.152 525.559V527.609H273.883V525.559H290.152ZM310.777 512.023V529.836H308.316V520.305H305.016V525.617H296.441V513.391H298.922V517.707H302.574V513.391H305.016V518.293H308.316V512.023H310.777ZM298.922 523.625H302.574V519.66H298.922V523.625ZM322.418 514.367C322.418 516.965 324.723 519.758 328.746 520.441L327.652 522.512C324.557 521.896 322.252 520.158 321.109 517.863C319.928 520.139 317.623 521.887 314.547 522.512L313.473 520.441C317.418 519.738 319.742 516.945 319.762 514.367V513.078H322.418V514.367ZM329.332 525.559V527.609H313.062V525.559H329.332ZM345.328 512.023V522.57H342.848V518.371H340.074V516.359H342.848V512.023H345.328ZM339.254 522.961C343.043 522.98 345.367 524.23 345.387 526.398C345.367 528.547 343.043 529.816 339.254 529.816C335.465 529.816 333.141 528.547 333.141 526.398C333.141 524.23 335.465 522.98 339.254 522.961ZM339.254 524.875C336.891 524.875 335.621 525.363 335.621 526.398C335.621 527.414 336.891 527.922 339.254 527.922C341.617 527.922 342.906 527.414 342.906 526.398C342.906 525.363 341.617 524.875 339.254 524.875ZM340.602 513.098V515.09H337.066C337.125 517.16 338.375 519.25 341.148 520.168L339.918 522.121C337.955 521.486 336.607 520.197 335.836 518.586C335.045 520.402 333.629 521.867 331.52 522.59L330.23 520.617C333.15 519.641 334.459 517.316 334.527 515.09H330.953V513.098H340.602ZM363.883 522.453V524.406H360.133V529.797H357.613V524.406H353.902V529.797H351.422V524.406H347.613V522.453H363.883ZM362.008 512.551V517.727H352.066V519.172H362.418V521.164H349.547V515.91H359.449V514.582H349.488V512.551H362.008ZM375.016 513.215V515.207H371.48C371.5 517.277 372.74 519.279 375.582 520.109L374.391 522.062C372.428 521.467 371.07 520.275 370.289 518.742C369.498 520.539 368.053 521.965 365.914 522.668L364.645 520.695C367.594 519.768 368.922 517.463 368.961 515.207H365.328V513.215H375.016ZM379.02 512.023V516.145H381.422V518.176H379.02V522.57H376.52V512.023H379.02ZM373.199 522.922C376.891 522.902 379.195 524.172 379.195 526.34C379.195 528.508 376.891 529.797 373.199 529.797C369.43 529.797 367.105 528.508 367.105 526.34C367.105 524.172 369.43 522.902 373.199 522.922ZM373.199 524.855C370.855 524.855 369.586 525.344 369.605 526.34C369.586 527.355 370.855 527.863 373.199 527.863C375.504 527.863 376.734 527.355 376.734 526.34C376.734 525.344 375.504 524.855 373.199 524.855Z" fill="black"/>
<path d="M69.8594 546.023V563.797H67.457V554.754H65.8359V563.016H63.5117V546.492H65.8359V552.762H67.457V546.023H69.8594ZM62.2617 548.211C62.2422 553.172 60.7578 557.234 55.7578 560.145L54.3125 558.426C57.9355 556.297 59.4883 553.689 59.8398 550.203H55.2109V548.211H62.2617ZM88.2188 548.23V550.262H85.9141V552.098H88.2188V554.148H85.9141V556.414H83.4141V546.023H85.9141V548.23H88.2188ZM76.8125 547C79.5664 546.98 81.6562 548.777 81.6562 551.297C81.6562 553.816 79.5664 555.594 76.8125 555.594C74.0391 555.594 71.9297 553.816 71.9297 551.297C71.9297 548.777 74.0391 546.98 76.8125 547ZM76.8125 549.09C75.4062 549.07 74.3711 549.93 74.3906 551.297C74.3711 552.684 75.4062 553.504 76.8125 553.504C78.1797 553.504 79.2148 552.684 79.2344 551.297C79.2148 549.93 78.1797 549.07 76.8125 549.09ZM80.0938 556.766C83.7461 556.766 86.0898 558.094 86.0898 560.301C86.0898 562.488 83.7461 563.797 80.0938 563.797C76.3633 563.797 74 562.488 74 560.301C74 558.094 76.3633 556.766 80.0938 556.766ZM80.0938 558.738C77.75 558.738 76.4805 559.266 76.5 560.301C76.4805 561.336 77.75 561.824 80.0938 561.824C82.3984 561.824 83.6289 561.336 83.6289 560.301C83.6289 559.266 82.3984 558.738 80.0938 558.738ZM97.2031 546.941C101.031 546.941 103.883 548.875 103.902 551.805C103.883 554.48 101.627 556.287 98.4336 556.648V559.676H105.367V561.727H89.0977V559.676H95.9531V556.629C92.7695 556.287 90.5234 554.471 90.5234 551.805C90.5234 548.875 93.375 546.941 97.2031 546.941ZM97.2031 548.934C94.7227 548.934 92.9844 550.027 92.9844 551.805C92.9844 553.68 94.7227 554.734 97.2031 554.734C99.7031 554.734 101.422 553.68 101.441 551.805C101.422 550.027 99.7031 548.934 97.2031 548.934ZM121.363 546.023V563.797H118.883V554.891H115.348V552.859H118.883V546.023H121.363ZM115.445 547.879C115.445 553.25 113.707 557.625 107.496 560.711L106.207 558.758C110.699 556.541 112.555 553.719 112.945 549.832H107.047V547.879H115.445ZM138.57 546.023V563.836H136.09V546.023H138.57ZM133.062 547.508V554.363H127.203V557.625C129.908 557.615 132.213 557.459 134.82 557.039L135.035 559.051C132.105 559.559 129.469 559.676 126.227 559.676H124.625V552.391H130.523V549.52H124.605V547.508H133.062ZM69.5078 573.043V583.277H67.0273V581.539H63.0234V579.547H67.0273V577.848H63.1992C62.0957 580.66 59.5762 582.594 55.6602 583.668L54.6836 581.695C58.7754 580.621 60.7773 578.668 61.1289 576.227H55.6406V574.234H63.8438C63.8438 574.811 63.8047 575.367 63.7266 575.895H67.0273V573.043H69.5078ZM63.5898 583.492C67.2031 583.492 69.625 584.879 69.6445 587.086C69.625 589.312 67.2031 590.719 63.5898 590.719C59.9375 590.719 57.4961 589.312 57.5156 587.086C57.4961 584.879 59.9375 583.492 63.5898 583.492ZM63.5898 585.445C61.3438 585.426 59.9961 585.992 59.9961 587.086C59.9961 588.18 61.3438 588.746 63.5898 588.746C65.7969 588.746 67.1445 588.18 67.1445 587.086C67.1445 585.992 65.7969 585.426 63.5898 585.445ZM78.2969 575.816C78.2969 577.965 79.5469 580.035 82.3594 580.914L81.0312 582.848C79.1465 582.223 77.8281 581.012 77.0664 579.449C76.2949 581.246 74.918 582.652 72.8867 583.336L71.5391 581.383C74.5078 580.387 75.7773 578.023 75.7969 575.582V573.961H78.2969V575.816ZM85.9141 573.023V577.184H88.3164V579.254H85.9141V583.57H83.4141V573.023H85.9141ZM80.0938 583.922C83.7656 583.922 86.0898 585.191 86.0898 587.359C86.0898 589.547 83.7656 590.797 80.0938 590.797C76.3438 590.797 74 589.547 74 587.359C74 585.191 76.3438 583.922 80.0938 583.922ZM80.0938 585.875C77.75 585.875 76.4805 586.383 76.5 587.359C76.4805 588.375 77.75 588.844 80.0938 588.844C82.3984 588.844 83.6289 588.375 83.6289 587.359C83.6289 586.383 82.3984 585.875 80.0938 585.875ZM103.434 573.805V575.191C103.434 576.5 103.434 578.004 103.082 579.918H105.367V581.91H98.4531V584.469H103.453V590.797H100.953V586.422H90.7383V584.469H95.9531V581.91H89.0977V579.918H100.562C100.895 578.258 100.943 576.949 100.953 575.777H91.0898V573.805H103.434ZM121.266 573.043V582.945H118.766V573.043H121.266ZM115.543 573.824V579.117H109.762V580.582C112.73 580.572 114.82 580.523 117.223 580.113L117.535 582.105C114.801 582.574 112.418 582.633 108.883 582.633H107.32V577.223H113.062V575.816H107.301V573.824H115.543ZM111.852 583.688V585.211H118.785V583.688H121.266V590.602H109.371V583.688H111.852ZM111.852 588.609H118.785V587.145H111.852V588.609ZM139.039 573.023V590.797H136.676V581.871H134.957V589.938H132.672V573.316H134.957V579.879H136.676V573.023H139.039ZM130.797 575.074V577.086H126.676V584.664C128.395 584.654 129.918 584.566 131.637 584.254L131.812 586.285C129.645 586.695 127.75 586.754 125.406 586.773H124.176V575.074H130.797ZM151.5 574.605V576.578H140.953V574.605H144.996V572.926H147.477V574.605H151.5ZM146.227 577.145C148.805 577.145 150.602 578.473 150.602 580.426C150.602 582.379 148.805 583.707 146.227 583.707C143.648 583.707 141.812 582.379 141.812 580.426C141.812 578.473 143.648 577.145 146.227 577.145ZM146.227 579.02C145.035 579.02 144.234 579.508 144.254 580.426C144.234 581.324 145.035 581.793 146.227 581.793C147.418 581.793 148.238 581.324 148.238 580.426C148.238 579.508 147.418 579.02 146.227 579.02ZM155.055 573.023V577.633H157.457V579.664H155.055V584.176H152.555V573.023H155.055ZM155.055 584.918V590.797H152.555V586.91H143.082V584.918H155.055ZM172.984 574.566V576.305C172.965 578.473 172.965 580.914 172.32 584.488L169.879 584.273C170.465 581.021 170.484 578.6 170.484 576.539H159.84V574.566H172.984ZM174.449 586.598V588.629H158.238V586.598H161.695V581.012H164.176V586.598H166.129V581.012H168.59V586.598H174.449ZM189.547 573.023V579.84H192.066V581.891H189.547V590.758H187.047V573.023H189.547ZM184.801 574.84C184.781 580.152 182.711 584.762 176.734 587.691L175.328 585.777C179.537 583.668 181.793 580.836 182.262 576.871H176.344V574.84H184.801ZM203.043 574.449V576.48H199.488C199.605 578.287 200.895 580.025 203.551 580.777L202.379 582.73C200.387 582.154 199 580.992 198.219 579.488C197.438 581.139 196.012 582.428 193.941 583.043L192.691 581.109C195.436 580.299 196.754 578.443 196.91 576.48H193.336V574.449H203.043ZM199.449 582.301V585.27C200.826 585.201 202.203 585.094 203.492 584.918L203.668 586.715C199.918 587.418 195.914 587.398 192.926 587.418L192.594 585.387C193.893 585.387 195.387 585.387 196.949 585.348V582.301H199.449ZM209.352 580.035V582.125H206.93V590.797H204.43V573.023H206.93V580.035H209.352ZM217.984 574.137C217.984 578.727 216.09 581.949 211.188 583.961L209.996 582.164C212.047 581.373 213.434 580.387 214.312 579.195L210.484 579.625L210.191 577.652L215.23 577.398C215.348 576.998 215.436 576.588 215.504 576.148H210.934V574.137H217.984ZM225.367 573.043V583.453H223.004V579.195H221.402V583.297H219.059V573.355H221.402V577.164H223.004V573.043H225.367ZM225.367 584.098V590.602H213.238V584.098H225.367ZM215.699 586.09V588.609H222.926V586.09H215.699ZM237.711 574.586V576.598H235.973V584.449C236.715 584.41 237.438 584.342 238.141 584.254L238.297 586.051C234.684 586.676 230.582 586.754 227.535 586.754L227.301 584.703L229.312 584.684V576.598H227.789V574.586H237.711ZM242.379 573.023V590.797H239.918V581.48H237.184V579.488H239.918V573.023H242.379ZM231.734 584.645L233.57 584.586V576.598H231.734V584.645ZM254.02 575.367C254.02 577.965 256.324 580.758 260.348 581.441L259.254 583.512C256.158 582.896 253.854 581.158 252.711 578.863C251.529 581.139 249.225 582.887 246.148 583.512L245.074 581.441C249.02 580.738 251.344 577.945 251.363 575.367V574.078H254.02V575.367ZM260.934 586.559V588.609H244.664V586.559H260.934ZM277.32 574.859V576.871H262.73V574.859H268.805V573.004H271.285V574.859H277.32ZM278.219 584.508V586.539H271.285V590.816H268.805V586.539H261.949V584.508H278.219ZM270.055 577.555C273.863 577.555 276.168 578.629 276.188 580.602C276.168 582.574 273.863 583.648 270.055 583.648C266.207 583.648 263.902 582.574 263.922 580.602C263.902 578.629 266.207 577.555 270.055 577.555ZM270.055 579.391C267.672 579.41 266.5 579.781 266.5 580.602C266.5 581.402 267.672 581.793 270.055 581.793C272.398 581.793 273.59 581.402 273.59 580.602C273.59 579.781 272.398 579.41 270.055 579.391ZM295.484 581.812V583.785H288.785V586.852H286.324V583.785H279.215V581.812H295.484ZM293.395 573.805V580.348H281.246V573.805H293.395ZM283.688 575.738V578.414H290.953V575.738H283.688ZM293.688 588.492V590.484H281.129V585.309H283.609V588.492H293.688ZM69.5078 600.043V610.277H67.0273V608.539H63.0234V606.547H67.0273V604.848H63.1992C62.0957 607.66 59.5762 609.594 55.6602 610.668L54.6836 608.695C58.7754 607.621 60.7773 605.668 61.1289 603.227H55.6406V601.234H63.8438C63.8438 601.811 63.8047 602.367 63.7266 602.895H67.0273V600.043H69.5078ZM63.5898 610.492C67.2031 610.492 69.625 611.879 69.6445 614.086C69.625 616.312 67.2031 617.719 63.5898 617.719C59.9375 617.719 57.4961 616.312 57.5156 614.086C57.4961 611.879 59.9375 610.492 63.5898 610.492ZM63.5898 612.445C61.3438 612.426 59.9961 612.992 59.9961 614.086C59.9961 615.18 61.3438 615.746 63.5898 615.746C65.7969 615.746 67.1445 615.18 67.1445 614.086C67.1445 612.992 65.7969 612.426 63.5898 612.445ZM78.2969 602.816C78.2969 604.965 79.5469 607.035 82.3594 607.914L81.0312 609.848C79.1465 609.223 77.8281 608.012 77.0664 606.449C76.2949 608.246 74.918 609.652 72.8867 610.336L71.5391 608.383C74.5078 607.387 75.7773 605.023 75.7969 602.582V600.961H78.2969V602.816ZM85.9141 600.023V604.184H88.3164V606.254H85.9141V610.57H83.4141V600.023H85.9141ZM80.0938 610.922C83.7656 610.922 86.0898 612.191 86.0898 614.359C86.0898 616.547 83.7656 617.797 80.0938 617.797C76.3438 617.797 74 616.547 74 614.359C74 612.191 76.3438 610.922 80.0938 610.922ZM80.0938 612.875C77.75 612.875 76.4805 613.383 76.5 614.359C76.4805 615.375 77.75 615.844 80.0938 615.844C82.3984 615.844 83.6289 615.375 83.6289 614.359C83.6289 613.383 82.3984 612.875 80.0938 612.875ZM103.434 600.805V602.191C103.434 603.5 103.434 605.004 103.082 606.918H105.367V608.91H98.4531V611.469H103.453V617.797H100.953V613.422H90.7383V611.469H95.9531V608.91H89.0977V606.918H100.562C100.895 605.258 100.943 603.949 100.953 602.777H91.0898V600.805H103.434ZM121.266 600.043V609.945H118.766V600.043H121.266ZM115.543 600.824V606.117H109.762V607.582C112.73 607.572 114.82 607.523 117.223 607.113L117.535 609.105C114.801 609.574 112.418 609.633 108.883 609.633H107.32V604.223H113.062V602.816H107.301V600.824H115.543ZM111.852 610.688V612.211H118.785V610.688H121.266V617.602H109.371V610.688H111.852ZM111.852 615.609H118.785V614.145H111.852V615.609ZM139.039 600.023V617.797H136.676V608.871H134.957V616.938H132.672V600.316H134.957V606.879H136.676V600.023H139.039ZM130.797 602.074V604.086H126.676V611.664C128.395 611.654 129.918 611.566 131.637 611.254L131.812 613.285C129.645 613.695 127.75 613.754 125.406 613.773H124.176V602.074H130.797ZM151.5 601.605V603.578H140.953V601.605H144.996V599.926H147.477V601.605H151.5ZM146.227 604.145C148.805 604.145 150.602 605.473 150.602 607.426C150.602 609.379 148.805 610.707 146.227 610.707C143.648 610.707 141.812 609.379 141.812 607.426C141.812 605.473 143.648 604.145 146.227 604.145ZM146.227 606.02C145.035 606.02 144.234 606.508 144.254 607.426C144.234 608.324 145.035 608.793 146.227 608.793C147.418 608.793 148.238 608.324 148.238 607.426C148.238 606.508 147.418 606.02 146.227 606.02ZM155.055 600.023V604.633H157.457V606.664H155.055V611.176H152.555V600.023H155.055ZM155.055 611.918V617.797H152.555V613.91H143.082V611.918H155.055ZM172.984 601.566V603.305C172.965 605.473 172.965 607.914 172.32 611.488L169.879 611.273C170.465 608.021 170.484 605.6 170.484 603.539H159.84V601.566H172.984ZM174.449 613.598V615.629H158.238V613.598H161.695V608.012H164.176V613.598H166.129V608.012H168.59V613.598H174.449ZM189.547 600.023V606.84H192.066V608.891H189.547V617.758H187.047V600.023H189.547ZM184.801 601.84C184.781 607.152 182.711 611.762 176.734 614.691L175.328 612.777C179.537 610.668 181.793 607.836 182.262 603.871H176.344V601.84H184.801ZM203.043 601.449V603.48H199.488C199.605 605.287 200.895 607.025 203.551 607.777L202.379 609.73C200.387 609.154 199 607.992 198.219 606.488C197.438 608.139 196.012 609.428 193.941 610.043L192.691 608.109C195.436 607.299 196.754 605.443 196.91 603.48H193.336V601.449H203.043ZM199.449 609.301V612.27C200.826 612.201 202.203 612.094 203.492 611.918L203.668 613.715C199.918 614.418 195.914 614.398 192.926 614.418L192.594 612.387C193.893 612.387 195.387 612.387 196.949 612.348V609.301H199.449ZM209.352 607.035V609.125H206.93V617.797H204.43V600.023H206.93V607.035H209.352ZM217.984 601.137C217.984 605.727 216.09 608.949 211.188 610.961L209.996 609.164C212.047 608.373 213.434 607.387 214.312 606.195L210.484 606.625L210.191 604.652L215.23 604.398C215.348 603.998 215.436 603.588 215.504 603.148H210.934V601.137H217.984ZM225.367 600.043V610.453H223.004V606.195H221.402V610.297H219.059V600.355H221.402V604.164H223.004V600.043H225.367ZM225.367 611.098V617.602H213.238V611.098H225.367ZM215.699 613.09V615.609H222.926V613.09H215.699ZM237.711 601.586V603.598H235.973V611.449C236.715 611.41 237.438 611.342 238.141 611.254L238.297 613.051C234.684 613.676 230.582 613.754 227.535 613.754L227.301 611.703L229.312 611.684V603.598H227.789V601.586H237.711ZM242.379 600.023V617.797H239.918V608.48H237.184V606.488H239.918V600.023H242.379ZM231.734 611.645L233.57 611.586V603.598H231.734V611.645ZM254.02 602.367C254.02 604.965 256.324 607.758 260.348 608.441L259.254 610.512C256.158 609.896 253.854 608.158 252.711 605.863C251.529 608.139 249.225 609.887 246.148 610.512L245.074 608.441C249.02 607.738 251.344 604.945 251.363 602.367V601.078H254.02V602.367ZM260.934 613.559V615.609H244.664V613.559H260.934ZM276.93 600.023V610.57H274.449V606.371H271.676V604.359H274.449V600.023H276.93ZM270.855 610.961C274.645 610.98 276.969 612.23 276.988 614.398C276.969 616.547 274.645 617.816 270.855 617.816C267.066 617.816 264.742 616.547 264.742 614.398C264.742 612.23 267.066 610.98 270.855 610.961ZM270.855 612.875C268.492 612.875 267.223 613.363 267.223 614.398C267.223 615.414 268.492 615.922 270.855 615.922C273.219 615.922 274.508 615.414 274.508 614.398C274.508 613.363 273.219 612.875 270.855 612.875ZM272.203 601.098V603.09H268.668C268.727 605.16 269.977 607.25 272.75 608.168L271.52 610.121C269.557 609.486 268.209 608.197 267.438 606.586C266.646 608.402 265.23 609.867 263.121 610.59L261.832 608.617C264.752 607.641 266.061 605.316 266.129 603.09H262.555V601.098H272.203ZM295.484 608.812V610.785H288.785V613.852H286.324V610.785H279.215V608.812H295.484ZM293.395 600.805V607.348H281.246V600.805H293.395ZM283.688 602.738V605.414H290.953V602.738H283.688ZM293.688 615.492V617.484H281.129V612.309H283.609V615.492H293.688Z" fill="#A370E4"/>
</g>
<defs>
<clipPath id="clip0_345_63">
<rect width="990" height="660" fill="white"/>
</clipPath>
</defs>
</svg>
