<svg width="990" height="660" viewBox="0 0 990 660" fill="none" xmlns="http://www.w3.org/2000/svg">
<g clip-path="url(#clip0_345_133)">
<rect width="990" height="660" fill="white"/>
<circle cx="86" cy="194" r="70" stroke="#FFA500" stroke-width="10"/>
<path d="M41.0943 171.043V181.277H38.6138V179.539H34.6099V177.547H38.6138V175.848H34.7857C33.6822 178.66 31.1626 180.594 27.2466 181.668L26.2701 179.695C30.3618 178.621 32.3638 176.668 32.7154 174.227H27.2271V172.234H35.4302C35.4302 172.811 35.3911 173.367 35.313 173.895H38.6138V171.043H41.0943ZM35.1763 181.492C38.7896 181.492 41.2115 182.879 41.231 185.086C41.2115 187.312 38.7896 188.719 35.1763 188.719C31.524 188.719 29.0826 187.312 29.1021 185.086C29.0826 182.879 31.524 181.492 35.1763 181.492ZM35.1763 183.445C32.9302 183.426 31.5826 183.992 31.5826 185.086C31.5826 186.18 32.9302 186.746 35.1763 186.746C37.3833 186.746 38.731 186.18 38.731 185.086C38.731 183.992 37.3833 183.426 35.1763 183.445ZM49.8833 173.816C49.8833 175.965 51.1333 178.035 53.9458 178.914L52.6177 180.848C50.7329 180.223 49.4146 179.012 48.6529 177.449C47.8814 179.246 46.5044 180.652 44.4732 181.336L43.1255 179.383C46.0943 178.387 47.3638 176.023 47.3833 173.582V171.961H49.8833V173.816ZM57.5005 171.023V175.184H59.9029V177.254H57.5005V181.57H55.0005V171.023H57.5005ZM51.6802 181.922C55.3521 181.922 57.6763 183.191 57.6763 185.359C57.6763 187.547 55.3521 188.797 51.6802 188.797C47.9302 188.797 45.5865 187.547 45.5865 185.359C45.5865 183.191 47.9302 181.922 51.6802 181.922ZM51.6802 183.875C49.3365 183.875 48.0669 184.383 48.0865 185.359C48.0669 186.375 49.3365 186.844 51.6802 186.844C53.9849 186.844 55.2154 186.375 55.2154 185.359C55.2154 184.383 53.9849 183.875 51.6802 183.875ZM75.0201 171.805V173.191C75.0201 174.5 75.0201 176.004 74.6685 177.918H76.9536V179.91H70.0396V182.469H75.0396V188.797H72.5396V184.422H62.3247V182.469H67.5396V179.91H60.6841V177.918H72.149C72.481 176.258 72.5298 174.949 72.5396 173.777H62.6763V171.805H75.0201ZM92.8521 171.043V180.945H90.3521V171.043H92.8521ZM87.1294 171.824V177.117H81.3482V178.582C84.3169 178.572 86.4068 178.523 88.8091 178.113L89.1216 180.105C86.3872 180.574 84.0044 180.633 80.4693 180.633H78.9068V175.223H84.649V173.816H78.8872V171.824H87.1294ZM83.438 181.688V183.211H90.3716V181.688H92.8521V188.602H80.9576V181.688H83.438ZM83.438 186.609H90.3716V185.145H83.438V186.609ZM110.626 171.023V188.797H108.262V179.871H106.543V187.938H104.258V171.316H106.543V177.879H108.262V171.023H110.626ZM102.383 173.074V175.086H98.2622V182.664C99.981 182.654 101.504 182.566 103.223 182.254L103.399 184.285C101.231 184.695 99.3365 184.754 96.9927 184.773H95.7622V173.074H102.383ZM123.086 172.605V174.578H112.54V172.605H116.583V170.926H119.063V172.605H123.086ZM117.813 175.145C120.391 175.145 122.188 176.473 122.188 178.426C122.188 180.379 120.391 181.707 117.813 181.707C115.235 181.707 113.399 180.379 113.399 178.426C113.399 176.473 115.235 175.145 117.813 175.145ZM117.813 177.02C116.622 177.02 115.821 177.508 115.84 178.426C115.821 179.324 116.622 179.793 117.813 179.793C119.004 179.793 119.825 179.324 119.825 178.426C119.825 177.508 119.004 177.02 117.813 177.02ZM126.641 171.023V175.633H129.043V177.664H126.641V182.176H124.141V171.023H126.641ZM126.641 182.918V188.797H124.141V184.91H114.668V182.918H126.641ZM144.571 172.566V174.305C144.551 176.473 144.551 178.914 143.907 182.488L141.465 182.273C142.051 179.021 142.071 176.6 142.071 174.539H131.426V172.566H144.571ZM146.036 184.598V186.629H129.825V184.598H133.282V179.012H135.762V184.598H137.715V179.012H140.176V184.598H146.036ZM57.4224 198.023V204.84H59.9419V206.891H57.4224V215.758H54.9224V198.023H57.4224ZM52.6763 199.84C52.6568 205.152 50.5865 209.762 44.6099 212.691L43.2036 210.777C47.4126 208.668 49.6685 205.836 50.1372 201.871H44.2193V199.84H52.6763ZM70.9185 199.449V201.48H67.3638C67.481 203.287 68.7701 205.025 71.4263 205.777L70.2544 207.73C68.2622 207.154 66.8755 205.992 66.0943 204.488C65.313 206.139 63.8872 207.428 61.8169 208.043L60.5669 206.109C63.3111 205.299 64.6294 203.443 64.7857 201.48H61.2115V199.449H70.9185ZM67.3247 207.301V210.27C68.7017 210.201 70.0786 210.094 71.3677 209.918L71.5435 211.715C67.7935 212.418 63.7896 212.398 60.8013 212.418L60.4693 210.387C61.7681 210.387 63.2622 210.387 64.8247 210.348V207.301H67.3247ZM77.2271 205.035V207.125H74.8052V215.797H72.3052V198.023H74.8052V205.035H77.2271ZM85.8599 199.137C85.8599 203.727 83.9654 206.949 79.063 208.961L77.8716 207.164C79.9224 206.373 81.3091 205.387 82.188 204.195L78.3599 204.625L78.0669 202.652L83.106 202.398C83.2232 201.998 83.3111 201.588 83.3794 201.148H78.8091V199.137H85.8599ZM93.2427 198.043V208.453H90.8794V204.195H89.2779V208.297H86.9341V198.355H89.2779V202.164H90.8794V198.043H93.2427ZM93.2427 209.098V215.602H81.1138V209.098H93.2427ZM83.5747 211.09V213.609H90.8013V211.09H83.5747ZM105.586 199.586V201.598H103.848V209.449C104.59 209.41 105.313 209.342 106.016 209.254L106.172 211.051C102.559 211.676 98.4576 211.754 95.4107 211.754L95.1763 209.703L97.188 209.684V201.598H95.6646V199.586H105.586ZM110.254 198.023V215.797H107.793V206.48H105.059V204.488H107.793V198.023H110.254ZM99.6099 209.645L101.446 209.586V201.598H99.6099V209.645ZM121.895 200.367C121.895 202.965 124.2 205.758 128.223 206.441L127.129 208.512C124.034 207.896 121.729 206.158 120.586 203.863C119.405 206.139 117.1 207.887 114.024 208.512L112.95 206.441C116.895 205.738 119.219 202.945 119.239 200.367V199.078H121.895V200.367ZM128.809 211.559V213.609H112.54V211.559H128.809Z" fill="black"/>
<circle cx="806" cy="576" r="70" stroke="#009130" stroke-width="10"/>
<path d="M761.094 553.043V563.277H758.614V561.539H754.61V559.547H758.614V557.848H754.786C753.682 560.66 751.163 562.594 747.247 563.668L746.27 561.695C750.362 560.621 752.364 558.668 752.715 556.227H747.227V554.234H755.43C755.43 554.811 755.391 555.367 755.313 555.895H758.614V553.043H761.094ZM755.176 563.492C758.79 563.492 761.211 564.879 761.231 567.086C761.211 569.312 758.79 570.719 755.176 570.719C751.524 570.719 749.083 569.312 749.102 567.086C749.083 564.879 751.524 563.492 755.176 563.492ZM755.176 565.445C752.93 565.426 751.583 565.992 751.583 567.086C751.583 568.18 752.93 568.746 755.176 568.746C757.383 568.746 758.731 568.18 758.731 567.086C758.731 565.992 757.383 565.426 755.176 565.445ZM769.883 555.816C769.883 557.965 771.133 560.035 773.946 560.914L772.618 562.848C770.733 562.223 769.415 561.012 768.653 559.449C767.881 561.246 766.504 562.652 764.473 563.336L763.126 561.383C766.094 560.387 767.364 558.023 767.383 555.582V553.961H769.883V555.816ZM777.501 553.023V557.184H779.903V559.254H777.501V563.57H775.001V553.023H777.501ZM771.68 563.922C775.352 563.922 777.676 565.191 777.676 567.359C777.676 569.547 775.352 570.797 771.68 570.797C767.93 570.797 765.586 569.547 765.586 567.359C765.586 565.191 767.93 563.922 771.68 563.922ZM771.68 565.875C769.336 565.875 768.067 566.383 768.086 567.359C768.067 568.375 769.336 568.844 771.68 568.844C773.985 568.844 775.215 568.375 775.215 567.359C775.215 566.383 773.985 565.875 771.68 565.875ZM795.02 553.805V555.191C795.02 556.5 795.02 558.004 794.668 559.918H796.954V561.91H790.04V564.469H795.04V570.797H792.54V566.422H782.325V564.469H787.54V561.91H780.684V559.918H792.149C792.481 558.258 792.53 556.949 792.54 555.777H782.676V553.805H795.02ZM812.852 553.043V562.945H810.352V553.043H812.852ZM807.129 553.824V559.117H801.348V560.582C804.317 560.572 806.407 560.523 808.809 560.113L809.122 562.105C806.387 562.574 804.004 562.633 800.469 562.633H798.907V557.223H804.649V555.816H798.887V553.824H807.129ZM803.438 563.688V565.211H810.372V563.688H812.852V570.602H800.958V563.688H803.438ZM803.438 568.609H810.372V567.145H803.438V568.609ZM830.626 553.023V570.797H828.262V561.871H826.543V569.938H824.258V553.316H826.543V559.879H828.262V553.023H830.626ZM822.383 555.074V557.086H818.262V564.664C819.981 564.654 821.504 564.566 823.223 564.254L823.399 566.285C821.231 566.695 819.336 566.754 816.993 566.773H815.762V555.074H822.383ZM843.086 554.605V556.578H832.54V554.605H836.583V552.926H839.063V554.605H843.086ZM837.813 557.145C840.391 557.145 842.188 558.473 842.188 560.426C842.188 562.379 840.391 563.707 837.813 563.707C835.235 563.707 833.399 562.379 833.399 560.426C833.399 558.473 835.235 557.145 837.813 557.145ZM837.813 559.02C836.622 559.02 835.821 559.508 835.84 560.426C835.821 561.324 836.622 561.793 837.813 561.793C839.004 561.793 839.825 561.324 839.825 560.426C839.825 559.508 839.004 559.02 837.813 559.02ZM846.641 553.023V557.633H849.043V559.664H846.641V564.176H844.141V553.023H846.641ZM846.641 564.918V570.797H844.141V566.91H834.668V564.918H846.641ZM864.571 554.566V556.305C864.551 558.473 864.551 560.914 863.907 564.488L861.465 564.273C862.051 561.021 862.071 558.6 862.071 556.539H851.426V554.566H864.571ZM866.036 566.598V568.629H849.825V566.598H853.282V561.012H855.762V566.598H857.715V561.012H860.176V566.598H866.036ZM778.282 580.023V589.34H775.782V580.023H778.282ZM778.282 590.004V594.633H768.829V595.766H778.77V597.68H766.387V592.914H775.801V591.898H766.348V590.004H778.282ZM773.946 581.605V583.559H770.352C770.567 585.111 771.944 586.625 774.61 587.191L773.516 589.086C771.377 588.617 769.903 587.514 769.083 586.078C768.282 587.611 766.807 588.793 764.649 589.32L763.555 587.367C766.172 586.742 767.54 585.219 767.774 583.559H764.161V581.605H767.793V579.945H770.333V581.605H773.946ZM794.786 580.023V584.008H797.188V586H794.786V590.141H792.286V580.023H794.786ZM794.786 590.883V597.602H783.165V590.883H794.786ZM785.626 592.855V595.609H792.325V592.855H785.626ZM785.684 581C788.438 580.98 790.528 582.777 790.528 585.297C790.528 587.816 788.438 589.594 785.684 589.594C782.911 589.594 780.801 587.816 780.801 585.297C780.801 582.777 782.911 580.98 785.684 581ZM785.684 583.09C784.278 583.07 783.243 583.93 783.262 585.297C783.243 586.684 784.278 587.504 785.684 587.504C787.051 587.504 788.086 586.684 788.106 585.297C788.086 583.93 787.051 583.07 785.684 583.09ZM805.86 581.137C805.86 585.727 803.965 588.949 799.063 590.961L797.872 589.164C799.922 588.373 801.309 587.387 802.188 586.195L798.36 586.625L798.067 584.652L803.106 584.398C803.223 583.998 803.311 583.588 803.379 583.148H798.809V581.137H805.86ZM813.243 580.043V590.453H810.879V586.195H809.278V590.297H806.934V580.355H809.278V584.164H810.879V580.043H813.243ZM813.243 591.098V597.602H801.114V591.098H813.243ZM803.575 593.09V595.609H810.801V593.09H803.575ZM825.586 581.586V583.598H823.848V591.449C824.59 591.41 825.313 591.342 826.016 591.254L826.172 593.051C822.559 593.676 818.458 593.754 815.411 593.754L815.176 591.703L817.188 591.684V583.598H815.665V581.586H825.586ZM830.254 580.023V597.797H827.793V588.48H825.059V586.488H827.793V580.023H830.254ZM819.61 591.645L821.446 591.586V583.598H819.61V591.645ZM841.895 582.367C841.895 584.965 844.2 587.758 848.223 588.441L847.129 590.512C844.034 589.896 841.729 588.158 840.586 585.863C839.405 588.139 837.1 589.887 834.024 590.512L832.95 588.441C836.895 587.738 839.219 584.945 839.239 582.367V581.078H841.895V582.367ZM848.809 593.559V595.609H832.54V593.559H848.809Z" fill="black"/>
<path d="M906.918 358.5V360.453H900.023V361.996H904.945V367.797H902.465V363.988H892.504V361.996H897.562V360.453H890.707V358.5H906.918ZM895.238 350.453V352.074H902.367V350.453H904.848V357.328H892.777V350.453H895.238ZM895.238 355.375H902.367V353.91H895.238V355.375ZM924.203 359.184V361.137H907.953V359.184H914.828V358.09H909.984V350.453H922.309V352.367H912.484V353.363H921.898V355.16H912.484V356.176H922.465V358.09H917.328V359.184H924.203ZM916.078 361.957C920.004 361.938 922.25 362.992 922.27 364.867C922.25 366.781 920.004 367.797 916.078 367.797C912.094 367.797 909.848 366.781 909.848 364.867C909.848 362.992 912.094 361.938 916.078 361.957ZM916.078 363.793C913.52 363.793 912.328 364.125 912.348 364.867C912.328 365.629 913.52 365.961 916.078 365.961C918.578 365.961 919.75 365.629 919.77 364.867C919.75 364.125 918.578 363.793 916.078 363.793ZM930.238 350.98C931.654 350.98 932.895 351.498 933.754 352.367H937.777V350.023H940.258V360.434H937.777V358.305H933.734C932.875 359.164 931.645 359.682 930.238 359.672C927.543 359.691 925.492 357.836 925.512 355.336C925.492 352.797 927.543 350.98 930.238 350.98ZM930.238 353.109C928.852 353.109 927.855 353.93 927.875 355.336C927.855 356.703 928.852 357.582 930.238 357.562C931.586 357.582 932.562 356.703 932.562 355.336C932.562 353.93 931.586 353.109 930.238 353.109ZM934.184 360.805C937.953 360.805 940.297 362.094 940.316 364.301C940.297 366.508 937.953 367.797 934.184 367.797C930.434 367.797 928.07 366.508 928.07 364.301C928.07 362.094 930.434 360.805 934.184 360.805ZM934.184 362.699C931.82 362.699 930.512 363.227 930.512 364.301C930.512 365.336 931.82 365.863 934.184 365.863C936.586 365.863 937.875 365.336 937.875 364.301C937.875 363.227 936.586 362.699 934.184 362.699ZM934.828 354.34C934.887 354.652 934.926 354.994 934.926 355.336C934.926 355.678 934.887 356 934.828 356.312H937.777V354.34H934.828ZM946.156 351.859V366H943.227V351.859H946.156ZM957.992 356.781C957.758 355.219 956.547 354.262 954.906 354.262C952.699 354.262 951.254 355.961 951.254 358.93C951.254 361.977 952.719 363.598 954.887 363.598C956.508 363.598 957.699 362.699 957.992 361.176L960.961 361.195C960.629 363.812 958.441 366.195 954.848 366.195C951.059 366.195 948.266 363.539 948.266 358.93C948.266 354.32 951.117 351.664 954.848 351.664C958.109 351.664 960.57 353.539 960.961 356.781H957.992Z" fill="#BFBFBF"/>
<path d="M920.668 394.184V396.137H904.418V394.184H911.293V393.09H906.449V385.453H918.773V387.367H908.949V388.363H918.363V390.16H908.949V391.176H918.93V393.09H913.793V394.184H920.668ZM912.543 396.957C916.469 396.938 918.715 397.992 918.734 399.867C918.715 401.781 916.469 402.797 912.543 402.797C908.559 402.797 906.312 401.781 906.312 399.867C906.312 397.992 908.559 396.938 912.543 396.957ZM912.543 398.793C909.984 398.793 908.793 399.125 908.812 399.867C908.793 400.629 909.984 400.961 912.543 400.961C915.043 400.961 916.215 400.629 916.234 399.867C916.215 399.125 915.043 398.793 912.543 398.793ZM926.703 385.98C928.119 385.98 929.359 386.498 930.219 387.367H934.242V385.023H936.723V395.434H934.242V393.305H930.199C929.34 394.164 928.109 394.682 926.703 394.672C924.008 394.691 921.957 392.836 921.977 390.336C921.957 387.797 924.008 385.98 926.703 385.98ZM926.703 388.109C925.316 388.109 924.32 388.93 924.34 390.336C924.32 391.703 925.316 392.582 926.703 392.562C928.051 392.582 929.027 391.703 929.027 390.336C929.027 388.93 928.051 388.109 926.703 388.109ZM930.648 395.805C934.418 395.805 936.762 397.094 936.781 399.301C936.762 401.508 934.418 402.797 930.648 402.797C926.898 402.797 924.535 401.508 924.535 399.301C924.535 397.094 926.898 395.805 930.648 395.805ZM930.648 397.699C928.285 397.699 926.977 398.227 926.977 399.301C926.977 400.336 928.285 400.863 930.648 400.863C933.051 400.863 934.34 400.336 934.34 399.301C934.34 398.227 933.051 397.699 930.648 397.699ZM931.293 389.34C931.352 389.652 931.391 389.994 931.391 390.336C931.391 390.678 931.352 391 931.293 391.312H934.242V389.34H931.293ZM948.344 391.391V393.52H955.238V395.531H939.027V393.52H945.883V391.391H948.344ZM947.113 396.508C950.98 396.508 953.285 397.621 953.305 399.652C953.285 401.684 950.98 402.797 947.113 402.797C943.207 402.797 940.883 401.684 940.883 399.652C940.883 397.621 943.207 396.508 947.113 396.508ZM947.113 398.402C944.633 398.402 943.402 398.812 943.422 399.652C943.402 400.531 944.633 400.941 947.113 400.941C949.535 400.941 950.785 400.531 950.805 399.652C950.785 398.812 949.535 398.402 947.113 398.402ZM953.773 385.785V387.738H948.949C949.389 388.959 951.205 390.15 954.535 390.453L953.656 392.406C950.307 392.074 948.061 390.834 947.113 389.105C946.166 390.824 943.949 392.074 940.609 392.406L939.73 390.453C943.041 390.15 944.867 388.979 945.316 387.738H940.512V385.785H953.773ZM970.414 385.023V389.301H972.816V391.371H970.414V395.434H967.914V385.023H970.414ZM961.254 396.117V397.465H967.914V396.117H970.414V402.602H958.773V396.117H961.254ZM961.254 400.648H967.914V399.379H961.254V400.648ZM966.859 386.586V388.539H956.312V386.586H960.355V384.906H962.836V386.586H966.859ZM961.586 389.047C964.164 389.047 965.961 390.297 965.961 392.191C965.961 394.086 964.164 395.336 961.586 395.336C958.969 395.336 957.172 394.086 957.172 392.191C957.172 390.297 958.969 389.047 961.586 389.047ZM961.586 390.883C960.395 390.863 959.594 391.352 959.613 392.191C959.594 393.051 960.395 393.52 961.586 393.52C962.777 393.52 963.598 393.051 963.598 392.191C963.598 391.352 962.777 390.863 961.586 390.883ZM910.814 412.023V429.836H908.354V420.305H905.053V425.617H896.479V413.391H898.959V417.707H902.611V413.391H905.053V418.293H908.354V412.023H910.814ZM898.959 423.625H902.611V419.66H898.959V423.625ZM922.455 414.367C922.455 416.965 924.76 419.758 928.783 420.441L927.689 422.512C924.594 421.896 922.289 420.158 921.146 417.863C919.965 420.139 917.66 421.887 914.584 422.512L913.51 420.441C917.455 419.738 919.779 416.945 919.799 414.367V413.078H922.455V414.367ZM929.369 425.559V427.609H913.1V425.559H929.369ZM945.385 412.023V429.836H942.924V420.305H939.799V418.293H942.924V412.023H945.385ZM939.506 413.508V415.52H933.686V418.469H938.861V420.422H933.686V423.781C936.146 423.762 938.119 423.674 940.326 423.332L940.58 425.324C937.982 425.715 935.658 425.812 932.611 425.812H931.205V413.508H939.506ZM957.143 413.625V425.559H948.549V413.625H957.143ZM951.049 415.578V423.586H954.721V415.578H951.049ZM962.553 412.023V429.836H960.033V412.023H962.553ZM968.412 412.766V418.527C970.629 418.508 972.895 418.342 975.287 417.922L975.619 419.934C972.709 420.461 970.053 420.617 967.416 420.598H965.951V412.766H968.412ZM979.936 412.023V421.027H977.455V416.516H973.061V414.523H977.455V412.023H979.936ZM979.936 421.691V426.535H970.639V427.609H980.365V429.602H968.139V424.641H977.436V423.645H968.119V421.691H979.936Z" fill="#BFBFBF"/>
<path d="M310.783 54.5391C310.783 56.668 312.092 58.8359 315.021 59.7148L313.752 61.668C311.76 61.043 310.354 59.7637 309.553 58.1523C308.742 59.9004 307.297 61.3066 305.217 62L303.928 60.0469C306.877 59.0898 308.244 56.7852 308.244 54.5391V54.2852H304.592V52.293H314.357V54.2852H310.783V54.5391ZM318.732 51.043V63.8945H316.232V51.043H318.732ZM319.201 66.4922V68.4844H306.818V62.7227H309.338V66.4922H319.201ZM337.346 60.8281V62.8203H330.432V68.7969H327.971V62.8203H321.135V60.8281H337.346ZM335.9 51.9609V53.9141H330.725C330.969 55.6523 332.932 57.4004 336.584 57.8398L335.686 59.793C332.561 59.373 330.324 58.0352 329.26 56.1992C328.166 58.0352 325.949 59.373 322.854 59.793L321.936 57.8398C325.529 57.4004 327.512 55.6523 327.795 53.9141H322.6V51.9609H335.9ZM342.014 52.8594V67H339.084V52.8594H342.014ZM353.85 57.7812C353.615 56.2188 352.404 55.2617 350.764 55.2617C348.557 55.2617 347.111 56.9609 347.111 59.9297C347.111 62.9766 348.576 64.5977 350.744 64.5977C352.365 64.5977 353.557 63.6992 353.85 62.1758L356.818 62.1953C356.486 64.8125 354.299 67.1953 350.705 67.1953C346.916 67.1953 344.123 64.5391 344.123 59.9297C344.123 55.3203 346.975 52.6641 350.705 52.6641C353.967 52.6641 356.428 54.5391 356.818 57.7812H353.85Z" fill="#BFBFBF"/>
<path d="M138.471 301.539C138.471 303.668 139.779 305.836 142.709 306.715L141.439 308.668C139.447 308.043 138.041 306.764 137.24 305.152C136.43 306.9 134.984 308.307 132.904 309L131.615 307.047C134.564 306.09 135.932 303.785 135.932 301.539V301.285H132.279V299.293H142.045V301.285H138.471V301.539ZM146.42 298.043V310.895H143.92V298.043H146.42ZM146.889 313.492V315.484H134.506V309.723H137.025V313.492H146.889ZM165.033 307.828V309.82H158.119V315.797H155.658V309.82H148.822V307.828H165.033ZM163.588 298.961V300.914H158.412C158.656 302.652 160.619 304.4 164.271 304.84L163.373 306.793C160.248 306.373 158.012 305.035 156.947 303.199C155.854 305.035 153.637 306.373 150.541 306.793L149.623 304.84C153.217 304.4 155.199 302.652 155.482 300.914H150.287V298.961H163.588ZM172.416 299.859H175.326V309.723C175.326 312.477 173.393 314.195 170.541 314.195C167.982 314.195 165.971 312.848 165.99 310.055H168.92C168.939 311.168 169.623 311.832 170.678 311.832C171.791 311.832 172.416 311.109 172.416 309.723V299.859ZM187.162 304.781C186.928 303.219 185.717 302.262 184.076 302.262C181.869 302.262 180.424 303.961 180.424 306.93C180.424 309.977 181.889 311.598 184.057 311.598C185.678 311.598 186.869 310.699 187.162 309.176L190.131 309.195C189.799 311.812 187.611 314.195 184.018 314.195C180.229 314.195 177.436 311.539 177.436 306.93C177.436 302.32 180.287 299.664 184.018 299.664C187.279 299.664 189.74 301.539 190.131 304.781H187.162Z" fill="#BFBFBF"/>
<path d="M594.688 173.043V186.031H592.207V181.812H588.145C587.285 182.721 586.045 183.277 584.668 183.277C581.973 183.277 579.922 181.324 579.941 178.688C579.922 176.012 581.973 174.078 584.668 174.059C586.045 174.068 587.275 174.615 588.145 175.523H592.207V173.043H594.688ZM595.117 188.492V190.484H582.891V184.723H585.391V188.492H595.117ZM584.668 176.285C583.281 176.285 582.285 177.184 582.305 178.688C582.285 180.172 583.281 181.07 584.668 181.07C585.977 181.07 586.992 180.172 586.992 178.688C586.992 177.184 585.977 176.285 584.668 176.285ZM589.219 177.516C589.307 177.887 589.355 178.277 589.355 178.688C589.355 179.078 589.307 179.459 589.219 179.82H592.207V177.516H589.219ZM611.211 173.023V180.25H613.535V182.32H611.211V190.797H608.691V173.023H611.211ZM596.777 185.777C598.076 185.777 599.59 185.777 601.172 185.738V184.215C599.277 183.844 598.047 182.643 598.066 180.992C598.047 179 599.844 177.652 602.441 177.652C604.98 177.652 606.797 179 606.816 180.992C606.797 182.643 605.547 183.854 603.672 184.215V185.641C605.078 185.572 606.494 185.455 607.812 185.27L607.969 187.086C604.18 187.789 600.117 187.809 597.109 187.809L596.777 185.777ZM607.676 174.996V176.949H597.129V174.996H601.172V173.121H603.672V174.996H607.676ZM602.441 179.547C601.23 179.547 600.41 180.074 600.43 180.992C600.41 181.93 601.23 182.438 602.441 182.438C603.613 182.438 604.414 181.93 604.414 180.992C604.414 180.074 603.613 179.547 602.441 179.547ZM620.84 176.07C620.82 178.336 622.109 180.543 625 181.48L623.691 183.434C621.748 182.779 620.41 181.5 619.648 179.879C618.848 181.666 617.432 183.062 615.371 183.766L613.984 181.793C617.012 180.855 618.32 178.473 618.34 176.051V174.117H620.84V176.07ZM628.379 173.023V178.16H630.781V180.27H628.379V186.051H625.879V173.023H628.379ZM629.043 188.492V190.484H616.836V184.762H619.375V188.492H629.043ZM635.156 174.859V189H632.227V174.859H635.156ZM646.992 179.781C646.758 178.219 645.547 177.262 643.906 177.262C641.699 177.262 640.254 178.961 640.254 181.93C640.254 184.977 641.719 186.598 643.887 186.598C645.508 186.598 646.699 185.699 646.992 184.176L649.961 184.195C649.629 186.812 647.441 189.195 643.848 189.195C640.059 189.195 637.266 186.539 637.266 181.93C637.266 177.32 640.117 174.664 643.848 174.664C647.109 174.664 649.57 176.539 649.961 179.781H646.992Z" fill="#BFBFBF"/>
<circle cx="197" cy="60" r="10" fill="#BFBFBF"/>
<path d="M160.652 20.0234V30.5703H158.172V26.3711H155.398V24.3594H158.172V20.0234H160.652ZM154.578 30.9609C158.367 30.9805 160.691 32.2305 160.711 34.3984C160.691 36.5469 158.367 37.8164 154.578 37.8164C150.789 37.8164 148.465 36.5469 148.465 34.3984C148.465 32.2305 150.789 30.9805 154.578 30.9609ZM154.578 32.875C152.215 32.875 150.945 33.3633 150.945 34.3984C150.945 35.4141 152.215 35.9219 154.578 35.9219C156.941 35.9219 158.23 35.4141 158.23 34.3984C158.23 33.3633 156.941 32.875 154.578 32.875ZM155.926 21.0977V23.0898H152.391C152.449 25.1602 153.699 27.25 156.473 28.168L155.242 30.1211C153.279 29.4863 151.932 28.1973 151.16 26.5859C150.369 28.4023 148.953 29.8672 146.844 30.5898L145.555 28.6172C148.475 27.6406 149.783 25.3164 149.852 23.0898H146.277V21.0977H155.926ZM179.168 29.5938V31.5664H162.957V29.5938H169.812V27.6406H172.273V29.5938H179.168ZM172.273 20.0625V21.7812H177.605V23.7148H172.488C172.771 25.0625 174.607 26.3223 178.445 26.6445L177.645 28.5391C174.412 28.2656 172.156 27.25 171.043 25.7266C169.93 27.25 167.674 28.2656 164.441 28.5391L163.641 26.6445C167.459 26.3223 169.295 25.0625 169.617 23.7148H164.52V21.7812H169.812V20.0625H172.273ZM177.332 35.4922V37.4844H164.91V32.582H167.41V35.4922H177.332ZM196.512 33.7344V35.7656H180.242V33.7344H187.117V30.2578H189.598V33.7344H196.512ZM195.086 22.4648V24.457H189.656C189.861 26.4297 191.873 28.4316 195.926 28.9297L195.027 30.8633C191.844 30.4629 189.549 29.1445 188.367 27.3086C187.166 29.1445 184.891 30.4629 181.707 30.8633L180.789 28.9297C184.842 28.4316 186.854 26.4297 187.078 24.457H181.648V22.4648H187.117V20.2383H189.598V22.4648H195.086ZM213.777 28.1484V30.1797H197.527V28.1484H213.777ZM211.922 24.9258V26.8984H199.5V20.4922H211.824V22.5039H201.98V24.9258H211.922ZM205.613 31.2539C209.461 31.2539 211.785 32.4258 211.805 34.5156C211.785 36.625 209.461 37.7969 205.613 37.7969C201.727 37.7969 199.383 36.625 199.383 34.5156C199.383 32.4258 201.727 31.2539 205.613 31.2539ZM205.613 33.1484C203.152 33.1484 201.902 33.6172 201.922 34.5156C201.902 35.4531 203.152 35.9023 205.613 35.9023C208.016 35.9023 209.285 35.4531 209.305 34.5156C209.285 33.6172 208.016 33.1484 205.613 33.1484ZM225.359 21.6055V23.5781H214.812V21.6055H218.855V19.9258H221.336V21.6055H225.359ZM220.086 24.1445C222.664 24.1445 224.461 25.4727 224.461 27.4258C224.461 29.3789 222.664 30.707 220.086 30.707C217.508 30.707 215.672 29.3789 215.672 27.4258C215.672 25.4727 217.508 24.1445 220.086 24.1445ZM220.086 26.0195C218.895 26.0195 218.094 26.5078 218.113 27.4258C218.094 28.3242 218.895 28.793 220.086 28.793C221.277 28.793 222.098 28.3242 222.098 27.4258C222.098 26.5078 221.277 26.0195 220.086 26.0195ZM228.914 20.0234V24.6328H231.316V26.6641H228.914V31.1758H226.414V20.0234H228.914ZM228.914 31.918V37.7969H226.414V33.9102H216.941V31.918H228.914ZM246.844 21.5664V23.3047C246.824 25.4727 246.824 27.9141 246.18 31.4883L243.738 31.2734C244.324 28.0215 244.344 25.5996 244.344 23.5391H233.699V21.5664H246.844ZM248.309 33.5977V35.6289H232.098V33.5977H235.555V28.0117H238.035V33.5977H239.988V28.0117H242.449V33.5977H248.309Z" fill="#BFBFBF"/>
<line x1="330.154" y1="86.1955" x2="865.154" y2="334.196" stroke="#D1D1D1" stroke-width="15"/>
<line x1="205.449" y1="291.662" x2="593.449" y2="209.662" stroke="#D1D1D1" stroke-width="15"/>
<line x1="141.101" y1="83.5853" x2="242.101" y2="380.585" stroke="#D1D1D1" stroke-width="15"/>
<line x1="140" y1="85.5" x2="333" y2="85.5" stroke="#D1D1D1" stroke-width="15"/>
<line x1="-48.736" y1="-45.1699" x2="142.264" y2="86.8301" stroke="#D1D1D1" stroke-width="15"/>
<line x1="861.382" y1="328.675" x2="933.382" y2="729.675" stroke="#D1D1D1" stroke-width="15"/>
<path d="M880.5 356.677C880.5 359.123 878.963 361.405 876.336 363.1C873.713 364.792 870.06 365.855 866 365.855C861.94 365.855 858.287 364.792 855.664 363.1C853.037 361.405 851.5 359.123 851.5 356.677C851.5 354.232 853.037 351.95 855.664 350.255C858.287 348.563 861.94 347.5 866 347.5C870.06 347.5 873.713 348.563 876.336 350.255C878.963 351.95 880.5 354.232 880.5 356.677Z" fill="white" stroke="black"/>
<path d="M862.171 351.395V362H859.974V351.395H862.171ZM871.048 355.086C870.873 353.914 869.964 353.196 868.734 353.196C867.079 353.196 865.995 354.471 865.995 356.697C865.995 358.982 867.093 360.198 868.719 360.198C869.935 360.198 870.829 359.524 871.048 358.382L873.275 358.396C873.026 360.359 871.385 362.146 868.69 362.146C865.848 362.146 863.753 360.154 863.753 356.697C863.753 353.24 865.892 351.248 868.69 351.248C871.136 351.248 872.982 352.654 873.275 355.086H871.048Z" fill="black"/>
<path d="M344.5 85.6774C344.5 88.1228 342.963 90.4051 340.336 92.1002C337.713 93.7921 334.06 94.8548 330 94.8548C325.94 94.8548 322.287 93.7921 319.664 92.1002C317.037 90.4051 315.5 88.1228 315.5 85.6774C315.5 83.232 317.037 80.9498 319.664 79.2546C322.287 77.5628 325.94 76.5 330 76.5C334.06 76.5 337.713 77.5628 340.336 79.2546C342.963 80.9498 344.5 83.232 344.5 85.6774Z" fill="white" stroke="black"/>
<path d="M326.171 80.3945V91H323.974V80.3945H326.171ZM335.048 84.0859C334.873 82.9141 333.964 82.1963 332.734 82.1963C331.079 82.1963 329.995 83.4707 329.995 85.6973C329.995 87.9824 331.093 89.1982 332.719 89.1982C333.935 89.1982 334.829 88.5244 335.048 87.3818L337.275 87.3965C337.026 89.3594 335.385 91.1465 332.69 91.1465C329.848 91.1465 327.753 89.1543 327.753 85.6973C327.753 82.2402 329.892 80.248 332.69 80.248C335.136 80.248 336.982 81.6543 337.275 84.0859H335.048Z" fill="black"/>
<path d="M602.5 207.677C602.5 210.123 600.963 212.405 598.336 214.1C595.713 215.792 592.06 216.855 588 216.855C583.94 216.855 580.287 215.792 577.664 214.1C575.037 212.405 573.5 210.123 573.5 207.677C573.5 205.232 575.037 202.95 577.664 201.255C580.287 199.563 583.94 198.5 588 198.5C592.06 198.5 595.713 199.563 598.336 201.255C600.963 202.95 602.5 205.232 602.5 207.677Z" fill="white" stroke="black"/>
<path d="M584.171 202.395V213H581.974V202.395H584.171ZM593.048 206.086C592.873 204.914 591.964 204.196 590.734 204.196C589.079 204.196 587.995 205.471 587.995 207.697C587.995 209.982 589.093 211.198 590.719 211.198C591.935 211.198 592.829 210.524 593.048 209.382L595.275 209.396C595.026 211.359 593.385 213.146 590.69 213.146C587.848 213.146 585.753 211.154 585.753 207.697C585.753 204.24 587.892 202.248 590.69 202.248C593.136 202.248 594.982 203.654 595.275 206.086H593.048Z" fill="black"/>
<path d="M226.5 289.677C226.5 292.123 224.963 294.405 222.336 296.1C219.713 297.792 216.06 298.855 212 298.855C207.94 298.855 204.287 297.792 201.664 296.1C199.037 294.405 197.5 292.123 197.5 289.677C197.5 287.232 199.037 284.95 201.664 283.255C204.287 281.563 207.94 280.5 212 280.5C216.06 280.5 219.713 281.563 222.336 283.255C224.963 284.95 226.5 287.232 226.5 289.677Z" fill="white" stroke="black"/>
<path d="M207.598 284.395H209.781V291.792C209.781 293.857 208.331 295.146 206.192 295.146C204.273 295.146 202.764 294.136 202.779 292.041H204.976C204.991 292.876 205.503 293.374 206.294 293.374C207.129 293.374 207.598 292.832 207.598 291.792V284.395ZM218.658 288.086C218.482 286.914 217.574 286.196 216.343 286.196C214.688 286.196 213.604 287.471 213.604 289.697C213.604 291.982 214.703 293.198 216.329 293.198C217.544 293.198 218.438 292.524 218.658 291.382L220.884 291.396C220.635 293.359 218.995 295.146 216.299 295.146C213.458 295.146 211.363 293.154 211.363 289.697C211.363 286.24 213.501 284.248 216.299 284.248C218.746 284.248 220.591 285.654 220.884 288.086H218.658Z" fill="black"/>
<circle cx="939" cy="454" r="10" fill="#BFBFBF"/>
<path d="M58 417.4H78V397.4H58V417.4ZM98.1172 400.043V410.277H95.6367V408.539H91.6328V406.547H95.6367V404.848H91.8086C90.7051 407.66 88.1855 409.594 84.2695 410.668L83.293 408.695C87.3848 407.621 89.3867 405.668 89.7383 403.227H84.25V401.234H92.4531C92.4531 401.811 92.4141 402.367 92.3359 402.895H95.6367V400.043H98.1172ZM92.1992 410.492C95.8125 410.492 98.2344 411.879 98.2539 414.086C98.2344 416.312 95.8125 417.719 92.1992 417.719C88.5469 417.719 86.1055 416.312 86.125 414.086C86.1055 411.879 88.5469 410.492 92.1992 410.492ZM92.1992 412.445C89.9531 412.426 88.6055 412.992 88.6055 414.086C88.6055 415.18 89.9531 415.746 92.1992 415.746C94.4062 415.746 95.7539 415.18 95.7539 414.086C95.7539 412.992 94.4062 412.426 92.1992 412.445ZM106.906 402.816C106.906 404.965 108.156 407.035 110.969 407.914L109.641 409.848C107.756 409.223 106.438 408.012 105.676 406.449C104.904 408.246 103.527 409.652 101.496 410.336L100.148 408.383C103.117 407.387 104.387 405.023 104.406 402.582V400.961H106.906V402.816ZM114.523 400.023V404.184H116.926V406.254H114.523V410.57H112.023V400.023H114.523ZM108.703 410.922C112.375 410.922 114.699 412.191 114.699 414.359C114.699 416.547 112.375 417.797 108.703 417.797C104.953 417.797 102.609 416.547 102.609 414.359C102.609 412.191 104.953 410.922 108.703 410.922ZM108.703 412.875C106.359 412.875 105.09 413.383 105.109 414.359C105.09 415.375 106.359 415.844 108.703 415.844C111.008 415.844 112.238 415.375 112.238 414.359C112.238 413.383 111.008 412.875 108.703 412.875ZM132.043 400.805V402.191C132.043 403.5 132.043 405.004 131.691 406.918H133.977V408.91H127.062V411.469H132.062V417.797H129.562V413.422H119.348V411.469H124.562V408.91H117.707V406.918H129.172C129.504 405.258 129.553 403.949 129.562 402.777H119.699V400.805H132.043ZM149.875 400.043V409.945H147.375V400.043H149.875ZM144.152 400.824V406.117H138.371V407.582C141.34 407.572 143.43 407.523 145.832 407.113L146.145 409.105C143.41 409.574 141.027 409.633 137.492 409.633H135.93V404.223H141.672V402.816H135.91V400.824H144.152ZM140.461 410.688V412.211H147.395V410.688H149.875V417.602H137.98V410.688H140.461ZM140.461 415.609H147.395V414.145H140.461V415.609ZM167.648 400.023V417.797H165.285V408.871H163.566V416.938H161.281V400.316H163.566V406.879H165.285V400.023H167.648ZM159.406 402.074V404.086H155.285V411.664C157.004 411.654 158.527 411.566 160.246 411.254L160.422 413.285C158.254 413.695 156.359 413.754 154.016 413.773H152.785V402.074H159.406ZM180.109 401.605V403.578H169.562V401.605H173.605V399.926H176.086V401.605H180.109ZM174.836 404.145C177.414 404.145 179.211 405.473 179.211 407.426C179.211 409.379 177.414 410.707 174.836 410.707C172.258 410.707 170.422 409.379 170.422 407.426C170.422 405.473 172.258 404.145 174.836 404.145ZM174.836 406.02C173.645 406.02 172.844 406.508 172.863 407.426C172.844 408.324 173.645 408.793 174.836 408.793C176.027 408.793 176.848 408.324 176.848 407.426C176.848 406.508 176.027 406.02 174.836 406.02ZM183.664 400.023V404.633H186.066V406.664H183.664V411.176H181.164V400.023H183.664ZM183.664 411.918V417.797H181.164V413.91H171.691V411.918H183.664ZM201.594 401.566V403.305C201.574 405.473 201.574 407.914 200.93 411.488L198.488 411.273C199.074 408.021 199.094 405.6 199.094 403.539H188.449V401.566H201.594ZM203.059 413.598V415.629H186.848V413.598H190.305V408.012H192.785V413.598H194.738V408.012H197.199V413.598H203.059ZM224.953 409.184V411.137H208.703V409.184H215.578V408.09H210.734V400.453H223.059V402.367H213.234V403.363H222.648V405.16H213.234V406.176H223.215V408.09H218.078V409.184H224.953ZM216.828 411.957C220.754 411.938 223 412.992 223.02 414.867C223 416.781 220.754 417.797 216.828 417.797C212.844 417.797 210.598 416.781 210.598 414.867C210.598 412.992 212.844 411.938 216.828 411.957ZM216.828 413.793C214.27 413.793 213.078 414.125 213.098 414.867C213.078 415.629 214.27 415.961 216.828 415.961C219.328 415.961 220.5 415.629 220.52 414.867C220.5 414.125 219.328 413.793 216.828 413.793ZM230.988 400.98C232.404 400.98 233.645 401.498 234.504 402.367H238.527V400.023H241.008V410.434H238.527V408.305H234.484C233.625 409.164 232.395 409.682 230.988 409.672C228.293 409.691 226.242 407.836 226.262 405.336C226.242 402.797 228.293 400.98 230.988 400.98ZM230.988 403.109C229.602 403.109 228.605 403.93 228.625 405.336C228.605 406.703 229.602 407.582 230.988 407.562C232.336 407.582 233.312 406.703 233.312 405.336C233.312 403.93 232.336 403.109 230.988 403.109ZM234.934 410.805C238.703 410.805 241.047 412.094 241.066 414.301C241.047 416.508 238.703 417.797 234.934 417.797C231.184 417.797 228.82 416.508 228.82 414.301C228.82 412.094 231.184 410.805 234.934 410.805ZM234.934 412.699C232.57 412.699 231.262 413.227 231.262 414.301C231.262 415.336 232.57 415.863 234.934 415.863C237.336 415.863 238.625 415.336 238.625 414.301C238.625 413.227 237.336 412.699 234.934 412.699ZM235.578 404.34C235.637 404.652 235.676 404.994 235.676 405.336C235.676 405.678 235.637 406 235.578 406.312H238.527V404.34H235.578ZM251.203 401.137C251.203 405.727 249.309 408.949 244.406 410.961L243.215 409.164C245.266 408.373 246.652 407.387 247.531 406.195L243.703 406.625L243.41 404.652L248.449 404.398C248.566 403.998 248.654 403.588 248.723 403.148H244.152V401.137H251.203ZM258.586 400.043V410.453H256.223V406.195H254.621V410.297H252.277V400.355H254.621V404.164H256.223V400.043H258.586ZM258.586 411.098V417.602H246.457V411.098H258.586ZM248.918 413.09V415.609H256.145V413.09H248.918ZM270.93 401.586V403.598H269.191V411.449C269.934 411.41 270.656 411.342 271.359 411.254L271.516 413.051C267.902 413.676 263.801 413.754 260.754 413.754L260.52 411.703L262.531 411.684V403.598H261.008V401.586H270.93ZM275.598 400.023V417.797H273.137V408.48H270.402V406.488H273.137V400.023H275.598ZM264.953 411.645L266.789 411.586V403.598H264.953V411.645ZM287.238 402.367C287.238 404.965 289.543 407.758 293.566 408.441L292.473 410.512C289.377 409.896 287.072 408.158 285.93 405.863C284.748 408.139 282.443 409.887 279.367 410.512L278.293 408.441C282.238 407.738 284.562 404.945 284.582 402.367V401.078H287.238V402.367ZM294.152 413.559V415.609H277.883V413.559H294.152ZM314.777 400.023V417.836H312.316V408.305H309.016V413.617H300.441V401.391H302.922V405.707H306.574V401.391H309.016V406.293H312.316V400.023H314.777ZM302.922 411.625H306.574V407.66H302.922V411.625ZM326.418 402.367C326.418 404.965 328.723 407.758 332.746 408.441L331.652 410.512C328.557 409.896 326.252 408.158 325.109 405.863C323.928 408.139 321.623 409.887 318.547 410.512L317.473 408.441C321.418 407.738 323.742 404.945 323.762 402.367V401.078H326.418V402.367ZM333.332 413.559V415.609H317.062V413.559H333.332ZM349.348 400.023V417.836H346.887V408.305H343.762V406.293H346.887V400.023H349.348ZM343.469 401.508V403.52H337.648V406.469H342.824V408.422H337.648V411.781C340.109 411.762 342.082 411.674 344.289 411.332L344.543 413.324C341.945 413.715 339.621 413.812 336.574 413.812H335.168V401.508H343.469ZM361.105 401.625V413.559H352.512V401.625H361.105ZM355.012 403.578V411.586H358.684V403.578H355.012ZM366.516 400.023V417.836H363.996V400.023H366.516ZM372.375 400.766V406.527C374.592 406.508 376.857 406.342 379.25 405.922L379.582 407.934C376.672 408.461 374.016 408.617 371.379 408.598H369.914V400.766H372.375ZM383.898 400.023V409.027H381.418V404.516H377.023V402.523H381.418V400.023H383.898ZM383.898 409.691V414.535H374.602V415.609H384.328V417.602H372.102V412.641H381.398V411.645H372.082V409.691H383.898Z" fill="black"/>
<path d="M74.7383 443.184V445.137H58.4883V443.184H65.3633V442.09H60.5195V434.453H72.8438V436.367H63.0195V437.363H72.4336V439.16H63.0195V440.176H73V442.09H67.8633V443.184H74.7383ZM66.6133 445.957C70.5391 445.938 72.7852 446.992 72.8047 448.867C72.7852 450.781 70.5391 451.797 66.6133 451.797C62.6289 451.797 60.3828 450.781 60.3828 448.867C60.3828 446.992 62.6289 445.938 66.6133 445.957ZM66.6133 447.793C64.0547 447.793 62.8633 448.125 62.8828 448.867C62.8633 449.629 64.0547 449.961 66.6133 449.961C69.1133 449.961 70.2852 449.629 70.3047 448.867C70.2852 448.125 69.1133 447.793 66.6133 447.793ZM80.7734 434.98C82.1895 434.98 83.4297 435.498 84.2891 436.367H88.3125V434.023H90.793V444.434H88.3125V442.305H84.2695C83.4102 443.164 82.1797 443.682 80.7734 443.672C78.0781 443.691 76.0273 441.836 76.0469 439.336C76.0273 436.797 78.0781 434.98 80.7734 434.98ZM80.7734 437.109C79.3867 437.109 78.3906 437.93 78.4102 439.336C78.3906 440.703 79.3867 441.582 80.7734 441.562C82.1211 441.582 83.0977 440.703 83.0977 439.336C83.0977 437.93 82.1211 437.109 80.7734 437.109ZM84.7188 444.805C88.4883 444.805 90.832 446.094 90.8516 448.301C90.832 450.508 88.4883 451.797 84.7188 451.797C80.9688 451.797 78.6055 450.508 78.6055 448.301C78.6055 446.094 80.9688 444.805 84.7188 444.805ZM84.7188 446.699C82.3555 446.699 81.0469 447.227 81.0469 448.301C81.0469 449.336 82.3555 449.863 84.7188 449.863C87.1211 449.863 88.4102 449.336 88.4102 448.301C88.4102 447.227 87.1211 446.699 84.7188 446.699ZM85.3633 438.34C85.4219 438.652 85.4609 438.994 85.4609 439.336C85.4609 439.678 85.4219 440 85.3633 440.312H88.3125V438.34H85.3633ZM102.414 440.391V442.52H109.309V444.531H93.0977V442.52H99.9531V440.391H102.414ZM101.184 445.508C105.051 445.508 107.355 446.621 107.375 448.652C107.355 450.684 105.051 451.797 101.184 451.797C97.2773 451.797 94.9531 450.684 94.9531 448.652C94.9531 446.621 97.2773 445.508 101.184 445.508ZM101.184 447.402C98.7031 447.402 97.4727 447.812 97.4922 448.652C97.4727 449.531 98.7031 449.941 101.184 449.941C103.605 449.941 104.855 449.531 104.875 448.652C104.855 447.812 103.605 447.402 101.184 447.402ZM107.844 434.785V436.738H103.02C103.459 437.959 105.275 439.15 108.605 439.453L107.727 441.406C104.377 441.074 102.131 439.834 101.184 438.105C100.236 439.824 98.0195 441.074 94.6797 441.406L93.8008 439.453C97.1113 439.15 98.9375 437.979 99.3867 436.738H94.582V434.785H107.844ZM124.484 434.023V438.301H126.887V440.371H124.484V444.434H121.984V434.023H124.484ZM115.324 445.117V446.465H121.984V445.117H124.484V451.602H112.844V445.117H115.324ZM115.324 449.648H121.984V448.379H115.324V449.648ZM120.93 435.586V437.539H110.383V435.586H114.426V433.906H116.906V435.586H120.93ZM115.656 438.047C118.234 438.047 120.031 439.297 120.031 441.191C120.031 443.086 118.234 444.336 115.656 444.336C113.039 444.336 111.242 443.086 111.242 441.191C111.242 439.297 113.039 438.047 115.656 438.047ZM115.656 439.883C114.465 439.863 113.664 440.352 113.684 441.191C113.664 442.051 114.465 442.52 115.656 442.52C116.848 442.52 117.668 442.051 117.668 441.191C117.668 440.352 116.848 439.863 115.656 439.883ZM142.668 434.023V451.836H140.207V442.305H136.906V447.617H128.332V435.391H130.812V439.707H134.465V435.391H136.906V440.293H140.207V434.023H142.668ZM130.812 445.625H134.465V441.66H130.812V445.625ZM154.309 436.367C154.309 438.965 156.613 441.758 160.637 442.441L159.543 444.512C156.447 443.896 154.143 442.158 153 439.863C151.818 442.139 149.514 443.887 146.438 444.512L145.363 442.441C149.309 441.738 151.633 438.945 151.652 436.367V435.078H154.309V436.367ZM161.223 447.559V449.609H144.953V447.559H161.223ZM177.238 434.023V451.836H174.777V442.305H171.652V440.293H174.777V434.023H177.238ZM171.359 435.508V437.52H165.539V440.469H170.715V442.422H165.539V445.781C168 445.762 169.973 445.674 172.18 445.332L172.434 447.324C169.836 447.715 167.512 447.812 164.465 447.812H163.059V435.508H171.359ZM188.996 435.625V447.559H180.402V435.625H188.996ZM182.902 437.578V445.586H186.574V437.578H182.902ZM194.406 434.023V451.836H191.887V434.023H194.406ZM200.266 434.766V440.527C202.482 440.508 204.748 440.342 207.141 439.922L207.473 441.934C204.562 442.461 201.906 442.617 199.27 442.598H197.805V434.766H200.266ZM211.789 434.023V443.027H209.309V438.516H204.914V436.523H209.309V434.023H211.789ZM211.789 443.691V448.535H202.492V449.609H212.219V451.602H199.992V446.641H209.289V445.645H199.973V443.691H211.789ZM73.5078 461.043V471.277H71.0273V469.539H67.0234V467.547H71.0273V465.848H67.1992C66.0957 468.66 63.5762 470.594 59.6602 471.668L58.6836 469.695C62.7754 468.621 64.7773 466.668 65.1289 464.227H59.6406V462.234H67.8438C67.8438 462.811 67.8047 463.367 67.7266 463.895H71.0273V461.043H73.5078ZM67.5898 471.492C71.2031 471.492 73.625 472.879 73.6445 475.086C73.625 477.312 71.2031 478.719 67.5898 478.719C63.9375 478.719 61.4961 477.312 61.5156 475.086C61.4961 472.879 63.9375 471.492 67.5898 471.492ZM67.5898 473.445C65.3438 473.426 63.9961 473.992 63.9961 475.086C63.9961 476.18 65.3438 476.746 67.5898 476.746C69.7969 476.746 71.1445 476.18 71.1445 475.086C71.1445 473.992 69.7969 473.426 67.5898 473.445ZM82.2969 463.816C82.2969 465.965 83.5469 468.035 86.3594 468.914L85.0312 470.848C83.1465 470.223 81.8281 469.012 81.0664 467.449C80.2949 469.246 78.918 470.652 76.8867 471.336L75.5391 469.383C78.5078 468.387 79.7773 466.023 79.7969 463.582V461.961H82.2969V463.816ZM89.9141 461.023V465.184H92.3164V467.254H89.9141V471.57H87.4141V461.023H89.9141ZM84.0938 471.922C87.7656 471.922 90.0898 473.191 90.0898 475.359C90.0898 477.547 87.7656 478.797 84.0938 478.797C80.3438 478.797 78 477.547 78 475.359C78 473.191 80.3438 471.922 84.0938 471.922ZM84.0938 473.875C81.75 473.875 80.4805 474.383 80.5 475.359C80.4805 476.375 81.75 476.844 84.0938 476.844C86.3984 476.844 87.6289 476.375 87.6289 475.359C87.6289 474.383 86.3984 473.875 84.0938 473.875ZM107.199 461.043V464.793H109.602V466.824H107.199V471.062H104.699V461.043H107.199ZM107.199 471.863V478.582H95.5586V471.863H107.199ZM98 473.797V476.629H104.758V473.797H98ZM96.3203 461.883V468.055C98.4688 468.016 100.783 467.811 103.254 467.332L103.547 469.363C100.617 469.949 97.8633 470.105 95.3438 470.105H93.8203V461.883H96.3203ZM124.875 468.973V470.945H119.719V474.734H126.652V476.766H110.383V474.734H117.238V470.945H112.297V462.273H124.738V464.266H114.797V468.973H124.875ZM148.488 470.184V472.137H132.238V470.184H139.113V469.09H134.27V461.453H146.594V463.367H136.77V464.363H146.184V466.16H136.77V467.176H146.75V469.09H141.613V470.184H148.488ZM140.363 472.957C144.289 472.938 146.535 473.992 146.555 475.867C146.535 477.781 144.289 478.797 140.363 478.797C136.379 478.797 134.133 477.781 134.133 475.867C134.133 473.992 136.379 472.938 140.363 472.957ZM140.363 474.793C137.805 474.793 136.613 475.125 136.633 475.867C136.613 476.629 137.805 476.961 140.363 476.961C142.863 476.961 144.035 476.629 144.055 475.867C144.035 475.125 142.863 474.793 140.363 474.793ZM154.523 461.98C155.939 461.98 157.18 462.498 158.039 463.367H162.062V461.023H164.543V471.434H162.062V469.305H158.02C157.16 470.164 155.93 470.682 154.523 470.672C151.828 470.691 149.777 468.836 149.797 466.336C149.777 463.797 151.828 461.98 154.523 461.98ZM154.523 464.109C153.137 464.109 152.141 464.93 152.16 466.336C152.141 467.703 153.137 468.582 154.523 468.562C155.871 468.582 156.848 467.703 156.848 466.336C156.848 464.93 155.871 464.109 154.523 464.109ZM158.469 471.805C162.238 471.805 164.582 473.094 164.602 475.301C164.582 477.508 162.238 478.797 158.469 478.797C154.719 478.797 152.355 477.508 152.355 475.301C152.355 473.094 154.719 471.805 158.469 471.805ZM158.469 473.699C156.105 473.699 154.797 474.227 154.797 475.301C154.797 476.336 156.105 476.863 158.469 476.863C160.871 476.863 162.16 476.336 162.16 475.301C162.16 474.227 160.871 473.699 158.469 473.699ZM159.113 465.34C159.172 465.652 159.211 465.994 159.211 466.336C159.211 466.678 159.172 467 159.113 467.312H162.062V465.34H159.113ZM173.762 465.047C173.762 468.309 175.246 471.59 178.254 472.859L176.789 474.852C174.758 473.934 173.352 472.166 172.551 469.969C171.74 472.361 170.285 474.295 168.117 475.281L166.613 473.211C169.719 471.902 171.223 468.504 171.242 465.047V462.391H173.762V465.047ZM181.73 461.023V478.836H179.211V461.023H181.73ZM198.742 462V463.152C198.723 464.305 198.723 465.887 198.312 467.82L195.871 467.645C196.154 466.15 196.223 464.988 196.242 463.992H189.562V462H198.742ZM194.289 465.965V469.031C196.066 468.973 197.873 468.855 199.543 468.66L199.68 470.398C195.988 471.043 191.926 471.141 188.723 471.141L188.508 469.148C189.523 469.139 190.637 469.139 191.809 469.109V465.965H194.289ZM203.059 461.023V465.398H205.227V467.469H203.059V471.863H200.5V461.023H203.059ZM197.004 472.078C200.812 472.078 203.176 473.348 203.176 475.379C203.176 477.527 200.812 478.758 197.004 478.758C193.195 478.758 190.812 477.527 190.812 475.379C190.812 473.348 193.195 472.078 197.004 472.078ZM197.004 473.992C194.66 473.992 193.352 474.48 193.352 475.379C193.352 476.395 194.66 476.824 197.004 476.824C199.328 476.824 200.617 476.395 200.617 475.379C200.617 474.48 199.328 473.992 197.004 473.992ZM220.52 468.973V470.945H215.363V474.734H222.297V476.766H206.027V474.734H212.883V470.945H207.941V462.273H220.383V464.266H210.441V468.973H220.52ZM232.492 462.469V463.816H235.812V461.043H238.293V473.973H235.812V469.617H232.492V471.121H224.055V462.469H232.492ZM226.535 464.441V469.188H230.051V464.441H226.535ZM238.664 476.492V478.484H226.457V472.742H228.977V476.492H238.664ZM232.492 467.645H235.812V465.828H232.492V467.645ZM259.953 461.668V463.641H255.09C255.48 464.939 257.316 466.199 260.734 466.512L259.836 468.465C256.496 468.133 254.24 466.863 253.293 465.105C252.355 466.854 250.139 468.133 246.809 468.465L245.93 466.512C249.299 466.199 251.125 464.93 251.516 463.641H246.691V461.668H259.953ZM261.418 469.207V471.199H254.543V472.898H259.445V478.797H256.965V474.891H247.004V472.898H252.062V471.199H245.207V469.207H261.418ZM277.375 461.043V471.57H274.875V461.043H277.375ZM271.652 462.059V467.391H265.871V468.934C268.84 468.924 270.93 468.836 273.332 468.445L273.645 470.438C270.91 470.867 268.527 470.965 264.992 470.965H263.43V465.496H269.172V464.012H263.41V462.059H271.652ZM277.375 472.352V478.602H265.461V472.352H277.375ZM267.922 474.324V476.609H274.934V474.324H267.922ZM280.129 474.5V472.176L286.105 462.859H289.797V472.137H291.594V474.5H289.797V477H287.004V474.5H280.129ZM283.098 472.137H287.043V466.082H286.906L283.098 472.02V472.137ZM309.191 474.773V476.824H292.922V474.773H299.777V472.098H294.797V466.121H304.855V464.168H294.777V462.176H307.316V468.074H297.297V470.066H307.727V472.098H302.258V474.773H309.191ZM315.402 477L315.383 474.871L320.461 470.203C321.789 468.934 322.492 468.152 322.492 467.039C322.492 465.789 321.535 465.008 320.246 465.008C318.918 465.008 318.059 465.848 318.059 467.195H315.266C315.246 464.422 317.297 462.664 320.285 462.664C323.312 462.664 325.324 464.383 325.324 466.844C325.324 468.445 324.543 469.773 321.633 472.41L319.484 474.5V474.578H325.52V477H315.402ZM327.062 474.5V472.176L333.039 462.859H336.73V472.137H338.527V474.5H336.73V477H333.938V474.5H327.062ZM330.031 472.137H333.977V466.082H333.84L330.031 472.02V472.137Z" fill="#A370E4"/>
<path d="M58 538.4H78V518.4H58V538.4ZM98.1172 521.043V531.277H95.6367V529.539H91.6328V527.547H95.6367V525.848H91.8086C90.7051 528.66 88.1855 530.594 84.2695 531.668L83.293 529.695C87.3848 528.621 89.3867 526.668 89.7383 524.227H84.25V522.234H92.4531C92.4531 522.811 92.4141 523.367 92.3359 523.895H95.6367V521.043H98.1172ZM92.1992 531.492C95.8125 531.492 98.2344 532.879 98.2539 535.086C98.2344 537.312 95.8125 538.719 92.1992 538.719C88.5469 538.719 86.1055 537.312 86.125 535.086C86.1055 532.879 88.5469 531.492 92.1992 531.492ZM92.1992 533.445C89.9531 533.426 88.6055 533.992 88.6055 535.086C88.6055 536.18 89.9531 536.746 92.1992 536.746C94.4062 536.746 95.7539 536.18 95.7539 535.086C95.7539 533.992 94.4062 533.426 92.1992 533.445ZM106.906 523.816C106.906 525.965 108.156 528.035 110.969 528.914L109.641 530.848C107.756 530.223 106.438 529.012 105.676 527.449C104.904 529.246 103.527 530.652 101.496 531.336L100.148 529.383C103.117 528.387 104.387 526.023 104.406 523.582V521.961H106.906V523.816ZM114.523 521.023V525.184H116.926V527.254H114.523V531.57H112.023V521.023H114.523ZM108.703 531.922C112.375 531.922 114.699 533.191 114.699 535.359C114.699 537.547 112.375 538.797 108.703 538.797C104.953 538.797 102.609 537.547 102.609 535.359C102.609 533.191 104.953 531.922 108.703 531.922ZM108.703 533.875C106.359 533.875 105.09 534.383 105.109 535.359C105.09 536.375 106.359 536.844 108.703 536.844C111.008 536.844 112.238 536.375 112.238 535.359C112.238 534.383 111.008 533.875 108.703 533.875ZM132.043 521.805V523.191C132.043 524.5 132.043 526.004 131.691 527.918H133.977V529.91H127.062V532.469H132.062V538.797H129.562V534.422H119.348V532.469H124.562V529.91H117.707V527.918H129.172C129.504 526.258 129.553 524.949 129.562 523.777H119.699V521.805H132.043ZM149.875 521.043V530.945H147.375V521.043H149.875ZM144.152 521.824V527.117H138.371V528.582C141.34 528.572 143.43 528.523 145.832 528.113L146.145 530.105C143.41 530.574 141.027 530.633 137.492 530.633H135.93V525.223H141.672V523.816H135.91V521.824H144.152ZM140.461 531.688V533.211H147.395V531.688H149.875V538.602H137.98V531.688H140.461ZM140.461 536.609H147.395V535.145H140.461V536.609ZM167.648 521.023V538.797H165.285V529.871H163.566V537.938H161.281V521.316H163.566V527.879H165.285V521.023H167.648ZM159.406 523.074V525.086H155.285V532.664C157.004 532.654 158.527 532.566 160.246 532.254L160.422 534.285C158.254 534.695 156.359 534.754 154.016 534.773H152.785V523.074H159.406ZM180.109 522.605V524.578H169.562V522.605H173.605V520.926H176.086V522.605H180.109ZM174.836 525.145C177.414 525.145 179.211 526.473 179.211 528.426C179.211 530.379 177.414 531.707 174.836 531.707C172.258 531.707 170.422 530.379 170.422 528.426C170.422 526.473 172.258 525.145 174.836 525.145ZM174.836 527.02C173.645 527.02 172.844 527.508 172.863 528.426C172.844 529.324 173.645 529.793 174.836 529.793C176.027 529.793 176.848 529.324 176.848 528.426C176.848 527.508 176.027 527.02 174.836 527.02ZM183.664 521.023V525.633H186.066V527.664H183.664V532.176H181.164V521.023H183.664ZM183.664 532.918V538.797H181.164V534.91H171.691V532.918H183.664ZM201.594 522.566V524.305C201.574 526.473 201.574 528.914 200.93 532.488L198.488 532.273C199.074 529.021 199.094 526.6 199.094 524.539H188.449V522.566H201.594ZM203.059 534.598V536.629H186.848V534.598H190.305V529.012H192.785V534.598H194.738V529.012H197.199V534.598H203.059ZM222.766 521.023V527.84H225.285V529.891H222.766V538.758H220.266V521.023H222.766ZM218.02 522.84C218 528.152 215.93 532.762 209.953 535.691L208.547 533.777C212.756 531.668 215.012 528.836 215.48 524.871H209.562V522.84H218.02ZM236.262 522.449V524.48H232.707C232.824 526.287 234.113 528.025 236.77 528.777L235.598 530.73C233.605 530.154 232.219 528.992 231.438 527.488C230.656 529.139 229.23 530.428 227.16 531.043L225.91 529.109C228.654 528.299 229.973 526.443 230.129 524.48H226.555V522.449H236.262ZM232.668 530.301V533.27C234.045 533.201 235.422 533.094 236.711 532.918L236.887 534.715C233.137 535.418 229.133 535.398 226.145 535.418L225.812 533.387C227.111 533.387 228.605 533.387 230.168 533.348V530.301H232.668ZM242.57 528.035V530.125H240.148V538.797H237.648V521.023H240.148V528.035H242.57ZM251.203 522.137C251.203 526.727 249.309 529.949 244.406 531.961L243.215 530.164C245.266 529.373 246.652 528.387 247.531 527.195L243.703 527.625L243.41 525.652L248.449 525.398C248.566 524.998 248.654 524.588 248.723 524.148H244.152V522.137H251.203ZM258.586 521.043V531.453H256.223V527.195H254.621V531.297H252.277V521.355H254.621V525.164H256.223V521.043H258.586ZM258.586 532.098V538.602H246.457V532.098H258.586ZM248.918 534.09V536.609H256.145V534.09H248.918ZM270.93 522.586V524.598H269.191V532.449C269.934 532.41 270.656 532.342 271.359 532.254L271.516 534.051C267.902 534.676 263.801 534.754 260.754 534.754L260.52 532.703L262.531 532.684V524.598H261.008V522.586H270.93ZM275.598 521.023V538.797H273.137V529.48H270.402V527.488H273.137V521.023H275.598ZM264.953 532.645L266.789 532.586V524.598H264.953V532.645ZM287.238 523.367C287.238 525.965 289.543 528.758 293.566 529.441L292.473 531.512C289.377 530.896 287.072 529.158 285.93 526.863C284.748 529.139 282.443 530.887 279.367 531.512L278.293 529.441C282.238 528.738 284.562 525.945 284.582 523.367V522.078H287.238V523.367ZM294.152 534.559V536.609H277.883V534.559H294.152ZM314.777 521.023V538.836H312.316V529.305H309.016V534.617H300.441V522.391H302.922V526.707H306.574V522.391H309.016V527.293H312.316V521.023H314.777ZM302.922 532.625H306.574V528.66H302.922V532.625ZM326.418 523.367C326.418 525.965 328.723 528.758 332.746 529.441L331.652 531.512C328.557 530.896 326.252 529.158 325.109 526.863C323.928 529.139 321.623 530.887 318.547 531.512L317.473 529.441C321.418 528.738 323.742 525.945 323.762 523.367V522.078H326.418V523.367ZM333.332 534.559V536.609H317.062V534.559H333.332ZM343.742 521.883C343.742 523.758 345.812 525.828 349.738 526.277L348.84 528.23C345.812 527.83 343.605 526.531 342.473 524.773C341.32 526.531 339.104 527.82 336.086 528.23L335.148 526.277C339.094 525.828 341.164 523.758 341.184 521.883V521.297H343.742V521.883ZM350.559 529.207V531.16H334.348V529.207H350.559ZM342.434 532.371C346.281 532.371 348.605 533.504 348.625 535.594C348.605 537.645 346.281 538.816 342.434 538.816C338.527 538.816 336.203 537.645 336.203 535.594C336.203 533.504 338.527 532.371 342.434 532.371ZM342.434 534.246C339.973 534.246 338.723 534.676 338.742 535.594C338.723 536.512 339.973 536.922 342.434 536.922C344.836 536.922 346.105 536.512 346.125 535.594C346.105 534.676 344.836 534.246 342.434 534.246ZM365.734 521.023V525.203H368.137V527.234H365.734V531.336H363.234V521.023H365.734ZM360.773 522.195C360.793 526.941 357.805 530.262 352.512 531.727L351.516 529.715C355.432 528.67 357.678 526.658 358.059 524.188H352.355V522.195H360.773ZM359.934 531.551C363.547 531.551 365.93 532.957 365.93 535.184C365.93 537.43 363.547 538.816 359.934 538.816C356.32 538.816 353.898 537.43 353.918 535.184C353.898 532.957 356.32 531.551 359.934 531.551ZM359.934 533.484C357.688 533.484 356.359 534.09 356.379 535.184C356.359 536.258 357.688 536.883 359.934 536.863C362.141 536.883 363.469 536.258 363.469 535.184C363.469 534.09 362.141 533.484 359.934 533.484ZM379.016 522.215V524.207H375.48C375.5 526.277 376.74 528.279 379.582 529.109L378.391 531.062C376.428 530.467 375.07 529.275 374.289 527.742C373.498 529.539 372.053 530.965 369.914 531.668L368.645 529.695C371.594 528.768 372.922 526.463 372.961 524.207H369.328V522.215H379.016ZM383.02 521.023V525.145H385.422V527.176H383.02V531.57H380.52V521.023H383.02ZM377.199 531.922C380.891 531.902 383.195 533.172 383.195 535.34C383.195 537.508 380.891 538.797 377.199 538.797C373.43 538.797 371.105 537.508 371.105 535.34C371.105 533.172 373.43 531.902 377.199 531.922ZM377.199 533.855C374.855 533.855 373.586 534.344 373.605 535.34C373.586 536.355 374.855 536.863 377.199 536.863C379.504 536.863 380.734 536.355 380.734 535.34C380.734 534.344 379.504 533.855 377.199 533.855Z" fill="black"/>
<path d="M73.8594 555.023V572.797H71.457V563.754H69.8359V572.016H67.5117V555.492H69.8359V561.762H71.457V555.023H73.8594ZM66.2617 557.211C66.2422 562.172 64.7578 566.234 59.7578 569.145L58.3125 567.426C61.9355 565.297 63.4883 562.689 63.8398 559.203H59.2109V557.211H66.2617ZM92.2188 557.23V559.262H89.9141V561.098H92.2188V563.148H89.9141V565.414H87.4141V555.023H89.9141V557.23H92.2188ZM80.8125 556C83.5664 555.98 85.6562 557.777 85.6562 560.297C85.6562 562.816 83.5664 564.594 80.8125 564.594C78.0391 564.594 75.9297 562.816 75.9297 560.297C75.9297 557.777 78.0391 555.98 80.8125 556ZM80.8125 558.09C79.4062 558.07 78.3711 558.93 78.3906 560.297C78.3711 561.684 79.4062 562.504 80.8125 562.504C82.1797 562.504 83.2148 561.684 83.2344 560.297C83.2148 558.93 82.1797 558.07 80.8125 558.09ZM84.0938 565.766C87.7461 565.766 90.0898 567.094 90.0898 569.301C90.0898 571.488 87.7461 572.797 84.0938 572.797C80.3633 572.797 78 571.488 78 569.301C78 567.094 80.3633 565.766 84.0938 565.766ZM84.0938 567.738C81.75 567.738 80.4805 568.266 80.5 569.301C80.4805 570.336 81.75 570.824 84.0938 570.824C86.3984 570.824 87.6289 570.336 87.6289 569.301C87.6289 568.266 86.3984 567.738 84.0938 567.738ZM100.012 559.047C100.012 562.309 101.496 565.59 104.504 566.859L103.039 568.852C101.008 567.934 99.6016 566.166 98.8008 563.969C97.9902 566.361 96.5352 568.295 94.3672 569.281L92.8633 567.211C95.9688 565.902 97.4727 562.504 97.4922 559.047V556.391H100.012V559.047ZM107.98 555.023V572.836H105.461V555.023H107.98ZM116.145 556.078C118.957 556.078 121.066 557.875 121.066 560.434C121.066 562.602 119.553 564.223 117.375 564.672V567.055C118.879 566.977 120.393 566.84 121.828 566.645L122.023 568.441C118.078 569.184 113.859 569.223 110.754 569.223L110.461 567.211C111.77 567.211 113.293 567.201 114.895 567.152V564.652C112.727 564.213 111.203 562.592 111.203 560.434C111.203 557.875 113.332 556.078 116.145 556.078ZM116.145 558.207C114.738 558.207 113.664 559.008 113.684 560.434C113.664 561.82 114.738 562.66 116.145 562.66C117.57 562.66 118.625 561.82 118.645 560.434C118.625 559.008 117.551 558.207 116.145 558.207ZM125.324 555.023V572.836H122.844V555.023H125.324ZM142.668 555.023V572.836H140.207V563.305H136.906V568.617H128.332V556.391H130.812V560.707H134.465V556.391H136.906V561.293H140.207V555.023H142.668ZM130.812 566.625H134.465V562.66H130.812V566.625ZM154.309 557.367C154.309 559.965 156.613 562.758 160.637 563.441L159.543 565.512C156.447 564.896 154.143 563.158 153 560.863C151.818 563.139 149.514 564.887 146.438 565.512L145.363 563.441C149.309 562.738 151.633 559.945 151.652 557.367V556.078H154.309V557.367ZM161.223 568.559V570.609H144.953V568.559H161.223ZM171.633 555.883C171.633 557.758 173.703 559.828 177.629 560.277L176.73 562.23C173.703 561.83 171.496 560.531 170.363 558.773C169.211 560.531 166.994 561.82 163.977 562.23L163.039 560.277C166.984 559.828 169.055 557.758 169.074 555.883V555.297H171.633V555.883ZM178.449 563.207V565.16H162.238V563.207H178.449ZM170.324 566.371C174.172 566.371 176.496 567.504 176.516 569.594C176.496 571.645 174.172 572.816 170.324 572.816C166.418 572.816 164.094 571.645 164.094 569.594C164.094 567.504 166.418 566.371 170.324 566.371ZM170.324 568.246C167.863 568.246 166.613 568.676 166.633 569.594C166.613 570.512 167.863 570.922 170.324 570.922C172.727 570.922 173.996 570.512 174.016 569.594C173.996 568.676 172.727 568.246 170.324 568.246ZM193.625 555.023V559.203H196.027V561.234H193.625V565.336H191.125V555.023H193.625ZM188.664 556.195C188.684 560.941 185.695 564.262 180.402 565.727L179.406 563.715C183.322 562.67 185.568 560.658 185.949 558.188H180.246V556.195H188.664ZM187.824 565.551C191.438 565.551 193.82 566.957 193.82 569.184C193.82 571.43 191.438 572.816 187.824 572.816C184.211 572.816 181.789 571.43 181.809 569.184C181.789 566.957 184.211 565.551 187.824 565.551ZM187.824 567.484C185.578 567.484 184.25 568.09 184.27 569.184C184.25 570.258 185.578 570.883 187.824 570.863C190.031 570.883 191.359 570.258 191.359 569.184C191.359 568.09 190.031 567.484 187.824 567.484ZM206.906 556.215V558.207H203.371C203.391 560.277 204.631 562.279 207.473 563.109L206.281 565.062C204.318 564.467 202.961 563.275 202.18 561.742C201.389 563.539 199.943 564.965 197.805 565.668L196.535 563.695C199.484 562.768 200.812 560.463 200.852 558.207H197.219V556.215H206.906ZM210.91 555.023V559.145H213.312V561.176H210.91V565.57H208.41V555.023H210.91ZM205.09 565.922C208.781 565.902 211.086 567.172 211.086 569.34C211.086 571.508 208.781 572.797 205.09 572.797C201.32 572.797 198.996 571.508 198.996 569.34C198.996 567.172 201.32 565.902 205.09 565.922ZM205.09 567.855C202.746 567.855 201.477 568.344 201.496 569.34C201.477 570.355 202.746 570.863 205.09 570.863C207.395 570.863 208.625 570.355 208.625 569.34C208.625 568.344 207.395 567.855 205.09 567.855ZM73.5078 582.043V592.277H71.0273V590.539H67.0234V588.547H71.0273V586.848H67.1992C66.0957 589.66 63.5762 591.594 59.6602 592.668L58.6836 590.695C62.7754 589.621 64.7773 587.668 65.1289 585.227H59.6406V583.234H67.8438C67.8438 583.811 67.8047 584.367 67.7266 584.895H71.0273V582.043H73.5078ZM67.5898 592.492C71.2031 592.492 73.625 593.879 73.6445 596.086C73.625 598.312 71.2031 599.719 67.5898 599.719C63.9375 599.719 61.4961 598.312 61.5156 596.086C61.4961 593.879 63.9375 592.492 67.5898 592.492ZM67.5898 594.445C65.3438 594.426 63.9961 594.992 63.9961 596.086C63.9961 597.18 65.3438 597.746 67.5898 597.746C69.7969 597.746 71.1445 597.18 71.1445 596.086C71.1445 594.992 69.7969 594.426 67.5898 594.445ZM82.2969 584.816C82.2969 586.965 83.5469 589.035 86.3594 589.914L85.0312 591.848C83.1465 591.223 81.8281 590.012 81.0664 588.449C80.2949 590.246 78.918 591.652 76.8867 592.336L75.5391 590.383C78.5078 589.387 79.7773 587.023 79.7969 584.582V582.961H82.2969V584.816ZM89.9141 582.023V586.184H92.3164V588.254H89.9141V592.57H87.4141V582.023H89.9141ZM84.0938 592.922C87.7656 592.922 90.0898 594.191 90.0898 596.359C90.0898 598.547 87.7656 599.797 84.0938 599.797C80.3438 599.797 78 598.547 78 596.359C78 594.191 80.3438 592.922 84.0938 592.922ZM84.0938 594.875C81.75 594.875 80.4805 595.383 80.5 596.359C80.4805 597.375 81.75 597.844 84.0938 597.844C86.3984 597.844 87.6289 597.375 87.6289 596.359C87.6289 595.383 86.3984 594.875 84.0938 594.875ZM107.199 582.043V585.793H109.602V587.824H107.199V592.062H104.699V582.043H107.199ZM107.199 592.863V599.582H95.5586V592.863H107.199ZM98 594.797V597.629H104.758V594.797H98ZM96.3203 582.883V589.055C98.4688 589.016 100.783 588.811 103.254 588.332L103.547 590.363C100.617 590.949 97.8633 591.105 95.3438 591.105H93.8203V582.883H96.3203ZM124.875 589.973V591.945H119.719V595.734H126.652V597.766H110.383V595.734H117.238V591.945H112.297V583.273H124.738V585.266H114.797V589.973H124.875ZM139.211 585.539C139.211 587.668 140.52 589.836 143.449 590.715L142.18 592.668C140.188 592.043 138.781 590.764 137.98 589.152C137.17 590.9 135.725 592.307 133.645 593L132.355 591.047C135.305 590.09 136.672 587.785 136.672 585.539V585.285H133.02V583.293H142.785V585.285H139.211V585.539ZM147.16 582.043V594.895H144.66V582.043H147.16ZM147.629 597.492V599.484H135.246V593.723H137.766V597.492H147.629ZM165.773 591.828V593.82H158.859V599.797H156.398V593.82H149.562V591.828H165.773ZM164.328 582.961V584.914H159.152C159.396 586.652 161.359 588.4 165.012 588.84L164.113 590.793C160.988 590.373 158.752 589.035 157.688 587.199C156.594 589.035 154.377 590.373 151.281 590.793L150.363 588.84C153.957 588.4 155.939 586.652 156.223 584.914H151.027V582.961H164.328ZM173.762 586.047C173.762 589.309 175.246 592.59 178.254 593.859L176.789 595.852C174.758 594.934 173.352 593.166 172.551 590.969C171.74 593.361 170.285 595.295 168.117 596.281L166.613 594.211C169.719 592.902 171.223 589.504 171.242 586.047V583.391H173.762V586.047ZM181.73 582.023V599.836H179.211V582.023H181.73ZM202.766 582.023V588.84H205.285V590.891H202.766V599.758H200.266V582.023H202.766ZM198.02 583.84C198 589.152 195.93 593.762 189.953 596.691L188.547 594.777C192.756 592.668 195.012 589.836 195.48 585.871H189.562V583.84H198.02ZM216.75 583.566V585.559H213.117C213.234 587.336 214.592 589.133 217.395 589.855L216.203 591.77C214.123 591.223 212.668 590.021 211.867 588.488C211.037 590.119 209.533 591.398 207.355 591.984L206.184 590.07C208.996 589.328 210.373 587.482 210.539 585.559H206.906V583.566H216.75ZM213.098 591.164V594.191C214.572 594.104 216.066 593.957 217.473 593.742L217.668 595.598C213.723 596.34 209.504 596.379 206.398 596.379L206.105 594.367C207.414 594.367 208.957 594.357 210.578 594.309V591.164H213.098ZM220.969 582.023V599.836H218.488V582.023H220.969ZM239.562 590.422V592.375H223.312V590.422H230.227V588.898H225.285V582.805H237.609V584.738H227.766V586.945H237.707V588.898H232.668V590.422H239.562ZM231.398 593.273C235.246 593.273 237.57 594.445 237.59 596.555C237.57 598.625 235.246 599.816 231.398 599.816C227.512 599.816 225.168 598.625 225.168 596.555C225.168 594.445 227.512 593.273 231.398 593.273ZM231.398 595.168C228.938 595.168 227.688 595.637 227.707 596.555C227.688 597.492 228.938 597.922 231.398 597.922C233.801 597.922 235.07 597.492 235.09 596.555C235.07 595.637 233.801 595.168 231.398 595.168ZM251.887 583.859V598H248.938V586.652H248.859L245.617 588.684V586.086L249.113 583.859H251.887ZM260.402 598.195C257.297 598.195 255.07 596.477 255.012 594.016H257.98C258.039 595.07 259.055 595.773 260.422 595.773C261.828 595.773 262.844 594.973 262.824 593.84C262.844 592.688 261.809 591.867 260.148 591.867H258.84V589.699H260.148C261.535 589.699 262.512 588.938 262.512 587.824C262.512 586.75 261.691 586.008 260.441 586.008C259.191 586.008 258.156 586.711 258.117 587.785H255.305C255.344 585.344 257.551 583.664 260.441 583.664C263.391 583.664 265.363 585.402 265.344 587.648C265.363 589.23 264.25 590.363 262.668 590.637V590.754C264.738 591.008 265.891 592.277 265.871 594.035C265.891 596.457 263.586 598.195 260.402 598.195ZM273.098 583.664C276.027 583.684 278.801 585.422 278.801 590.559C278.82 595.363 276.535 598.195 272.98 598.195C270.129 598.195 268.195 596.418 267.902 594.016H270.793C271.027 595.051 271.848 595.676 272.98 595.676C274.914 595.676 275.93 593.957 275.93 591.125H275.812C275.148 592.375 273.762 593.117 272.18 593.117C269.641 593.117 267.766 591.203 267.746 588.566C267.746 585.715 269.895 583.645 273.098 583.664ZM273.117 585.969C271.672 585.969 270.598 587.082 270.617 588.488C270.617 589.875 271.652 590.969 273.098 590.969C274.523 590.969 275.637 589.836 275.637 588.469C275.617 587.121 274.562 585.969 273.117 585.969ZM287.395 589.777V592.082H280.949V589.777H287.395ZM295.871 583.859V598H292.922V586.652H292.844L289.602 588.684V586.086L293.098 583.859H295.871ZM299.699 598L305.656 586.359V586.262H298.723V583.859H308.703V586.301L302.746 598H299.699Z" fill="#A370E4"/>
</g>
<defs>
<clipPath id="clip0_345_133">
<rect width="990" height="660" fill="white"/>
</clipPath>
</defs>
</svg>
